<?xml version="1.0" encoding="UTF-8" standalone="no"?>
<!-- Created with Inkscape (http://www.inkscape.org/) -->
<svg
   xmlns:dc="http://purl.org/dc/elements/1.1/"
   xmlns:cc="http://creativecommons.org/ns#"
   xmlns:rdf="http://www.w3.org/1999/02/22-rdf-syntax-ns#"
   xmlns:svg="http://www.w3.org/2000/svg"
   xmlns="http://www.w3.org/2000/svg"
   xmlns:sodipodi="http://sodipodi.sourceforge.net/DTD/sodipodi-0.dtd"
   xmlns:inkscape="http://www.inkscape.org/namespaces/inkscape"
   width="600"
   height="80"
   id="svg2"
   sodipodi:version="0.32"
   inkscape:version="0.46"
   sodipodi:docname="acehigh.svg"
   version="1.0"
   inkscape:output_extension="org.inkscape.output.svg.inkscape"
   inkscape:export-filename="/home/nickoe/Skrivebord/acehigh.png"
   inkscape:export-xdpi="90"
   inkscape:export-ydpi="90">
  <sodipodi:namedview
     id="base"
     pagecolor="#ffffff"
     bordercolor="#666666"
     borderopacity="1.0"
     gridtolerance="10000"
     guidetolerance="10"
     objecttolerance="10"
     inkscape:pageopacity="0.0"
     inkscape:pageshadow="2"
     inkscape:zoom="1"
     inkscape:cx="242.24117"
     inkscape:cy="95.127083"
     inkscape:document-units="px"
     inkscape:current-layer="layer1"
     showgrid="false"
     inkscape:window-width="1272"
     inkscape:window-height="725"
     inkscape:window-x="0"
     inkscape:window-y="24" />
  <defs
     id="defs4">
    <inkscape:perspective
       id="perspective10"
       inkscape:persp3d-origin="372.04724 : 350.78739 : 1"
       inkscape:vp_z="744.09448 : 526.18109 : 1"
       inkscape:vp_y="0 : 1000 : 0"
       inkscape:vp_x="0 : 526.18109 : 1"
       sodipodi:type="inkscape:persp3d" />
  </defs>
  <metadata
     id="metadata7">
    <rdf:RDF>
      <cc:Work
         rdf:about="">
        <dc:format>image/svg+xml</dc:format>
        <dc:type
           rdf:resource="http://purl.org/dc/dcmitype/StillImage" />
      </cc:Work>
    </rdf:RDF>
  </metadata>
  <g
     id="layer1"
     inkscape:groupmode="layer"
     inkscape:label="Layer 1">
    <g
       id="g2388"
       transform="translate(70.5,0.23)">
      <path
         sodipodi:nodetypes="cccccccssssccccccscccc"
         id="path3762"
         d="M 341.65344,2.1025 L 329.41922,66.785625 L 328.6982,71.307951 L 337.17304,71.606582 L 338.06422,66.785625 L 340.57281,53.509375 C 341.03709,51.049045 341.90707,49.103267 343.19719,47.720312 C 344.4901,46.321304 346.02735,45.636263 347.82844,45.63625 C 348.56812,45.636263 349.20142,45.77778 349.71953,46.099375 C 350.24104,46.404927 350.64573,46.848762 350.87734,47.411562 C 351.05564,47.829685 351.10172,48.495423 351.03172,49.379844 C 350.97705,50.264302 350.7057,51.878806 350.25984,54.242656 L 348.40734,64.122656 L 347.90562,66.785625 L 356.58922,66.785625 L 359.67672,50.344687 C 360.36553,46.694385 360.09042,43.922069 358.82766,42.008437 C 357.58059,40.094854 355.38626,39.113932 352.26672,39.113906 C 350.49772,39.113931 348.81682,39.515947 347.21094,40.271719 C 345.60773,41.011459 344.02504,42.169271 342.42531,43.745156 L 350.25984,2.1025 L 341.65344,2.1025 z"
         style="font-size:40px;font-style:normal;font-weight:normal;fill:#000000;fill-opacity:1;stroke:none;stroke-width:1px;stroke-linecap:butt;stroke-linejoin:miter;stroke-opacity:1;font-family:Bitstream Vera Sans" />
      <path
         id="path3757"
         d="M 130.27547,30.739062 L 115.60984,69.217031 L -70.5,69.217031 L -70.5,76.627031 L 122.13219,76.627031 L 128.26859,60.186094 L 142.77984,60.186094 L 148.45312,76.627031 L 291.09562,76.627031 L 292.36922,69.217031 L 155.16844,69.217031 L 141.35187,30.739062 L 130.27547,30.739062 z M 135.71719,39.191094 L 140.50281,53.509375 L 130.62281,53.509375 L 135.71719,39.191094 z M 322.58812,69.217031 C 321.39032,72.253007 319.56585,74.724513 317.06922,76.627031 L 336.28891,76.627031 L 337.63969,69.217031 L 328.9175,69.217031 L 322.58812,69.217031 z"
         style="font-size:40px;font-style:normal;font-weight:normal;fill:#000000;fill-opacity:1;stroke:none;stroke-width:1px;stroke-linecap:butt;stroke-linejoin:miter;stroke-opacity:1;font-family:Bitstream Vera Sans"
         sodipodi:nodetypes="ccccccccccccccccccccccc" />
      <path
         id="path3750"
         d="M 284.11016,29.2725 L 282.79797,36.296563 L 291.44297,36.296563 L 292.75516,29.2725 L 284.11016,29.2725 z"
         style="font-size:40px;font-style:normal;font-weight:normal;fill:#000000;fill-opacity:1;stroke:none;stroke-width:1px;stroke-linecap:butt;stroke-linejoin:miter;stroke-opacity:1;font-family:Bitstream Vera Sans" />
      <path
         id="path3746"
         d="M 242.81484,30.777656 L 236.02234,66.785625 L 245.32344,66.785625 L 248.21797,51.5025 L 261.91875,51.5025 L 259.02422,66.785625 L 268.28672,66.785625 L 275.11781,30.777656 L 265.81672,30.777656 L 263.23094,44.517031 L 249.53016,44.517031 L 252.11594,30.777656 L 242.81484,30.777656 z"
         style="font-size:40px;font-style:normal;font-weight:normal;fill:#000000;fill-opacity:1;stroke:none;stroke-width:1px;stroke-linecap:butt;stroke-linejoin:miter;stroke-opacity:1;font-family:Bitstream Vera Sans" />
      <path
         id="path3744"
         d="M 172.49703,39.075312 C 167.62457,39.07534 163.77117,40.348932 160.99609,42.8575 C 158.22116,45.350036 156.83427,48.823469 156.78937,53.277812 C 156.74452,57.732183 158.07862,61.228131 160.80312,63.736719 C 163.52785,66.229233 167.31582,67.441722 172.18828,67.441719 C 173.58729,67.441718 175.00942,67.313078 176.395,67.055781 C 177.79639,66.81457 179.1687,66.473659 180.52453,65.975156 L 180.60172,58.9125 C 179.56462,59.700463 178.4316,60.2858 177.20547,60.687812 C 175.99533,61.089836 174.69685,61.266724 173.34609,61.266719 C 170.93397,61.266724 169.04807,60.581687 167.71141,59.182656 C 166.39095,57.767561 165.75627,55.802499 165.78172,53.277812 C 165.80714,50.753154 166.47835,48.77201 167.82719,47.372969 C 169.19222,45.957886 171.08833,45.250334 173.50047,45.250312 C 174.77082,45.250334 175.99685,45.443303 177.16687,45.829219 C 178.35291,46.215178 179.51303,46.839108 180.67891,47.643125 L 180.75609,40.580469 C 179.39423,40.081992 178.04566,39.702487 176.66516,39.46125 C 175.30086,39.203986 173.91213,39.07534 172.49703,39.075312 z"
         style="font-size:40px;font-style:normal;font-weight:normal;fill:#000000;fill-opacity:1;stroke:none;stroke-width:1px;stroke-linecap:butt;stroke-linejoin:miter;stroke-opacity:1;font-family:Bitstream Vera Sans" />
      <path
         id="path3742"
         d="M 201.24937,39.075312 C 196.58596,39.07534 192.90639,40.371446 190.21156,42.896094 C 187.53279,45.420789 186.16502,48.87171 186.12062,53.277812 C 186.07544,57.764345 187.38073,61.244211 190.05719,63.736719 C 192.74986,66.21315 196.55378,67.441722 201.44234,67.441719 C 203.48458,67.441718 205.53242,67.264829 207.57875,66.862813 C 209.62486,66.476875 211.66512,65.897969 213.71516,65.126094 L 213.79234,58.449375 C 211.7712,59.542872 209.8066,60.372637 207.8875,60.919375 C 205.98461,61.450045 204.10851,61.729849 202.29141,61.729844 C 200.04009,61.729849 198.28672,61.199186 197.04266,60.186094 C 195.79857,59.173015 195.07002,57.658212 194.88141,55.632031 L 215.10453,55.632031 L 215.10453,53.162031 C 215.14758,48.884576 213.89194,45.491545 211.36094,42.934687 C 208.84588,40.377878 205.49469,39.07534 201.24937,39.075312 z M 201.13359,44.825781 C 202.67731,44.825803 203.90003,45.356467 204.83859,46.369531 C 205.7934,47.366556 206.28309,48.665877 206.26656,50.306094 L 195.03578,50.306094 C 195.31089,48.537232 195.98804,47.186452 197.04266,46.25375 C 198.09743,45.305008 199.46117,44.825803 201.13359,44.825781 z"
         style="font-size:40px;font-style:normal;font-weight:normal;fill:#000000;fill-opacity:1;stroke:none;stroke-width:1px;stroke-linecap:butt;stroke-linejoin:miter;stroke-opacity:1;font-family:Bitstream Vera Sans" />
      <path
         id="path3740"
         d="M 308.69437,39.1525 C 305.39769,39.152524 302.46138,40.461502 299.81781,43.050469 C 297.17756,45.623406 295.44652,48.932811 294.68484,52.969062 C 293.92607,56.989247 294.37207,60.282583 296.03562,62.887656 C 297.70201,65.476661 300.18766,66.785626 303.48422,66.785625 C 305.36566,66.785625 307.12355,66.406111 308.69437,65.666406 C 310.2647,64.92669 311.76058,63.76888 313.24844,62.192969 L 312.90109,64.045469 C 312.40314,66.682712 311.40415,68.634915 309.85219,69.873125 C 308.29961,71.111336 306.08283,71.725622 303.25266,71.725625 C 301.78929,71.725625 300.37226,71.503697 299.00734,71.069531 C 297.63891,70.651422 296.30244,70.008198 294.955,69.139844 L 293.68141,75.89375 C 295.17312,76.424405 296.6694,76.794251 298.19687,77.051563 C 299.72394,77.308837 301.3326,77.437489 303.02109,77.4375 C 308.23124,77.437487 312.43493,76.302189 315.60266,74.002656 C 318.78292,71.719179 320.76558,68.387271 321.58469,64.045469 L 326.17734,39.77 L 317.49375,39.77 L 316.72187,43.78375 C 315.8326,42.191786 314.77139,41.01146 313.48,40.271719 C 312.18839,39.532028 310.5757,39.152523 308.69437,39.1525 z M 310.73984,45.404688 C 312.54075,45.404712 313.81246,46.054372 314.56062,47.372969 C 315.30864,48.691603 315.47917,50.55696 315.02375,52.969062 C 314.57176,55.365099 313.72253,57.207942 312.47656,58.526562 C 311.23115,59.845185 309.68493,60.533436 307.88391,60.533437 C 306.0346,60.533437 304.74997,59.874134 304.02453,58.60375 C 303.30265,57.317299 303.17114,55.445497 303.63859,52.969062 C 304.09403,50.55696 304.93979,48.691603 306.18578,47.372969 C 307.43164,46.054372 308.95475,45.404712 310.73984,45.404688 z"
         style="font-size:40px;font-style:normal;font-weight:normal;fill:#000000;fill-opacity:1;stroke:none;stroke-width:1px;stroke-linecap:butt;stroke-linejoin:miter;stroke-opacity:1;font-family:Bitstream Vera Sans" />
      <path
         id="path3736"
         d="M 282.14187,39.77 L 277.0475,66.785625 L 285.65391,66.785625 L 290.78687,39.77 L 282.14187,39.77 z"
         style="font-size:40px;font-style:normal;font-weight:normal;fill:#000000;fill-opacity:1;stroke:none;stroke-width:1px;stroke-linecap:butt;stroke-linejoin:miter;stroke-opacity:1;font-family:Bitstream Vera Sans" />
      <path
         sodipodi:nodetypes="ccccc"
         id="path3775"
         d="M 346.40069,2.1031175 L 346.40069,9.698367 L 529.5,9.698367 L 529.5,2.1031175 L 346.40069,2.1031175 z"
         style="font-size:40px;font-style:normal;font-weight:normal;fill:#000000;fill-opacity:1;stroke:none;stroke-width:1px;stroke-linecap:butt;stroke-linejoin:miter;stroke-opacity:1;font-family:Bitstream Vera Sans" />
    </g>
  </g>
</svg>
