<?xml version="1.0" encoding="UTF-8" standalone="no"?>
<!-- Created with Inkscape (http://www.inkscape.org/) -->
<svg
   xmlns:dc="http://purl.org/dc/elements/1.1/"
   xmlns:cc="http://creativecommons.org/ns#"
   xmlns:rdf="http://www.w3.org/1999/02/22-rdf-syntax-ns#"
   xmlns:svg="http://www.w3.org/2000/svg"
   xmlns="http://www.w3.org/2000/svg"
   xmlns:sodipodi="http://sodipodi.sourceforge.net/DTD/sodipodi-0.dtd"
   xmlns:inkscape="http://www.inkscape.org/namespaces/inkscape"
   width="744.09448819"
   height="1052.3622047"
   id="svg2"
   sodipodi:version="0.32"
   inkscape:version="0.46"
   sodipodi:docname="forside.svg"
   inkscape:output_extension="org.inkscape.output.svg.inkscape">
  <defs
     id="defs4">
    <inkscape:perspective
       sodipodi:type="inkscape:persp3d"
       inkscape:vp_x="0 : 526.18109 : 1"
       inkscape:vp_y="6.1230318e-14 : 1000 : 0"
       inkscape:vp_z="744.09448 : 526.18109 : 1"
       inkscape:persp3d-origin="372.04724 : 350.78739 : 1"
       id="perspective10" />
    <inkscape:perspective
       id="perspective2499"
       inkscape:persp3d-origin="372.04724 : 350.78739 : 1"
       inkscape:vp_z="744.09448 : 526.18109 : 1"
       inkscape:vp_y="0 : 1000 : 0"
       inkscape:vp_x="0 : 526.18109 : 1"
       sodipodi:type="inkscape:persp3d" />
    <inkscape:path-effect
       prop_scale="5"
       id="path-effect3269"
       effect="skeletal" />
    <inkscape:path-effect
       copytype="single"
       prop_scale="1"
       id="path-effect3271"
       effect="skeletal" />
  </defs>
  <sodipodi:namedview
     id="base"
     pagecolor="#ffffff"
     bordercolor="#666666"
     borderopacity="1.0"
     gridtolerance="10000"
     guidetolerance="10"
     objecttolerance="10"
     inkscape:pageopacity="0.0"
     inkscape:pageshadow="2"
     inkscape:zoom="0.5653947"
     inkscape:cx="372.04724"
     inkscape:cy="526.18109"
     inkscape:document-units="px"
     inkscape:current-layer="layer1"
     showgrid="false"
     inkscape:window-width="1280"
     inkscape:window-height="778"
     inkscape:window-x="0"
     inkscape:window-y="0" />
  <metadata
     id="metadata7">
    <rdf:RDF>
      <cc:Work
         rdf:about="">
        <dc:format>image/svg+xml</dc:format>
        <dc:type
           rdf:resource="http://purl.org/dc/dcmitype/StillImage" />
      </cc:Work>
    </rdf:RDF>
  </metadata>
  <g
     inkscape:label="Layer 1"
     inkscape:groupmode="layer"
     id="layer1">
    <rect
       style="fill:#c9dde6;fill-opacity:1;stroke:none;stroke-width:5;stroke-miterlimit:4;stroke-dasharray:none;stroke-dashoffset:0;stroke-opacity:1"
       id="rect3290"
       width="743.9776"
       height="411.13263"
       x="0.1010621"
       y="641.2301" />
    <rect
       style="fill:#c9dde6;fill-opacity:1;stroke:none;stroke-width:5;stroke-miterlimit:4;stroke-dasharray:none;stroke-dashoffset:0;stroke-opacity:1"
       id="rect3288"
       width="744.10382"
       height="258.59906"
       x="7.0565375e-07"
       y="-0.21676946" />
    <g
       transform="translate(-466.19528,-453.79006)"
       id="g2501"
       inkscape:label="Layer 1">
      <path
         id="path2389"
         d="M 935.73332,583.43125 L 934.68273,584.78826 L 904.60955,623.09108 L 852.21131,623.09108 C 850.90209,625.92143 848.74933,628.2969 846.3455,630.09502 L 906.31676,630.09502 L 908.02398,630.09502 L 909.07457,628.73801 L 939.14775,590.43519 L 1069.7713,590.43519 L 1069.7713,583.43125 L 937.44054,583.43125 L 935.73332,583.43125 z M 545.48238,623.09108 L 545.48238,630.09502 L 802.87728,630.09502 L 804.2343,623.09108 L 545.48238,623.09108 z"
         style="fill:#000000;fill-opacity:1;fill-rule:evenodd;stroke:none;stroke-width:5;stroke-linecap:butt;stroke-linejoin:miter;stroke-miterlimit:4;stroke-dasharray:none;stroke-opacity:1" />
      <path
         id="text3228"
         d="M 628.98531,574.41189 L 628.76643,574.80587 L 605.6972,615.64761 L 605.08435,616.6982 L 606.31004,616.6982 L 617.12238,616.6982 L 617.51635,616.6982 L 617.73522,616.30423 L 621.54362,609.25651 L 636.86474,609.25651 L 637.95911,616.08536 L 638.04666,616.6982 L 638.6595,616.6982 L 648.64012,616.6982 L 649.47184,616.6982 L 649.34052,615.86648 L 642.1177,575.02474 L 642.03015,574.41189 L 641.41731,574.41189 L 629.37928,574.41189 L 628.98531,574.41189 z M 629.77325,575.81268 L 640.84823,575.81268 L 647.85218,615.29741 L 639.22857,615.29741 L 638.13421,608.42479 L 637.47759,608.51234 L 637.47759,607.85572 L 621.14965,607.85572 L 620.75567,607.85572 L 620.5368,608.20592 L 616.68463,615.29741 L 607.49196,615.29741 L 629.77325,575.81268 z M 634.01939,583.2106 L 633.01257,585.04913 L 624.52029,600.808 L 625.13314,601.1582 L 625.13314,601.81482 L 636.0768,601.81482 L 636.90852,601.81482 L 636.77719,601.02688 L 634.32581,585.26801 L 634.01939,583.2106 z M 674.90491,583.91099 C 671.47905,583.91102 668.42384,584.40249 665.75601,585.4431 C 663.08987,586.48311 660.71794,588.08576 658.66451,590.21454 C 656.81986,592.15333 655.37405,594.34811 654.3746,596.78074 C 653.39401,599.21337 652.88626,601.72258 652.88626,604.30998 C 652.88626,608.43825 654.29348,611.766 657.04485,614.07172 C 659.81629,616.35865 663.72556,617.48614 668.64513,617.48614 C 670.34596,617.48614 671.9976,617.30358 673.67922,617.00462 C 675.36099,616.72432 677.05386,616.31317 678.7133,615.73516 L 679.10727,615.60383 L 679.15105,615.20986 L 680.68316,607.1991 L 680.98958,605.53567 L 679.58879,606.49871 C 678.31105,607.35636 676.97233,607.98936 675.56153,608.42479 C 674.14929,608.86066 672.73422,609.08141 671.27161,609.08141 C 669.09201,609.08141 667.51529,608.5283 666.41263,607.50553 C 665.30676,606.46379 664.74918,605.03685 664.74919,603.04051 C 664.74918,599.84432 665.69544,597.29415 667.59454,595.2924 C 669.49324,593.27398 671.87041,592.31575 674.90491,592.31572 C 676.03981,592.31575 677.19674,592.49641 678.40688,592.92857 C 679.62154,593.36241 680.85491,594.00615 682.12772,594.85465 L 683.00322,595.4675 L 683.22209,594.41691 L 684.7542,586.40615 L 684.09758,586.27482 L 684.31646,585.6182 C 682.7647,585.03867 681.20755,584.63002 679.63257,584.34874 C 678.05779,584.04882 676.49917,583.91102 674.90491,583.91099 z M 707.16682,583.91099 C 703.8922,583.91102 700.87036,584.49041 698.14924,585.66198 C 695.446,586.83403 693.08945,588.56237 691.1453,590.82739 C 689.50677,592.71077 688.24903,594.80302 687.38068,597.08716 C 686.53116,599.35257 686.11122,601.67439 686.11122,604.0911 C 686.11122,608.27204 687.51958,611.64068 690.26981,613.98417 C 693.03905,616.32738 696.89597,617.48614 701.78254,617.48614 C 704.26842,617.48614 706.69712,617.23147 709.0929,616.78575 C 711.50657,616.35871 713.93376,615.7047 716.35949,614.81589 L 716.70969,614.68457 L 716.79724,614.29059 L 718.32935,606.71758 L 718.592,605.31679 L 717.32254,605.92964 C 714.83892,607.13544 712.47956,608.03693 710.23104,608.64367 C 708.00267,609.24979 705.87451,609.56293 703.88372,609.56293 C 701.59057,609.56293 699.9652,609.09081 698.93719,608.24969 C 697.92978,607.41279 697.40506,606.15886 697.40507,604.30998 C 697.40507,604.26273 697.44149,604.15162 697.44885,604.04733 L 719.68637,604.04733 L 720.25544,604.04733 L 720.38676,603.52203 L 720.73696,601.94615 C 720.96038,600.95921 721.07994,600.06575 721.17471,599.23212 C 721.28769,598.38443 721.34976,597.5891 721.3498,596.82451 C 721.34976,592.93284 720.04393,589.70804 717.45386,587.36919 C 714.88127,585.02878 711.43159,583.91102 707.16682,583.91099 z M 674.90491,585.31178 C 676.4113,585.31181 677.88043,585.42208 679.36992,585.70575 C 680.66771,585.93753 681.97822,586.30802 683.26586,586.75634 L 681.9964,593.23499 C 680.9548,592.61265 679.92134,591.98427 678.8884,591.61533 C 677.54497,591.13557 676.21403,590.91496 674.90491,590.91494 C 671.55557,590.91496 668.69437,592.04333 666.54395,594.32936 C 664.39387,596.59567 663.34839,599.56109 663.3484,603.04051 C 663.34839,605.31223 664.03837,607.18297 665.44958,608.51234 C 666.86393,609.82422 668.85485,610.4822 671.27161,610.4822 C 672.87319,610.4822 674.41289,610.21415 675.9555,609.73803 C 677.02396,609.40826 678.02627,608.84115 679.01972,608.29347 L 677.88158,614.50947 C 676.40979,615.00232 674.9443,615.40029 673.46034,615.64761 C 671.85882,615.93232 670.26386,616.08536 668.64513,616.08536 C 663.93427,616.08536 660.36538,615.03871 657.92035,613.02113 C 655.49171,610.98588 654.28705,608.1341 654.28705,604.30998 C 654.28705,601.89981 654.77153,599.57919 655.68784,597.30603 C 656.62176,595.03292 657.94105,592.99617 659.67133,591.17758 C 661.59407,589.1843 663.76012,587.72273 666.23753,586.75634 C 668.71318,585.79068 671.61862,585.31181 674.90491,585.31178 z M 707.16682,585.31178 C 711.1827,585.31181 714.25543,586.34631 716.53459,588.41978 C 718.83263,590.49492 719.94899,593.23806 719.94902,596.82451 C 719.94899,597.51911 719.92351,598.26319 719.81769,599.05702 C 719.72999,599.82848 719.55042,600.69332 719.33617,601.63972 L 719.16107,602.64654 L 696.79223,602.64654 L 696.09183,602.64654 L 696.09183,603.34693 C 696.09182,603.41755 696.06549,603.57543 696.04806,603.78468 C 696.02877,603.99677 696.00427,604.16156 696.00429,604.30998 C 696.00427,606.43731 696.69794,608.16734 698.06169,609.30029 L 698.06169,609.34406 C 699.44126,610.47282 701.39811,610.96372 703.88372,610.96372 C 706.01501,610.96372 708.24971,610.63486 710.58124,610.00068 C 712.52397,609.47645 714.58496,608.61926 716.66592,607.68062 L 715.52778,613.5902 C 713.29283,614.38822 711.08688,615.03723 708.87403,615.42874 L 708.83026,615.42874 C 706.52022,615.85851 704.18479,616.08536 701.78254,616.08536 C 697.11161,616.08536 693.59252,615.00431 691.1453,612.93358 C 688.71552,610.86315 687.512,607.97202 687.512,604.0911 C 687.512,601.83855 687.90189,599.68078 688.69392,597.56868 C 689.50359,595.43892 690.66075,593.5112 692.19589,591.74665 L 692.23967,591.74665 C 694.05282,589.63426 696.20506,588.02113 698.71831,586.93144 C 701.25013,585.84138 704.0576,585.31181 707.16682,585.31178 z M 633.23145,587.54429 L 635.28886,600.41403 L 626.31505,600.41403 L 633.23145,587.54429 z M 706.07245,590.38964 C 704.02834,590.38967 702.20824,590.98355 700.73195,592.14063 C 699.27276,593.28001 698.19267,594.95104 697.44885,597.08716 L 697.14243,598.00643 L 698.10547,598.00643 L 710.80011,598.00643 L 710.80011,597.34981 L 711.45673,597.48113 C 711.51588,597.22472 711.56609,596.9518 711.58806,596.69319 C 711.58925,596.67919 711.58698,596.66342 711.58806,596.64941 C 711.62469,596.37965 711.6318,596.12014 711.63183,595.86147 C 711.6318,594.26226 711.16089,592.87423 710.1435,591.87798 C 709.12553,590.88127 707.70188,590.38967 706.07245,590.38964 z M 706.07245,591.79043 C 707.43426,591.79046 708.40362,592.16704 709.13668,592.88479 C 709.87022,593.60309 710.23102,594.54242 710.23104,595.86147 C 710.23102,596.06274 710.21943,596.29277 710.18727,596.51809 L 710.18727,596.56186 C 710.18618,596.57597 710.1885,596.59152 710.18727,596.60564 L 699.24361,596.60564 C 699.8764,595.19238 700.63349,593.99548 701.60744,593.23499 C 702.83055,592.27635 704.28625,591.79046 706.07245,591.79043 z"
         style="font-size:40px;font-style:oblique;font-variant:normal;font-weight:bold;font-stretch:normal;text-align:start;line-height:125%;writing-mode:lr-tb;text-anchor:start;fill:#000000;fill-opacity:1;stroke:none;stroke-width:1px;stroke-linecap:butt;stroke-linejoin:miter;stroke-opacity:1;font-family:Bitstream Vera Sans;-inkscape-font-specification:Bitstream Vera Sans Bold Oblique" />
      <path
         id="text2449"
         d="M 755.55174,575.1305 L 766.08501,575.1305 L 763.04814,590.69786 L 778.58814,590.69786 L 781.59765,575.1305 L 792.13092,575.1305 L 784.16941,615.97772 L 773.63613,615.97772 L 777.00131,598.65938 L 761.48867,598.65938 L 758.1235,615.97772 L 747.59022,615.97772 L 755.55174,575.1305 M 801.05001,585.33547 L 810.8993,585.33547 L 804.90764,615.97772 L 795.0857,615.97772 L 801.05001,585.33547 M 803.34817,573.40687 L 813.19747,573.40687 L 811.638,581.39575 L 801.76134,581.39575 L 803.34817,573.40687 M 836.04237,610.77948 C 834.47375,612.56694 832.8778,613.88018 831.25451,614.71919 C 829.63118,615.55821 827.86196,615.97772 825.94683,615.97772 C 822.48133,615.97772 819.73631,614.86511 817.71173,612.63989 C 815.70538,610.39646 814.70222,607.34135 814.70222,603.47459 C 814.70222,601.41354 815.04878,599.35249 815.74187,597.29141 C 816.45321,595.21213 817.46549,593.26053 818.77874,591.43656 C 820.38381,589.2296 822.22598,587.55159 824.30529,586.40248 C 826.38457,585.23517 828.6189,584.65152 831.00828,584.65149 C 833.16051,584.65152 834.96621,585.07103 836.42538,585.91 C 837.90275,586.74905 839.14304,588.0714 840.14623,589.87708 L 840.96701,585.33547 L 850.84366,585.33547 L 845.67279,611.95591 C 844.61487,617.44598 842.35317,621.50426 838.88772,624.13074 C 835.4222,626.75721 830.607,628.07045 824.44209,628.07046 C 822.54517,628.07045 820.71211,627.92453 818.94288,627.63271 C 817.1919,627.34087 815.45915,626.89401 813.74466,626.29212 L 815.19468,618.65891 C 816.74503,619.64383 818.29538,620.37341 819.84575,620.84764 C 821.39609,621.34011 822.98291,621.58634 824.60623,621.58634 C 827.85284,621.58634 830.34252,620.89324 832.07528,619.50705 C 833.82625,618.12084 835.00269,615.91387 835.60462,612.88614 L 836.04237,610.77948 M 833.30644,591.71015 C 830.89883,591.71018 828.89249,592.79541 827.28744,594.96589 C 825.70058,597.1364 824.90718,599.86319 824.90719,603.14627 C 824.90718,605.0067 825.3358,606.42938 826.19307,607.41431 C 827.05031,608.381 828.2997,608.86435 829.94127,608.86433 C 832.33061,608.86435 834.32783,607.78822 835.93292,605.63595 C 837.53797,603.46547 838.3405,600.76604 838.34053,597.53764 C 838.3405,595.64076 837.91187,594.19985 837.05465,593.2149 C 836.19738,592.21176 834.94797,591.71018 833.30644,591.71015 M 888.9276,597.31877 L 885.28884,615.97772 L 875.4669,615.97772 L 878.55849,599.99997 C 878.77733,598.96034 878.94149,598.08484 879.05095,597.3735 C 879.1786,596.64394 879.24243,596.06939 879.24246,595.64987 C 879.24243,594.48256 878.91413,593.57971 878.25753,592.9413 C 877.61913,592.30295 876.70716,591.98377 875.52162,591.98374 C 873.49702,591.98377 871.75515,592.77717 870.29602,594.36398 C 868.85508,595.9326 867.85192,598.1122 867.28651,600.90282 L 864.33173,615.97772 L 854.50979,615.97772 L 862.77226,573.40687 L 872.62155,573.40687 L 869.42053,589.82236 C 871.22621,588.05317 873.04103,586.73993 874.865,585.88264 C 876.68892,585.02542 878.59493,584.5968 880.58306,584.59676 C 883.41014,584.5968 885.58976,585.3355 887.1219,586.81285 C 888.65397,588.29028 889.42003,590.36958 889.42006,593.05075 C 889.42003,593.63443 889.37444,594.28193 889.28327,594.99325 C 889.21028,595.7046 889.09172,596.47978 888.9276,597.31877"
         style="font-size:40px;font-style:oblique;font-variant:normal;font-weight:bold;font-stretch:normal;text-align:start;line-height:125%;writing-mode:lr-tb;text-anchor:start;fill:#000000;fill-opacity:1;stroke:#000000;stroke-width:1.40078855px;stroke-linecap:butt;stroke-linejoin:miter;stroke-opacity:1;font-family:Bitstream Vera Sans;-inkscape-font-specification:Bitstream Vera Sans Bold Oblique" />
    </g>
    <text
       xml:space="preserve"
       style="font-size:24px;font-style:normal;font-variant:normal;font-weight:normal;font-stretch:normal;text-align:start;line-height:125%;writing-mode:lr-tb;text-anchor:start;fill:#000000;fill-opacity:1;stroke:none;stroke-width:1px;stroke-linecap:butt;stroke-linejoin:miter;stroke-opacity:1;font-family:Bitstream Charter;-inkscape-font-specification:Bitstream Charter"
       x="484.87323"
       y="177.91527"
       id="text2506"
       sodipodi:linespacing="125%"><tspan
         sodipodi:role="line"
         id="tspan2508"
         x="484.87323"
         y="177.91527">- en (<tspan
   style="font-size:24px;font-style:normal;font-variant:normal;font-weight:normal;font-stretch:normal;text-align:start;line-height:125%;writing-mode:lr-tb;text-anchor:start;font-family:Bitstream Charter;-inkscape-font-specification:Bitstream Charter"
   id="tspan2510">x</tspan>,<tspan
   style="font-size:24px;font-style:normal;font-variant:normal;font-weight:normal;font-stretch:normal;text-align:start;line-height:125%;writing-mode:lr-tb;text-anchor:start;font-family:Bitstream Charter;-inkscape-font-specification:Bitstream Charter"
   id="tspan2512">y</tspan>)-plotter</tspan></text>
    <path
       style="fill:none;fill-rule:evenodd;stroke:#000000;stroke-width:4.89070892;stroke-linecap:butt;stroke-linejoin:miter;stroke-miterlimit:4;stroke-dasharray:none;stroke-opacity:1"
       d="M 0.12704352,260.844 L 744.10242,260.844"
       id="path2514" />
    <path
       style="fill:none;fill-rule:evenodd;stroke:#000000;stroke-width:4.89898205;stroke-linecap:butt;stroke-linejoin:miter;stroke-miterlimit:4;stroke-dasharray:none;stroke-opacity:1"
       d="M 0.10091921,638.7029 L 744.07675,638.7029"
       id="path3286" />
    <text
       xml:space="preserve"
       style="font-size:24px;font-style:normal;font-variant:normal;font-weight:normal;font-stretch:normal;text-align:start;line-height:125%;writing-mode:lr-tb;text-anchor:start;fill:#000000;fill-opacity:1;stroke:none;stroke-width:1px;stroke-linecap:butt;stroke-linejoin:miter;stroke-opacity:1;font-family:Bitstream Vera Sans;-inkscape-font-specification:Bitstream Vera Sans"
       x="24.582535"
       y="823.30554"
       id="text3292"
       sodipodi:linespacing="125%"><tspan
         sodipodi:role="line"
         id="tspan3294"
         x="24.582535"
         y="823.30554">Formelle krav her: navne, gruppenummer,</tspan><tspan
         sodipodi:role="line"
         x="24.582535"
         y="853.30554"
         id="tspan2398">projektets titel, afleveringsdato m.m.</tspan></text>
    <text
       xml:space="preserve"
       style="font-size:24px;font-style:normal;font-variant:normal;font-weight:normal;font-stretch:normal;text-align:start;line-height:125%;writing-mode:lr-tb;text-anchor:start;fill:#000000;fill-opacity:1;stroke:none;stroke-width:1px;stroke-linecap:butt;stroke-linejoin:miter;stroke-opacity:1;font-family:Bitstream Vera Sans;-inkscape-font-specification:Bitstream Vera Sans"
       x="137.38074"
       y="452.33157"
       id="text3296"
       sodipodi:linespacing="125%"><tspan
         sodipodi:role="line"
         id="tspan3298"
         x="137.38074"
         y="452.33157">billede/collage med billeder af plotteren her</tspan></text>
  </g>
</svg>
