<?xml version="1.0" encoding="UTF-8" standalone="no"?>
<!-- Created with Inkscape (http://www.inkscape.org/) -->
<svg
   xmlns:dc="http://purl.org/dc/elements/1.1/"
   xmlns:cc="http://creativecommons.org/ns#"
   xmlns:rdf="http://www.w3.org/1999/02/22-rdf-syntax-ns#"
   xmlns:svg="http://www.w3.org/2000/svg"
   xmlns="http://www.w3.org/2000/svg"
   xmlns:sodipodi="http://sodipodi.sourceforge.net/DTD/sodipodi-0.dtd"
   xmlns:inkscape="http://www.inkscape.org/namespaces/inkscape"
   width="217.40677"
   height="340.6882"
   id="svg2"
   sodipodi:version="0.32"
   inkscape:version="0.46"
   version="1.0"
   sodipodi:docname="matematik-skitse.svg"
   inkscape:output_extension="org.inkscape.output.svg.inkscape">
  <defs
     id="defs4">
    <inkscape:perspective
       sodipodi:type="inkscape:persp3d"
       inkscape:vp_x="0 : 526.18109 : 1"
       inkscape:vp_y="0 : 1000 : 0"
       inkscape:vp_z="744.09448 : 526.18109 : 1"
       inkscape:persp3d-origin="372.04724 : 350.78739 : 1"
       id="perspective10" />
  </defs>
  <sodipodi:namedview
     id="base"
     pagecolor="#ffffff"
     bordercolor="#666666"
     borderopacity="1.0"
     gridtolerance="10000"
     guidetolerance="10"
     objecttolerance="10"
     inkscape:pageopacity="0.0"
     inkscape:pageshadow="2"
     inkscape:zoom="1"
     inkscape:cx="369.37952"
     inkscape:cy="279.78288"
     inkscape:document-units="px"
     inkscape:current-layer="layer1"
     showgrid="false"
     inkscape:window-width="1440"
     inkscape:window-height="829"
     inkscape:window-x="0"
     inkscape:window-y="25" />
  <metadata
     id="metadata7">
    <rdf:RDF>
      <cc:Work
         rdf:about="">
        <dc:format>image/svg+xml</dc:format>
        <dc:type
           rdf:resource="http://purl.org/dc/dcmitype/StillImage" />
      </cc:Work>
    </rdf:RDF>
  </metadata>
  <g
     inkscape:label="Layer 1"
     inkscape:groupmode="layer"
     id="layer1"
     transform="translate(-151.93002,-629.79495)">
    <path
       style="fill:#000000;fill-opacity:1;stroke:none;stroke-width:11;stroke-miterlimit:4;stroke-dasharray:none;stroke-dashoffset:0;stroke-opacity:1"
       id="path2383"
       d="M 195.10341,877.8998 C 196.30273,876.50348 198.02693,874.29564 196.56763,872.55008 C 196.30865,871.82761 195.57656,872.87087 195.31711,872.54461 C 195.1918,872.38702 195.80739,872.10558 195.86827,872.29749 C 195.94232,872.53086 195.53604,872.6648 195.42438,872.88269 C 195.20078,873.31899 195.14969,873.88294 195.07527,874.35537 C 195.35944,876.18885 196.81312,877.3366 198.59403,877.49823 C 198.8611,877.41342 199.12158,877.30403 199.39524,877.24379 C 199.59232,877.20041 198.79919,877.64752 198.82507,877.44738 C 198.86913,877.10667 199.29022,876.93671 199.47259,876.64557 C 200.11225,875.62439 200.27704,874.56608 200.361,873.39491 C 200.09493,870.86703 197.91606,870.17851 195.69466,870.36312 C 195.34452,870.47641 194.15222,870.78181 193.90243,871.16683 C 193.79787,871.328 194.43419,870.87475 194.46945,871.0636 C 194.51945,871.33141 194.13762,871.49875 194.00927,871.73906 C 193.6553,872.40181 193.72507,872.43722 193.68607,873.13841 C 194.47124,874.97731 196.99188,875.26273 198.74596,875.58654 C 197.69563,876.38715 200.58098,875.29241 200.12881,875.40121 C 199.72406,875.4986 199.35348,875.81768 198.93885,875.78038 C 198.71681,875.7604 198.68378,875.41093 198.52276,875.25673 C 197.98281,874.73968 197.34336,874.37369 196.72063,873.97078 C 195.7922,873.49573 194.75707,872.74133 193.64319,872.813 C 193.41356,872.82777 192.76226,873.03008 192.99205,873.04228 C 194.17628,873.10512 193.93406,872.26367 193.94874,873.54202 C 194.56913,875.61685 196.21402,877.16456 198.36457,877.41442 C 197.97442,877.45903 200.40197,877.15218 199.9383,876.84122 C 199.69416,876.67749 199.39156,877.31361 199.12668,877.18614 C 198.92632,877.08972 199.39627,876.82681 199.48229,876.62177 C 199.70911,876.08116 199.60787,876.00377 199.48512,875.477 C 199.18229,875.10451 199.13467,874.89652 198.62554,874.82087 C 198.48375,874.7998 198.07801,874.95925 198.20019,874.88427 C 199.96381,873.80195 199.26278,874.20691 199.68228,875.218 C 199.96994,875.64822 200.40438,876.32303 201.03707,876.23995 C 201.1681,876.22274 201.50014,875.99265 201.37337,876.02997 C 199.91296,876.45995 200.03342,877.03659 200.11308,875.98349 C 199.96843,875.32642 199.85067,873.93321 199.11066,873.62265 C 199.69834,873.41229 200.28602,873.20192 200.87371,872.99156 C 200.60544,873.18794 201.17851,873.10523 201.09972,873.15435 C 200.43671,873.56767 199.72523,873.90128 199.07157,874.32925 C 198.68344,874.58337 199.85742,873.81259 200.30115,873.6772 C 200.45317,873.63081 200.09983,873.92321 199.99917,874.04622 C 199.79034,875.21591 200.88117,875.93499 201.93652,875.88088 C 201.54122,876.07912 201.19019,876.42723 200.75062,876.4756 C 200.74959,876.47571 201.13868,876.16071 201.10208,875.32972 C 201.06542,874.49729 200.65531,874.01471 200.10662,873.44741 C 199.64126,873.15473 199.17273,872.68081 198.62676,872.52206 C 198.56241,872.50335 198.36537,872.58003 198.42936,872.56015 C 200.41874,871.94219 200.09218,871.42921 200.34513,872.67111 C 200.25491,872.9552 200.16469,873.23929 200.07447,873.52338 L 200.02253,873.55343 C 199.72767,873.49084 199.43281,873.42826 199.13795,873.36568 C 197.3388,871.66728 199.49819,870.81196 201.08312,872.07088 C 201.26656,872.21659 201.4396,872.37496 201.61784,872.527 C 202.34898,873.31485 202.84326,874.12003 202.63596,875.24618 C 202.60007,875.44117 202.60029,875.68677 202.44442,875.80929 C 201.83951,876.28476 201.11299,876.58079 200.44727,876.96654 C 199.24589,876.94903 198.06611,876.12144 198.25976,874.80213 C 198.80364,873.90336 198.96699,873.47478 200.57583,873.19491 C 201.04272,873.1137 199.89763,873.85702 199.55853,874.18807 C 199.52912,874.17274 199.13869,873.9943 199.21506,873.9079 C 199.66099,873.40343 200.22806,873.02064 200.73455,872.577 C 201.44433,873.15824 201.60246,874.32113 201.74168,875.16445 C 201.67211,877.29599 198.96629,877.947 198.06943,876.11597 C 197.2183,873.74966 200.0531,873.02778 200.92939,874.69933 C 201.44894,876.96687 198.90079,878.08888 196.98209,878.38879 C 194.74144,878.00076 193.16956,876.44359 192.57588,874.24114 C 192.6225,870.9887 196.27139,872.10001 197.84996,873.24476 C 198.04239,873.36678 200.39946,874.69093 200.21157,875.14051 C 199.68247,876.40656 198.58376,876.51372 197.50522,876.45409 C 195.65904,876.11868 193.12316,875.78175 192.36043,873.80518 C 192.47612,871.43796 194.67809,870.11611 196.79814,869.55009 C 199.09824,869.43374 201.25268,870.21593 201.59982,872.77146 C 201.52153,875.53742 200.32928,877.8189 197.31999,878.40001 C 195.47397,878.10804 194.00284,876.93538 193.78081,874.98776 C 194.12474,873.09105 195.38625,871.04817 197.64929,871.90208 C 199.0971,873.71237 197.56728,875.89746 196.32468,877.39724 L 195.10341,877.8998 z" />
    <path
       style="fill:#000000;fill-opacity:1;stroke:none;stroke-width:11;stroke-miterlimit:4;stroke-dasharray:none;stroke-dashoffset:0;stroke-opacity:1"
       id="path2385"
       d="M 363.79517,661.34144 C 364.93118,663.13783 366.45483,664.97451 368.75718,664.85389 C 368.90021,664.76321 369.35361,664.55591 369.18626,664.58185 C 368.77499,664.64558 368.41434,665.01016 367.99998,664.97123 C 367.8154,664.95389 367.90123,664.60793 367.80137,664.45173 C 367.65162,664.2175 367.45682,664.01384 367.26144,663.81607 C 366.73769,663.28593 366.39595,663.08462 365.78543,662.65068 C 365.14208,662.28618 364.54277,661.80922 363.86471,661.50408 C 363.20903,661.209 361.46557,662.16068 365.34187,660.81952 C 366.10488,661.54125 367.2813,661.60283 368.0777,662.24346 C 368.06171,662.32339 368.04572,662.40333 368.02973,662.48326 L 367.98085,662.51806 C 367.7937,662.58167 367.60655,662.64528 367.41939,662.70889 C 366.11729,662.86776 364.98703,662.40195 363.86188,661.75766 C 364.18531,661.30516 364.47582,660.82722 364.83216,660.40016 C 364.97927,660.22385 366.91642,661.60178 367.15545,661.78393 C 368.87491,663.13711 370.88663,664.41824 367.49874,665.77578 C 365.14464,665.84012 363.54242,664.01905 362.40036,662.14103 L 363.79517,661.34144 z" />
    <path
       style="fill:#000000;fill-opacity:1;stroke:none;stroke-width:11;stroke-miterlimit:4;stroke-dasharray:none;stroke-dashoffset:0;stroke-opacity:1"
       id="path2387"
       d="M 201.51015,870.20654 C 202.59981,868.28699 203.40766,866.23973 203.96766,864.1094 C 204.3712,862.76259 204.86981,861.4458 205.52924,860.20358 C 206.41632,858.58223 207.7279,857.25793 208.98736,855.92664 C 210.61675,854.02721 212.5687,852.46117 214.46147,850.84107 C 216.61912,848.9625 218.96101,847.33949 221.33714,845.75599 C 223.82121,844.03358 226.1069,842.04879 228.49522,840.19895 C 231.13952,838.12145 233.57198,835.79467 236.01488,833.48876 C 239.29709,830.335 242.36317,826.9681 245.47031,823.64456 C 248.75165,820.15771 251.70141,816.38736 254.60112,812.58376 C 257.0791,808.97303 260.08817,805.79468 263.00156,802.54426 C 265.59813,799.65444 267.60139,796.31273 269.87399,793.17818 C 272.37673,789.87285 275.02284,786.67929 277.61977,783.44741 C 280.33951,779.98529 282.86816,776.37844 285.42638,772.7965 C 287.82197,769.33024 290.44364,766.02798 293.04787,762.718 C 295.56358,759.45885 297.75535,755.97238 300.01539,752.53629 C 302.27436,749.01572 304.69981,745.61136 307.15507,742.22699 C 309.85413,738.75208 312.21542,735.03659 314.62827,731.36265 C 316.83622,728.02851 319.21847,724.81491 321.4654,721.50806 C 323.56784,718.37104 325.14747,714.9274 326.95734,711.62024 C 328.91264,708.29173 331.06289,705.0808 333.26314,701.91037 C 335.39993,698.96145 337.22237,695.80901 339.12553,692.70959 C 341.01154,689.82727 343.14982,687.12365 345.1289,684.30568 C 346.78798,681.84797 348.22828,679.25053 349.70817,676.68286 C 350.71908,675.01941 351.79332,673.39485 352.92523,671.81148 C 353.63842,670.62963 354.57823,669.64611 355.57993,668.71061 C 356.73023,667.76139 357.57927,666.5692 358.40023,665.34242 C 358.80477,664.73863 359.21088,664.13882 359.67549,663.57943 C 359.886,663.38031 360.16607,663.28064 360.42424,663.15845 L 360.47895,663.1338 C 360.66234,663.05755 360.90635,662.8879 361.08382,662.95663 C 360.86024,663.51339 360.57797,664.03151 360.2442,664.53412 C 359.44104,665.78063 358.58987,666.98231 357.44541,667.94533 C 356.44365,668.88123 355.48752,669.83785 354.76207,671.01335 C 353.6568,672.60828 352.55346,674.20473 351.54591,675.86429 C 350.06671,678.44136 348.59499,681.02894 346.95928,683.51037 C 344.96989,686.32926 342.82817,689.03932 340.92175,691.91576 C 339.01203,695.02044 337.18488,698.17865 335.04561,701.13534 C 332.82019,704.28509 330.68683,707.5066 328.72646,710.82837 C 326.89292,714.13093 325.31998,717.57931 323.23348,720.73672 C 320.96913,724.04213 318.58568,727.2648 316.36598,730.60134 C 313.93619,734.2683 311.59653,738.00223 308.88987,741.47681 C 306.40711,744.85231 303.9875,748.27197 301.71252,751.79232 C 299.45531,755.23642 297.24016,758.71272 294.74355,761.99176 C 292.14043,765.31064 289.50263,768.60621 287.09554,772.07262 C 284.53625,775.65348 282.00951,779.26065 279.29957,782.73024 C 276.69523,785.96612 274.06876,789.18246 271.52232,792.46393 C 269.27509,795.61574 267.24907,798.94089 264.6697,801.84238 C 261.7634,805.09909 258.72967,808.25878 256.25455,811.87254 C 253.36009,815.68818 250.39974,819.46034 247.11849,822.95521 C 244.01914,826.28057 240.95648,829.64502 237.68395,832.8029 C 235.24756,835.10934 232.81873,837.43092 230.19107,839.52197 C 227.78462,841.36698 225.49811,843.3666 223.00918,845.10168 C 220.63959,846.68502 218.28753,848.28355 216.13698,850.1634 C 214.2029,851.77913 212.22423,853.36557 210.56107,855.27096 C 209.26401,856.60463 207.94336,857.94008 206.98656,859.55069 C 206.27722,860.8108 205.67825,862.12899 205.23293,863.50683 C 204.60337,865.7108 203.71044,867.8199 202.49102,869.76815 L 201.51015,870.20654 z" />
    <path
       style="fill:#000000;fill-opacity:1;stroke:none;stroke-width:11;stroke-miterlimit:4;stroke-dasharray:none;stroke-dashoffset:0;stroke-opacity:1"
       id="path2389"
       d="M 153.47895,843.16905 C 157.91724,844.85876 162.16958,846.95613 166.28081,849.32308 C 168.38963,850.62964 170.57267,851.81369 172.60029,853.24511 C 173.0275,853.67644 172.96197,853.42068 172.73557,854.02553 L 172.68537,854.0584 C 171.72393,854.24748 172.16559,854.28055 171.35668,854.05613 C 169.01806,853.05148 166.91878,851.62708 164.738,850.32506 C 160.63401,847.95212 156.38787,845.84769 151.93002,844.21454 L 153.47895,843.16905 z" />
    <path
       style="fill:#000000;fill-opacity:1;stroke:none;stroke-width:11;stroke-miterlimit:4;stroke-dasharray:none;stroke-dashoffset:0;stroke-opacity:1"
       id="path2391"
       d="M 163.65191,845.50641 C 165.76124,842.56239 168.00353,839.71478 170.35132,836.95781 C 172.64183,834.65808 174.80192,832.28313 176.70583,829.65536 C 178.30896,827.2808 179.98091,824.96696 181.80079,822.75383 C 183.99364,820.11213 186.44634,817.70205 188.82222,815.22785 C 191.12264,812.93756 193.18759,810.43323 195.31569,807.98748 C 197.08373,805.9543 199.03427,804.09422 200.91515,802.16871 C 202.82798,800.09021 204.64782,797.92798 206.53368,795.82477 C 208.48621,793.74588 209.87684,791.26578 211.18128,788.7543 C 212.4841,786.23582 213.73482,783.69157 215.04693,781.17787 C 217.0838,777.36466 218.90316,773.44506 220.96109,769.64353 C 223.50768,765.36084 225.86209,760.9752 228.16435,756.55743 C 230.58139,752.23193 233.6455,748.32531 236.46461,744.26376 C 238.93684,740.5334 241.58234,736.94095 244.45554,733.5122 C 247.55938,730.01808 250.5228,726.4181 253.27684,722.64249 C 256.48281,717.85457 260.33659,713.57833 264.27045,709.3889 C 268.81024,704.76217 273.08549,699.89053 277.36666,695.02699 C 281.1286,690.75822 284.66564,686.29607 288.2613,681.8871 C 291.23686,678.30925 293.65072,674.32408 296.36103,670.55236 C 298.18038,668.31328 299.63525,665.8296 301.07702,663.34161 C 302.03917,661.58703 303.12061,659.89647 304.30097,658.28108 C 305.75296,656.51898 307.36983,654.89554 309.00854,653.30759 C 310.44858,651.92654 311.96998,650.62716 313.54312,649.39993 C 314.83747,648.29066 315.75319,646.85395 316.68867,645.45037 C 317.50473,644.33364 318.4879,643.35842 319.35906,642.28685 C 319.94186,641.56205 320.6595,640.99338 321.41548,640.46201 C 322.63235,639.62311 323.96398,639.02329 325.28485,638.3865 C 325.87244,638.08264 325.28885,638.54745 325.10285,638.70782 L 325.05482,638.74622 C 324.62613,639.0699 324.20601,639.41205 323.71546,639.63994 C 323.00738,639.99307 320.35606,641.33533 323.35721,639.69971 C 322.60163,640.20217 321.87166,640.74762 321.30017,641.46208 C 320.39926,642.51912 319.45123,643.5346 318.58443,644.61993 C 317.65613,646.0386 316.74265,647.4856 315.47154,648.63039 C 313.87851,649.83691 312.36818,651.15496 310.91201,652.52236 C 309.28319,654.10903 307.67065,655.72248 306.20008,657.45804 C 305.04198,659.09944 303.91164,660.75871 302.93074,662.51468 C 301.53058,665.03328 300.03294,667.50126 298.21768,669.74795 C 295.48675,673.53477 293.05767,677.54012 290.05171,681.12424 C 286.44516,685.53935 282.90567,690.01513 279.12707,694.28455 C 274.84668,699.15677 270.55769,704.02399 266.01773,708.65873 C 262.09269,712.83743 258.23258,717.094 255.04447,721.87837 C 252.27021,725.65078 249.33412,729.28521 246.20373,732.76998 C 243.33438,736.19523 240.6622,739.76151 238.2145,743.50332 C 235.34437,747.53207 232.33378,751.4812 229.88002,755.78522 C 227.55403,760.19156 225.23044,764.59555 222.67495,768.87499 C 220.61294,772.67046 218.78037,776.58012 216.76903,780.40248 C 215.45504,782.91213 214.22123,785.46211 212.91172,787.97416 C 211.61172,790.50341 210.21532,793.00154 208.26264,795.09735 C 206.37931,797.20644 204.55697,799.37105 202.64237,801.45041 C 200.7687,803.38691 198.80068,805.23269 197.02686,807.2647 C 194.88995,809.7226 192.80627,812.23176 190.4944,814.53072 C 188.13232,817.01663 185.66158,819.407 183.46599,822.04545 C 181.62456,824.2657 179.90454,826.56976 178.29781,828.96652 C 176.36852,831.61088 174.20064,834.01504 171.86979,836.31568 C 169.47067,839.06327 167.22612,841.94546 165.07545,844.89107 L 163.65191,845.50641 z" />
    <path
       style="fill:#000000;fill-opacity:1;stroke:none;stroke-width:11;stroke-miterlimit:4;stroke-dasharray:none;stroke-dashoffset:0;stroke-opacity:1"
       id="path2393"
       d="M 318.20993,629.79495 C 321.9888,631.80833 325.49321,634.27304 328.7917,636.99249 C 331.20572,638.90819 332.85808,641.49119 334.7433,643.87391 C 336.3303,645.62784 338.20855,647.07922 339.92248,648.70336 C 340.57014,649.56402 341.9349,650.15306 342.31369,651.20137 C 342.39391,651.42658 342.21138,651.58198 342.10665,651.74347 L 342.05559,651.77498 C 341.79444,651.75578 341.57494,651.96448 341.31739,651.81572 C 340.23427,651.38346 339.54182,650.18674 338.63608,649.49793 C 336.88812,647.89646 335.02069,646.41843 333.42307,644.66137 C 331.56374,642.27602 329.9251,639.69871 327.5289,637.78323 C 324.23071,635.07188 320.73823,632.60844 316.95561,630.6116 L 318.20993,629.79495 z" />
    <path
       style="fill:#000000;fill-opacity:1;stroke:none;stroke-width:11;stroke-miterlimit:4;stroke-dasharray:none;stroke-dashoffset:0;stroke-opacity:1"
       id="path2395"
       d="M 317.49972,638.91098 C 320.05489,638.92975 322.63502,639.0888 325.18431,638.85654 C 325.83802,638.91261 326.94426,638.15858 327.30811,638.86629 C 327.48229,641.03638 327.39595,643.22909 327.34071,645.40457 C 327.27323,648.20249 327.19437,650.98514 326.54806,653.71574 C 326.32031,654.9649 325.74069,656.05167 325.12297,657.13954 L 325.01979,657.1892 C 324.73447,656.23693 324.75301,655.39877 325.06446,654.43088 C 325.63987,651.71219 325.79551,648.95434 325.81253,646.17806 C 325.87292,644.036 325.91933,641.87716 325.76784,639.74035 C 325.58971,639.31395 324.10841,640.04972 323.74075,639.92344 C 321.18038,640.1085 318.60444,639.99241 316.04053,639.96406 L 317.49972,638.91098 z" />
    <path
       style="fill:#000000;fill-opacity:1;stroke:none;stroke-width:11;stroke-miterlimit:4;stroke-dasharray:none;stroke-dashoffset:0;stroke-opacity:1"
       id="path2397"
       d="M 162.26107,835.05099 C 162.93221,837.81279 163.84634,840.50934 164.73114,843.20845 C 165.28893,844.84345 166.05038,846.4009 166.49241,848.07277 C 166.63645,848.41614 166.51384,849.68069 167.05842,849.58999 C 167.13485,849.52578 167.37848,849.35588 167.2877,849.39738 C 166.81764,849.61226 166.40006,849.94205 165.91257,850.11378 C 165.72556,850.17966 166.21062,849.85216 166.36159,849.72362 C 166.85923,849.29994 167.10421,849.07758 167.68536,848.73038 C 168.55985,848.20792 169.45277,847.71696 170.33648,847.21025 C 173.35601,845.95241 176.52849,845.09548 179.63307,844.07071 C 181.17434,843.68215 182.59937,842.85848 184.1413,842.47649 C 185.80789,842.06361 183.00522,843.24142 185.42796,842.10849 L 185.38107,842.14592 C 182.97856,843.36359 180.59319,844.60243 177.98593,845.34935 C 174.89233,846.3641 171.72109,847.20071 168.73409,848.50356 C 169.0125,848.33338 169.25397,848.07686 169.56932,847.99303 C 169.85585,847.91686 169.0644,848.30502 168.82468,848.47948 C 167.7333,849.27371 166.82417,850.45904 165.42134,850.74189 C 164.78207,850.48223 164.9655,849.5671 164.77441,848.99914 C 164.41795,847.30295 163.63801,845.74997 163.08498,844.11363 C 162.20654,841.40261 161.34926,838.68235 160.64547,835.91978 L 162.26107,835.05099 z" />
    <path
       style="fill:#000000;fill-opacity:1;stroke:none;stroke-width:11;stroke-miterlimit:4;stroke-dasharray:none;stroke-dashoffset:0;stroke-opacity:1"
       id="path2399"
       d="M 204.61598,724.84341 C 206.06861,729.57375 206.95848,734.45092 207.61028,739.34875 C 207.92172,742.30417 208.23253,745.27136 208.22373,748.24661 C 208.16014,749.30994 208.06112,750.36568 208.04302,751.4311 C 208.90092,752.80269 211.65188,752.09499 212.96184,751.98194 C 216.3963,751.56021 219.81805,751.02777 223.20584,750.32231 C 223.81048,750.39319 227.28208,749.07607 227.68782,749.36613 C 227.77828,749.4308 227.61911,749.57765 227.58475,749.68341 C 227.67817,749.66837 227.77159,749.65333 227.86501,749.63829 L 227.81746,749.67489 C 227.67634,749.72659 227.53521,749.77828 227.39409,749.82998 C 225.49594,750.86631 223.42891,751.34668 221.31192,751.7573 C 217.92282,752.4311 214.50922,752.98229 211.07585,753.37714 C 209.56866,753.50701 206.80597,754.18925 205.95335,752.48176 C 206.04863,751.40906 206.17692,750.3395 206.22034,749.26297 C 206.31552,746.29053 205.96906,743.31474 205.6859,740.36115 C 205.05209,735.47253 204.18034,730.61077 202.70328,725.89761 L 204.61598,724.84341 z" />
    <path
       style="fill:#000000;fill-opacity:1;stroke:none;stroke-width:11;stroke-miterlimit:4;stroke-dasharray:none;stroke-dashoffset:0;stroke-opacity:1"
       id="path2401"
       d="M 202.29925,897.45346 C 202.16653,901.18024 202.52782,904.89641 202.77885,908.60993 C 202.69713,909.98113 203.23875,911.54342 202.79945,912.89764 C 202.7236,913.13146 202.54411,913.32051 202.45427,913.54932 L 202.40121,913.57735 C 202.26857,913.47379 202.05999,913.46793 201.95946,913.33297 C 201.19027,912.30038 201.76582,910.46858 201.37792,909.33761 C 201.04706,905.63371 200.767,901.91999 200.82448,898.19816 L 202.29925,897.45346 z" />
    <path
       style="fill:#000000;fill-opacity:1;stroke:none;stroke-width:11;stroke-miterlimit:4;stroke-dasharray:none;stroke-dashoffset:0;stroke-opacity:1"
       id="path2403"
       d="M 205.02108,898.53584 C 207.79652,898.09637 210.59612,897.84467 213.38009,897.47034 C 215.54965,897.13506 217.70178,896.69517 219.8595,896.29135 C 221.64843,895.99006 223.44141,895.71387 225.24211,895.49238 C 227.12507,895.30417 228.94728,894.81808 230.75456,894.27959 C 233.26455,893.41069 235.79611,892.61198 238.35987,891.91767 C 241.32869,891.06597 244.37504,890.64228 247.44512,890.39188 C 250.68292,890.16349 253.93045,890.14059 257.17482,890.11911 C 260.06634,890.11207 262.95788,890.12727 265.84938,890.11835 C 268.74239,890.11968 271.63557,890.13352 274.5286,890.1199 C 277.03753,890.13289 279.53665,890.34371 282.03559,890.54271 C 285.12833,890.85421 288.23386,890.95287 291.33912,891.03616 C 294.24039,891.08795 297.14202,891.09161 300.04364,891.09813 C 303.01462,891.10784 305.98563,891.08704 308.95658,891.09249 C 311.543,891.09308 314.12938,891.08732 316.71579,891.08642 C 318.9182,891.09695 321.1182,890.98457 323.31451,890.83338 C 325.31669,890.71728 327.32055,890.64463 329.32334,890.54037 C 331.37224,890.44861 333.41694,890.29595 335.46682,890.22308 C 337.85924,890.15557 340.25417,890.09138 342.64742,890.14333 C 344.67002,890.1622 346.55745,890.87665 348.40992,891.61127 C 349.70996,892.21995 351.10159,892.52792 352.52003,892.67799 C 353.50819,892.78321 354.50384,892.77267 355.49624,892.77511 C 356.42231,892.77423 357.34845,892.77504 358.27444,892.76384 C 359.26883,892.76858 360.26707,892.83612 361.24898,892.99636 C 361.75787,893.14865 362.15775,893.14887 361.72377,893.68156 L 361.67438,893.71563 C 361.06974,893.98238 360.57249,894.07038 359.91637,893.9347 C 358.91917,893.79963 357.90603,893.75923 356.90085,893.76235 C 355.97513,893.75568 355.04928,893.76826 354.12354,893.77259 C 353.12294,893.77651 352.12236,893.77024 351.1261,893.66669 C 349.7101,893.49267 348.3296,893.13331 347.02975,892.53471 C 345.20739,891.77369 343.31772,891.11411 341.31821,891.10455 C 338.93085,891.0503 336.54267,891.11741 334.15606,891.18337 C 332.10372,891.27331 330.05433,891.40704 328.00269,891.51134 C 326.00153,891.63356 323.99672,891.65909 321.9968,891.80449 C 319.80203,891.95177 317.60226,892.0603 315.40196,892.04098 C 312.82001,892.0403 310.23807,892.03484 307.65611,892.03742 C 304.687,892.04532 301.71783,892.02922 298.74869,892.03881 C 295.84925,892.04105 292.94949,892.03335 290.05066,891.96757 C 286.94123,891.9017 283.83123,891.77843 280.73493,891.47235 C 278.23482,891.28227 275.73372,891.06843 273.22418,891.06758 C 270.33381,891.05285 267.44331,891.0654 264.55295,891.06001 C 261.6686,891.04391 258.78409,891.04359 255.89971,891.04648 C 252.66827,891.05642 249.43527,891.08967 246.20973,891.30569 C 243.14049,891.5813 240.09252,892.00929 237.12381,892.86659 C 234.55674,893.56002 232.02835,894.37696 229.51264,895.23731 C 227.70141,895.76253 225.87824,896.23861 223.99487,896.42236 C 222.19696,896.64866 220.40432,896.91309 218.61941,897.22686 C 216.46821,897.60661 214.33303,898.07437 212.16827,898.37483 C 209.40433,898.71844 206.62778,898.96089 203.87487,899.39185 L 205.02108,898.53584 z" />
    <path
       style="fill:#000000;fill-opacity:1;stroke:none;stroke-width:11;stroke-miterlimit:4;stroke-dasharray:none;stroke-dashoffset:0;stroke-opacity:1"
       id="path2405"
       d="M 360.32932,881.1215 C 360.24045,886.64567 360.40295,892.17101 360.47235,897.69496 C 360.525,901.02946 360.40304,904.35551 360.0564,907.67046 C 359.83873,908.58421 359.9885,909.93803 359.02903,910.4597 L 358.97309,910.48138 C 358.1506,910.8684 358.53557,908.71804 358.51245,908.4367 C 358.86785,905.12936 358.976,901.80233 358.93995,898.47682 C 358.94804,892.95211 358.7246,887.4293 358.78187,881.90401 L 360.32932,881.1215 z" />
    <path
       style="fill:#000000;fill-opacity:1;stroke:none;stroke-width:11;stroke-miterlimit:4;stroke-dasharray:none;stroke-dashoffset:0;stroke-opacity:1"
       id="path2407"
       d="M 352.71394,882.54976 C 353.55904,885.00316 354.8922,887.21424 356.21288,889.42882 C 356.9567,890.77578 358.04876,891.83726 359.05405,892.97905 C 359.67593,893.75386 360.43032,894.41143 360.58336,895.42899 C 360.44157,897.66819 358.70876,899.20008 357.14535,900.59572 C 354.66121,902.43922 351.98129,904.11273 349.05366,905.14817 L 349.10078,905.11103 C 351.37192,904.07003 353.54829,902.87026 355.4875,901.27097 C 357.01236,899.92344 358.69285,898.46186 358.91835,896.30652 C 358.79474,895.32749 358.16192,894.61921 357.51891,893.90432 C 356.53518,892.74032 355.47171,891.63721 354.74034,890.284 C 353.3619,888.08753 352.16354,885.78793 351.27283,883.34811 L 352.71394,882.54976 z" />
    <path
       style="fill:#000000;fill-opacity:1;stroke:none;stroke-width:11;stroke-miterlimit:4;stroke-dasharray:none;stroke-dashoffset:0;stroke-opacity:1"
       id="path2409"
       d="M 210.14475,894.037 C 208.9093,895.66785 207.67795,897.30204 206.43449,898.92675 C 205.69978,899.81253 205.27029,900.91188 204.57705,901.82065 C 203.26747,903.40256 201.96815,902.3165 202.81816,901.25521 C 203.64127,901.01818 204.4328,900.60084 205.28747,900.54411 C 206.12395,900.48858 209.11708,903.84885 209.73588,904.50816 C 210.89186,905.92682 212.19135,907.21272 213.52119,908.4644 C 214.15495,909.1747 215.16516,909.45188 215.75722,910.18981 C 215.63265,910.63227 215.72041,910.42111 215.49327,910.82303 L 215.44298,910.85575 C 214.78296,911.02408 215.12293,910.95638 214.42223,911.05457 C 213.44524,910.78468 212.64121,910.11276 211.84681,909.50742 C 210.40066,908.36031 209.20377,906.94507 207.97489,905.57584 C 207.1333,904.62015 206.27653,903.68574 205.29933,902.86372 C 205.00447,902.61568 204.69891,902.37961 204.38245,902.1598 C 204.13214,901.98594 203.5403,901.98298 203.60144,901.6844 C 203.71041,901.15226 204.34852,900.89568 204.72206,900.50131 C 204.22032,900.66066 204.63374,901.09993 204.3552,901.36749 C 203.82742,901.87447 203.19336,902.25771 202.61486,902.70594 C 202.56175,902.74709 202.72422,902.62786 202.7789,902.58883 C 203.52153,901.70794 203.93479,900.59077 204.65586,899.69132 C 205.90294,898.05699 207.15269,896.4247 208.39767,894.7887 L 210.14475,894.037 z" />
    <path
       style="fill:#000000;fill-opacity:1;stroke:none;stroke-width:11;stroke-miterlimit:4;stroke-dasharray:none;stroke-dashoffset:0;stroke-opacity:1"
       id="path2411"
       d="M 273.08488,930.72299 C 274.86266,928.02122 276.05552,925.01146 277.16873,921.99258 C 277.90147,920.13413 278.52278,918.22014 279.45523,916.44874 C 280.09711,915.33527 280.88552,914.31214 281.5192,913.19514 C 282.10207,912.03934 282.60316,910.84741 283.09813,909.6522 C 283.45356,908.78421 283.86738,907.93806 284.18886,907.05654 C 284.70125,905.90956 283.9897,906.69482 286.61992,905.9059 C 287.56132,907.47795 288.3628,909.12677 289.35334,910.67294 C 290.53861,912.42002 291.6381,914.20613 292.54556,916.11333 C 293.18159,917.92857 294.38297,919.40854 295.50189,920.93831 C 296.45975,922.34296 297.34647,923.79405 298.27874,925.21519 C 298.88691,926.05717 299.40504,926.9096 299.8158,927.8589 C 300.05376,928.78025 300.78015,929.70785 300.41108,930.65456 C 298.32389,932.58398 296.38939,932.07153 293.95309,931.8337 C 292.03144,931.63358 290.10164,931.59294 288.17306,931.51744 C 287.10392,931.5068 286.03497,931.50039 284.96581,931.4966 C 283.73959,931.50886 282.51321,931.49853 281.28691,931.50274 C 279.77289,931.43548 278.26845,931.25465 276.7565,931.15321 C 275.30248,931.04363 273.84401,931.05474 272.38782,931.01895 C 271.03223,930.94704 271.98804,930.22275 272.58512,929.78922 L 272.64077,929.76679 C 272.60824,929.8056 272.49372,929.89417 272.54317,929.88324 C 273.13597,929.7522 273.583,929.59853 274.20958,929.69908 C 275.66989,929.70271 277.13112,929.7678 278.58948,929.84114 C 280.09578,929.95309 281.59721,930.13655 283.108,930.17948 C 284.3318,930.18231 285.55565,930.16944 286.77939,930.17879 C 287.84707,930.17371 288.91534,930.16634 289.9824,930.20997 C 291.9149,930.23463 293.84397,930.36793 295.76839,930.54143 C 296.72289,930.63339 297.69253,930.7844 298.65272,930.7996 C 298.88979,930.80335 299.50426,930.57802 299.36336,930.76872 C 299.02538,931.22614 298.40167,931.38069 297.95927,931.73811 C 297.84215,931.83273 298.23763,931.6232 298.37681,931.56575 C 298.94125,930.84131 298.02019,929.74502 297.84278,928.95782 C 297.5144,927.99805 296.88658,927.18921 296.32891,926.35211 C 295.43914,924.90893 294.51717,923.48599 293.56872,922.08065 C 292.46284,920.52481 291.24813,919.04237 290.60456,917.21324 C 289.70487,915.31281 288.63523,913.51898 287.43855,911.78892 C 286.46796,910.23852 285.63806,908.61144 284.71091,907.04046 C 287.18379,904.99269 286.53242,905.14676 286.20027,906.12864 C 285.8093,906.9874 285.48721,907.87736 285.09395,908.73561 C 284.56152,909.92377 284.10421,911.14278 283.51067,912.30365 C 282.90519,913.43605 282.10478,914.44882 281.45055,915.55254 C 280.49338,917.31566 279.84492,919.22093 279.11583,921.08532 C 278.00305,924.12785 276.7735,927.14835 275.00593,929.87923 L 273.08488,930.72299 z" />
    <path
       style="fill:#000000;fill-opacity:1;stroke:none;stroke-width:11;stroke-miterlimit:4;stroke-dasharray:none;stroke-dashoffset:0;stroke-opacity:1"
       id="path2413"
       d="M 307.78648,910.34655 C 310.17464,912.93913 312.65914,915.43607 315.28691,917.78522 C 317.00776,919.36749 319.05876,920.49359 320.92543,921.87751 C 321.90752,922.57831 322.93651,923.21275 323.91488,923.91804 C 324.32085,924.17604 324.17532,924.34199 323.84643,924.57483 L 323.15714,925.02175 C 322.78797,925.23514 322.50825,925.32763 322.13067,925.06222 C 321.09124,924.44055 320.10212,923.73175 319.11657,923.02949 C 317.17532,921.73732 315.21274,920.4666 313.45823,918.92003 C 310.82405,916.56808 308.38601,914.01846 305.96135,911.45329 L 307.78648,910.34655 z" />
    <path
       style="fill:#000000;fill-opacity:1;stroke:none;stroke-width:11;stroke-miterlimit:4;stroke-dasharray:none;stroke-dashoffset:0;stroke-opacity:1"
       id="path2415"
       d="M 321.36298,911.63674 C 318.76802,914.45406 315.90229,916.99979 313.05332,919.55346 C 310.96906,921.52572 308.88599,923.50499 306.88413,925.56164 C 305.55347,926.93954 304.59683,928.59516 303.60146,930.21492 C 302.99951,931.13458 302.09103,931.78676 301.25811,932.48378 C 300.79448,932.88432 300.23586,933.15013 299.70749,933.45227 L 299.6546,933.4806 C 299.21592,933.58469 298.56747,933.82336 299.13826,933.34177 C 299.95061,932.64052 300.83188,931.99489 301.49791,931.14739 C 302.45955,929.49973 303.45001,927.85171 304.75487,926.44703 C 306.77959,924.36509 308.90796,922.38413 311.01362,920.38517 C 313.8725,917.82859 316.76752,915.30149 319.36421,912.47166 L 321.36298,911.63674 z" />
    <path
       style="fill:#000000;fill-opacity:1;stroke:none;stroke-width:11;stroke-miterlimit:4;stroke-dasharray:none;stroke-dashoffset:0;stroke-opacity:1"
       id="path2417"
       d="M 249.1951,821.93946 C 248.88452,823.06404 248.63059,824.23379 248.82137,825.40515 C 248.85632,825.61974 248.90291,825.84383 249.02184,826.02583 C 249.07056,826.10037 249.35463,826.05861 249.27754,826.1032 C 248.91969,826.31015 248.50566,826.39943 248.11972,826.54755 C 248.85671,825.03343 248.98615,823.23766 248.25956,821.70677 C 248.11657,821.52641 248.00011,821.32138 247.83059,821.16569 C 247.23123,820.61525 245.82087,820.94992 246.40657,821.12869 C 247.41217,821.43562 247.6075,820.11487 247.00105,821.80892 C 246.48979,823.92409 246.35005,826.18083 247.63282,828.03047 C 247.12594,828.71859 249.17124,828.17649 248.78617,828.14512 C 248.47365,828.11966 247.9818,828.61248 247.86238,828.32255 C 247.6926,827.91038 248.22838,827.5057 248.34564,827.07564 C 248.71162,825.73341 248.67746,825.0296 248.75777,823.64095 C 248.74041,822.26351 248.67132,820.74695 247.86093,819.55814 C 247.72743,819.3623 247.55415,819.17133 247.33613,819.07836 C 247.18747,819.01498 246.7147,819.21081 246.85394,819.12877 C 247.17534,818.93939 247.5544,818.87184 247.90463,818.74338 C 246.89197,820.63503 246.83492,822.86399 246.72877,824.9645 C 246.75718,825.18136 246.86022,826.19035 246.994,826.43746 C 247.05533,826.55075 247.18338,826.67179 247.31145,826.65789 C 247.47905,826.63971 247.88618,826.38255 247.71928,826.35877 C 246.54792,826.19186 246.27991,827.40739 247.23988,825.51005 C 247.92038,823.49043 248.78828,820.7098 246.29964,819.63747 C 244.30882,820.36102 246.20839,819.29807 246.21644,819.38599 C 246.24558,819.70425 245.73999,819.81592 245.53868,820.06414 C 244.94528,820.79581 244.61405,821.68146 244.28692,822.5499 C 244.06762,822.97397 244.17113,823.4323 243.80345,823.72153 L 243.03055,824.23606 C 242.23148,824.31035 242.60724,823.91085 242.73947,823.272 C 243.52285,821.00261 244.93281,818.70868 247.7097,818.70434 C 250.18364,819.94585 249.51951,822.62257 248.79431,824.80183 C 248.64271,825.15524 248.60094,825.58002 248.33953,825.86205 C 246.43664,827.91506 245.30056,828.47067 245.12252,825.77085 C 245.27078,823.62775 245.37755,821.39999 246.27684,819.41702 C 246.9359,818.98172 247.54553,818.46024 248.25403,818.11114 C 249.79859,817.35007 250.35074,822.21259 250.25919,822.88563 C 250.21166,823.94157 250.22641,826.78309 249.46986,827.63952 C 248.89069,828.29515 248.12305,828.76651 247.37604,829.22176 C 246.81796,829.56187 246.54168,829.19689 246.11459,828.92208 C 244.80699,826.96648 245.01626,824.68437 245.56281,822.47983 C 246.28768,820.50184 248.1546,818.90204 249.60726,820.94719 C 250.29161,822.57503 250.22089,824.23679 249.64693,825.90392 C 249.06236,826.27677 248.52656,826.7403 247.89322,827.02246 C 247.5843,827.16008 247.385,826.51874 247.31692,826.18748 C 247.07361,825.00365 247.32499,823.81883 247.62064,822.67195 L 249.1951,821.93946 z" />
    <path
       style="fill:#000000;fill-opacity:1;stroke:none;stroke-width:11;stroke-miterlimit:4;stroke-dasharray:none;stroke-dashoffset:0;stroke-opacity:1"
       id="path2419"
       d="M 246.77029,832.02881 C 246.74884,834.85686 247.05793,837.67754 246.96629,840.50433 C 246.86217,840.90311 246.75804,841.3019 246.65392,841.70069 L 246.6006,841.72822 C 246.46054,841.45559 246.32048,841.18297 246.18042,840.91035 C 245.75867,838.17489 245.66663,835.401 245.57454,832.63808 L 246.77029,832.02881 z" />
    <path
       style="fill:#000000;fill-opacity:1;stroke:none;stroke-width:11;stroke-miterlimit:4;stroke-dasharray:none;stroke-dashoffset:0;stroke-opacity:1"
       id="path2421"
       d="M 250.41708,855.31533 C 250.44333,857.34973 250.25377,859.35786 249.86686,861.3511 L 249.8134,861.37834 C 249.37835,859.58044 249.24593,857.75438 249.26317,855.90328 L 250.41708,855.31533 z" />
    <path
       style="fill:#000000;fill-opacity:1;stroke:none;stroke-width:11;stroke-miterlimit:4;stroke-dasharray:none;stroke-dashoffset:0;stroke-opacity:1"
       id="path2423"
       d="M 250.08636,877.24215 C 250.68298,879.91676 251.21131,882.60299 251.55473,885.32217 C 251.75969,887.32698 251.87611,889.36021 251.5514,891.3566 C 251.51767,891.60022 251.48394,891.84385 251.4502,892.08747 L 251.39711,892.11543 C 251.30622,891.93655 251.21532,891.75768 251.12443,891.57881 C 250.39117,889.81743 250.60428,887.83703 250.30278,885.97955 C 249.97598,883.26512 249.43849,880.5883 248.80284,877.92961 L 250.08636,877.24215 z" />
    <path
       style="fill:#000000;fill-opacity:1;stroke:none;stroke-width:11;stroke-miterlimit:4;stroke-dasharray:none;stroke-dashoffset:0;stroke-opacity:1"
       id="path2425"
       d="M 252.41763,902.05277 C 252.558,904.71764 252.78366,907.37538 252.86973,910.04314 C 252.86991,912.45231 253.05147,914.89553 252.65755,917.28183 L 252.60437,917.30961 C 251.64224,915.25155 251.80397,912.88138 251.67006,910.6604 C 251.54435,907.98606 251.38919,905.31294 251.27996,902.6382 L 252.41763,902.05277 z" />
    <path
       style="fill:#000000;fill-opacity:1;stroke:none;stroke-width:11;stroke-miterlimit:4;stroke-dasharray:none;stroke-dashoffset:0;stroke-opacity:1"
       id="path2427"
       d="M 252.81226,928.02763 C 253.85454,931.10109 254.2701,934.31038 254.62461,937.51952 C 254.84008,938.84275 254.60499,940.15477 254.51526,941.47446 L 254.46206,941.50219 C 254.13665,940.35685 253.65194,939.26575 253.6047,938.05477 C 253.18302,934.85908 252.78705,931.64683 251.85456,928.54911 L 252.81226,928.02763 z" />
    <path
       style="fill:#000000;fill-opacity:1;stroke:none;stroke-width:11;stroke-miterlimit:4;stroke-dasharray:none;stroke-dashoffset:0;stroke-opacity:1"
       id="path2429"
       d="M 245.45098,946.58914 C 247.77379,949.57717 249.8115,952.76959 252.03856,955.82444 C 253.89502,958.62257 256.09875,961.16954 258.37898,963.6269 C 259.52837,964.83887 260.57563,966.15671 261.82263,967.27222 C 262.27847,967.64181 262.65743,968.15578 263.16137,968.46332 C 263.51708,968.84214 264.09429,968.9722 264.41133,969.39051 C 264.12934,969.79922 264.30468,969.60642 263.86507,969.94984 L 263.81758,969.9865 C 263.06908,970.41695 263.43347,970.26513 262.7425,970.48314 C 262.16515,970.37163 261.64216,970.04729 261.17209,969.70409 C 260.79438,969.24849 260.2441,968.93066 259.85044,968.48527 C 258.69404,967.27453 257.54253,966.0641 256.4423,964.80103 C 254.20614,962.28918 251.99341,959.75562 250.10902,956.95969 C 248.03526,953.80438 245.88249,950.6984 243.59466,947.69487 L 245.45098,946.58914 z" />
    <path
       style="fill:#000000;fill-opacity:1;stroke:none;stroke-width:11;stroke-miterlimit:4;stroke-dasharray:none;stroke-dashoffset:0;stroke-opacity:1"
       id="path2431"
       d="M 260.85962,948.11939 C 259.22249,950.71015 257.33698,953.13045 255.48994,955.57213 C 254.20657,957.2931 252.9828,959.06403 251.51279,960.63315 C 250.20898,961.93906 248.89922,963.2426 247.51011,964.45841 C 246.38362,965.31968 245.10936,965.9744 243.87773,966.66474 C 243.77812,966.72058 243.46734,966.86416 243.56576,966.80627 C 246.25435,965.22503 245.82566,965.49342 245.07992,965.97452 C 244.67023,966.31922 244.20904,966.5929 243.79177,966.92752 C 243.43589,967.28809 243.00248,967.53383 242.57571,967.79982 L 242.4465,967.87289 C 242.25807,967.92048 241.47247,968.32171 241.63859,967.82808 C 241.92193,967.39497 242.47864,967.20898 242.85163,966.8551 C 243.70824,966.1567 248.07724,963.78572 244.14237,966.09156 C 243.75768,966.31698 245.8685,965.07771 245.26838,965.36957 C 246.65452,964.15623 247.9749,962.87377 249.27363,961.56723 C 250.77573,960.0114 252.01648,958.24403 253.30697,956.51295 C 255.13108,954.05591 257.08216,951.68791 258.68594,949.07411 L 260.85962,948.11939 z" />
    <path
       style="fill:#000000;fill-opacity:1;stroke:none;stroke-width:11;stroke-miterlimit:4;stroke-dasharray:none;stroke-dashoffset:0;stroke-opacity:1"
       id="path2433"
       d="M 210.40945,870.78321 C 213.01036,871.55248 215.56847,872.46172 218.11904,873.38161 C 219.15368,873.53558 219.96161,874.15507 220.86128,874.61493 L 220.81202,874.64919 C 219.48982,874.60926 218.14219,874.69149 216.87748,874.22342 C 214.28427,873.40864 211.74491,872.42916 209.14001,871.64854 L 210.40945,870.78321 z" />
    <path
       style="fill:#000000;fill-opacity:1;stroke:none;stroke-width:11;stroke-miterlimit:4;stroke-dasharray:none;stroke-dashoffset:0;stroke-opacity:1"
       id="path2435"
       d="M 241.13474,871.61948 C 243.57047,871.78601 246.02936,871.92285 248.37986,872.62317 L 248.33094,872.65791 C 245.58926,872.71407 242.85775,872.50233 240.12191,872.3459 L 241.13474,871.61948 z" />
    <path
       style="fill:#000000;fill-opacity:1;stroke:none;stroke-width:11;stroke-miterlimit:4;stroke-dasharray:none;stroke-dashoffset:0;stroke-opacity:1"
       id="path2437"
       d="M 269.565,871.07738 C 272.73338,871.19936 275.86654,871.61715 278.99226,872.12149 L 278.94349,872.15644 C 275.44996,872.19736 271.96683,872.07625 268.47976,871.86016 L 269.565,871.07738 z" />
    <path
       style="fill:#000000;fill-opacity:1;stroke:none;stroke-width:11;stroke-miterlimit:4;stroke-dasharray:none;stroke-dashoffset:0;stroke-opacity:1"
       id="path2439"
       d="M 307.93971,871.63406 C 310.7516,870.44551 313.71074,869.88154 316.71793,869.48357 L 316.67001,869.51968 C 313.28801,870.23947 309.97248,871.21053 306.77737,872.54709 L 307.93971,871.63406 z" />
    <path
       style="fill:#000000;fill-opacity:1;stroke:none;stroke-width:11;stroke-miterlimit:4;stroke-dasharray:none;stroke-dashoffset:0;stroke-opacity:1"
       id="path2441"
       d="M 344.77472,873.39217 C 346.33431,872.40504 347.93979,871.49399 349.48971,870.49217 L 349.54559,870.47032 C 348.35257,871.28115 347.23497,872.19861 345.98291,872.92353 L 344.77472,873.39217 z" />
    <path
       style="fill:#000000;fill-opacity:1;stroke:none;stroke-width:11;stroke-miterlimit:4;stroke-dasharray:none;stroke-dashoffset:0;stroke-opacity:1"
       id="path2443"
       d="M 362.97748,666.34913 C 363.03806,670.52548 363.20644,674.68639 362.98451,678.85974 C 362.95374,679.4613 362.92296,680.06286 362.89219,680.66442 L 362.83881,680.69182 C 362.77211,680.14037 362.7054,679.58892 362.6387,679.03747 C 362.10759,675.01788 361.90036,670.98068 361.84384,666.92675 L 362.97748,666.34913 z" />
    <path
       style="fill:#000000;fill-opacity:1;stroke:none;stroke-width:11;stroke-miterlimit:4;stroke-dasharray:none;stroke-dashoffset:0;stroke-opacity:1"
       id="path2445"
       d="M 364.0075,692.81162 C 365.10678,696.08453 365.53282,699.5082 365.79906,702.93341 C 365.88029,707.12313 366.37365,711.34165 366.01504,715.52357 C 366.02965,716.002 366.04426,716.48043 366.05887,716.95886 L 366.00565,716.98657 C 365.93685,716.5363 365.86804,716.08602 365.79923,715.63574 C 364.69257,711.69401 365.04018,707.54307 364.72129,703.49304 C 364.4597,700.06771 364.10965,696.62697 363.04657,693.34074 L 364.0075,692.81162 z" />
    <path
       style="fill:#000000;fill-opacity:1;stroke:none;stroke-width:11;stroke-miterlimit:4;stroke-dasharray:none;stroke-dashoffset:0;stroke-opacity:1"
       id="path2447"
       d="M 365.4335,728.80168 C 365.69279,732.07936 365.76948,735.36635 365.90944,738.65011 C 366.16287,741.92884 366.31993,745.18791 366.3106,748.47174 L 366.25746,748.4996 C 366.06544,747.73997 365.80107,746.99703 365.659,746.22649 C 365.22675,743.88209 365.32228,741.44964 365.0593,739.08748 C 364.94201,735.80155 364.87595,732.51178 364.60118,729.23392 L 365.4335,728.80168 z" />
    <path
       style="fill:#000000;fill-opacity:1;stroke:none;stroke-width:11;stroke-miterlimit:4;stroke-dasharray:none;stroke-dashoffset:0;stroke-opacity:1"
       id="path2449"
       d="M 365.76282,761.79438 C 365.87678,765.70793 365.93762,769.62569 365.80606,773.53932 C 365.53517,775.73179 365.61605,774.69846 365.53151,776.63663 L 365.47806,776.6639 C 365.37071,774.87147 365.46914,775.80364 365.15867,773.87003 C 364.94079,770.01869 364.91038,766.16008 364.76863,762.30551 L 365.76282,761.79438 z" />
    <path
       style="fill:#000000;fill-opacity:1;stroke:none;stroke-width:11;stroke-miterlimit:4;stroke-dasharray:none;stroke-dashoffset:0;stroke-opacity:1"
       id="path2451"
       d="M 364.89495,800.67464 C 365.25686,803.61593 365.62939,806.55817 365.52001,809.52535 C 365.50259,809.90301 365.48518,810.28067 365.46777,810.65833 L 365.41444,810.68584 C 365.36105,810.34488 365.30766,810.00393 365.25427,809.66298 C 364.73633,806.81778 364.57841,803.92801 364.14619,801.06946 L 364.89495,800.67464 z" />
    <path
       style="fill:#000000;fill-opacity:1;stroke:none;stroke-width:11;stroke-miterlimit:4;stroke-dasharray:none;stroke-dashoffset:0;stroke-opacity:1"
       id="path2453"
       d="M 365.87339,831.38356 C 365.76972,834.9635 366.07015,838.57052 365.54513,842.12338 L 365.48308,842.15499 C 364.88687,838.72789 365.30792,835.21075 365.15482,831.7497 L 365.87339,831.38356 z" />
    <path
       style="fill:#000000;fill-opacity:1;stroke:none;stroke-width:11;stroke-miterlimit:4;stroke-dasharray:none;stroke-dashoffset:0;stroke-opacity:1"
       id="path2455"
       d="M 363.09129,857.77474 C 363.08917,859.52827 363.11261,858.61361 363.00867,860.51838 L 362.95546,860.54611 C 362.51633,858.89952 362.68719,859.70953 362.42928,858.119 L 363.09129,857.77474 z" />
    <path
       style="fill:#000000;fill-opacity:1;stroke:none;stroke-width:11;stroke-miterlimit:4;stroke-dasharray:none;stroke-dashoffset:0;stroke-opacity:1"
       id="path2457"
       d="M 362.15184,860.34429 C 359.72875,860.22454 357.30324,860.11925 354.88719,859.89417 C 353.56274,859.75802 352.24953,859.53797 350.91944,859.46233 C 350.54064,859.4245 350.15071,859.40992 349.77505,859.4157 C 351.84443,858.72862 351.48244,858.52443 351.44582,860.30715 C 351.45523,862.09415 351.71867,863.85926 351.98229,865.62267 C 352.18997,866.66959 352.39262,867.72064 352.5409,868.77792 C 352.6035,869.61288 352.591,870.4491 352.57727,871.28575 C 352.71103,872.27636 352.42455,872.62652 351.71746,873.26075 L 351.66398,873.28796 C 350.53697,873.42217 350.82087,873.22383 350.81417,872.18406 C 350.80074,871.36126 350.81962,870.53302 350.75136,869.71438 C 350.66783,868.64352 350.42713,867.59362 350.26791,866.53267 C 349.93607,864.77598 349.71555,862.99967 349.67511,861.21064 C 349.62178,859.5791 349.63172,859.40187 351.40014,858.23978 C 351.76285,858.26619 352.15003,858.30002 352.52072,858.31858 C 353.82785,858.45762 355.13022,858.62878 356.43476,858.78967 C 358.86515,858.97585 361.29771,859.16512 363.73591,859.20138 L 362.15184,860.34429 z" />
  </g>
</svg>
