<?xml version="1.0" encoding="UTF-8" standalone="no"?>
<!-- Created with Inkscape (http://www.inkscape.org/) -->
<svg
   xmlns:dc="http://purl.org/dc/elements/1.1/"
   xmlns:cc="http://creativecommons.org/ns#"
   xmlns:rdf="http://www.w3.org/1999/02/22-rdf-syntax-ns#"
   xmlns:svg="http://www.w3.org/2000/svg"
   xmlns="http://www.w3.org/2000/svg"
   xmlns:sodipodi="http://sodipodi.sourceforge.net/DTD/sodipodi-0.dtd"
   xmlns:inkscape="http://www.inkscape.org/namespaces/inkscape"
   width="437.11581"
   height="278.57947"
   id="svg2"
   sodipodi:version="0.32"
   inkscape:version="0.46"
   sodipodi:docname="datafoeder.svg"
   inkscape:output_extension="org.inkscape.output.svg.inkscape"
   version="1.0">
  <defs
     id="defs4">
    <inkscape:perspective
       sodipodi:type="inkscape:persp3d"
       inkscape:vp_x="0 : 526.18109 : 1"
       inkscape:vp_y="0 : 1000 : 0"
       inkscape:vp_z="744.09448 : 526.18109 : 1"
       inkscape:persp3d-origin="372.04724 : 350.78739 : 1"
       id="perspective10" />
  </defs>
  <sodipodi:namedview
     id="base"
     pagecolor="#ffffff"
     bordercolor="#666666"
     borderopacity="1.0"
     gridtolerance="10000"
     guidetolerance="10"
     objecttolerance="10"
     inkscape:pageopacity="0.0"
     inkscape:pageshadow="2"
     inkscape:zoom="1"
     inkscape:cx="353.73686"
     inkscape:cy="118.14831"
     inkscape:document-units="px"
     inkscape:current-layer="layer1"
     showgrid="false"
     inkscape:window-width="1440"
     inkscape:window-height="827"
     inkscape:window-x="0"
     inkscape:window-y="25" />
  <metadata
     id="metadata7">
    <rdf:RDF>
      <cc:Work
         rdf:about="">
        <dc:format>image/svg+xml</dc:format>
        <dc:type
           rdf:resource="http://purl.org/dc/dcmitype/StillImage" />
      </cc:Work>
    </rdf:RDF>
  </metadata>
  <g
     inkscape:label="Layer 1"
     inkscape:groupmode="layer"
     id="layer1"
     transform="translate(-40.135285,-698.88428)">
    <path
       style="fill:none;fill-opacity:1;stroke:#000000;stroke-width:3;stroke-miterlimit:4;stroke-dasharray:none;stroke-dashoffset:0;stroke-opacity:1"
       id="path3175"
       d="M 56.530558,854.41403 C 59.09723,853.1782 61.883425,852.91356 64.687901,852.84464 C 69.687491,852.85094 74.680828,853.25382 79.669662,853.55921 C 83.242694,853.77591 86.817749,853.79977 90.391306,853.6157 C 92.523247,853.4035 94.622155,852.9698 96.733677,852.62204 C 99.274108,852.24036 101.83997,852.38567 104.39527,852.43124 C 105.80083,852.58023 107.20787,852.46175 108.6123,852.44273 C 108.91941,852.41178 109.2211,852.31144 109.52878,852.35733 C 110.25285,852.21902 110.4297,852.23253 110.93362,852.84404 C 111.54382,856.51071 111.25928,860.29709 111.20633,863.99926 C 111.05323,873.05559 110.66139,882.09761 109.77639,891.11237 C 109.04557,898.1302 107.49339,905.0195 105.80688,911.85865 C 104.89883,915.41306 103.9488,918.95362 103.25784,922.55783 C 102.93836,924.21432 102.89893,925.79551 103.21625,927.44289 C 103.70074,928.97555 104.38724,930.42644 105.01149,931.90046 C 106.67285,935.10074 101.38544,934.63194 99.684962,934.38521 C 94.069703,933.34987 88.458616,932.31071 82.82232,931.39303 C 76.270509,930.531 69.773004,929.37878 63.378396,927.71051 C 60.106392,926.56509 56.324503,926.0259 53.550768,923.82373 C 53.304959,923.45457 52.999973,923.11858 52.813341,922.71626 C 51.180599,919.19648 51.957294,912.2608 52.234756,908.54638 C 52.915257,900.13641 54.533407,891.84383 56.742189,883.71139 C 58.105435,878.99041 59.72704,874.35136 61.474669,869.76072 C 62.179144,868.27722 62.364688,866.61536 62.903544,865.08681 C 63.169575,864.4312 63.219498,864.0838 62.989015,863.38521 C 62.092195,861.30045 61.6236,860.69303 62.852209,858.56344 L 62.942144,858.51971 C 63.905365,860.29874 61.889888,856.70798 63.976431,859.61325 C 64.507454,860.35263 64.540886,861.46248 65.057794,862.2249 C 65.317719,862.72377 65.82152,863.1003 65.839051,863.65525 C 65.889308,865.27411 64.923618,866.84847 64.492584,868.35883 C 62.736694,872.9721 61.040209,877.60758 59.622527,882.33848 C 57.425656,890.47394 55.69236,898.72228 55.032977,907.14282 C 54.835017,910.97542 54.090828,917.35917 55.786255,920.97596 C 55.958793,921.34403 56.231447,921.65624 56.454043,921.99637 C 59.203645,924.12888 62.876826,924.70618 66.090734,925.84568 C 72.446788,927.57066 78.937331,928.63077 85.455636,929.54217 C 91.145303,930.41457 96.799536,931.47949 102.48038,932.40134 C 102.94279,932.4383 103.40429,932.48913 103.8676,932.51221 C 104.13173,932.52538 104.85577,932.33113 104.66098,932.51 C 101.67102,935.25555 102.39719,934.86682 101.9712,933.61257 C 101.29294,932.14181 100.67984,930.62606 100.17078,929.08808 C 99.674933,927.42469 99.811249,925.75292 100.16214,924.06341 C 100.83234,920.42403 101.86682,916.86898 102.81081,913.29382 C 104.54897,906.44495 106.1699,899.55051 106.95328,892.51513 C 107.88979,883.52754 108.26531,874.50131 108.32057,865.46558 C 108.34904,861.89074 108.63623,858.13466 107.92039,854.62194 C 107.6264,854.09942 107.23444,854.43873 106.71954,854.41158 C 106.43112,854.45737 106.14294,854.48084 105.84874,854.47878 C 104.43308,854.63589 103.00119,854.49921 101.58296,854.45811 C 99.055733,854.30641 96.500991,854.29129 93.993341,854.68106 C 91.885173,855.0168 89.793637,855.47678 87.658842,855.6224 C 84.125638,855.8024 80.592721,855.67213 77.064283,855.42921 C 72.102139,855.15836 67.14921,854.66279 62.17379,854.68393 C 59.502795,854.79408 56.832771,854.97704 54.369414,856.129 L 56.530558,854.41403 z" />
    <path
       style="fill:none;fill-opacity:1;stroke:#000000;stroke-width:3;stroke-miterlimit:4;stroke-dasharray:none;stroke-dashoffset:0;stroke-opacity:1"
       id="path3177"
       d="M 135.04302,852.58457 C 133.75198,857.24373 133.19124,862.07524 132.54614,866.85674 C 131.83506,872.48117 131.5674,878.14708 131.42576,883.81034 C 131.34928,888.3431 131.32844,892.87708 131.35693,897.41034 C 131.35083,901.18692 131.36437,904.96321 131.37727,908.73973 C 131.38625,911.6489 131.34456,914.559 131.39079,917.46803 C 131.45145,919.3841 131.66396,921.29341 131.81049,923.20532 C 131.88717,924.84776 131.88845,926.49205 131.93348,928.13519 C 132.36068,929.55771 134.44677,929.73386 135.68889,929.98587 C 138.825,930.511 142.01507,930.16885 145.14514,929.77793 C 148.04841,929.373 150.91456,928.75131 153.82426,928.39365 C 156.77473,928.04013 159.73761,928.15283 162.68819,928.41317 C 165.09845,928.594 167.4831,929.00168 169.88609,929.24392 C 171.8208,929.31904 173.69869,929.70335 175.4872,930.44014 C 177.19701,931.20265 178.98628,931.75663 180.76058,932.34397 C 181.77522,932.5611 182.85324,933.16849 183.92425,933.0627 C 184.09004,933.04632 184.54723,932.83342 184.40141,932.914 C 184.01622,933.12686 183.60081,933.27976 183.20051,933.46264 C 183.99598,930.65165 183.13393,927.4374 182.71155,924.61486 C 181.5958,917.98521 180.83551,911.30182 180.13828,904.61707 C 179.51593,899.1371 178.97985,893.64543 178.54745,888.14691 C 178.18978,883.84599 177.74245,879.55329 177.3899,875.25193 C 177.26219,872.19378 176.68117,869.22139 175.84125,866.28852 C 174.96608,863.67163 174.56851,860.976 174.45797,858.23041 C 174.46788,855.8551 174.57341,853.48126 174.70158,851.10989 C 174.92913,848.96908 171.82677,849.948 170.64317,850.14212 C 166.02787,851.2116 161.56211,852.81499 156.99197,854.05525 C 153.28187,854.9966 149.52172,855.72545 145.69767,855.93847 C 142.15644,856.05818 138.94649,854.69075 135.79781,853.25037 C 134.12886,852.35643 132.33302,851.75116 130.59589,851.01914 C 130.22143,850.8047 130.29639,850.96457 130.37281,850.5387 L 130.42159,850.50377 C 131.37103,850.18313 130.93706,850.22313 131.70546,850.2567 C 133.66981,850.56039 135.4782,851.41919 137.24767,852.29076 C 140.35455,853.76859 143.57277,855.04849 147.08218,854.92045 C 150.88306,854.69802 154.63215,853.98652 158.31707,853.03818 C 162.90211,851.81222 167.36897,850.17757 172.00029,849.12265 C 173.34735,848.91015 176.44705,848.02433 176.24971,850.33075 C 176.14204,852.70231 175.96064,855.07328 175.97642,857.44871 C 176.09467,860.17872 176.45453,862.87023 177.34658,865.46878 C 178.16201,868.42099 178.76784,871.40783 178.87301,874.48134 C 179.20635,878.788 179.65752,883.08432 180.0031,887.39018 C 180.47091,892.89205 180.95858,898.39158 181.54149,903.88283 C 182.29804,910.5523 182.98283,917.23466 184.16239,923.84688 C 184.63811,926.72985 185.45082,929.8827 184.81606,932.78914 C 184.20836,933.18908 183.62853,933.63498 182.99296,933.98897 C 181.97029,934.55856 180.32148,933.41816 179.32295,933.31797 C 177.56419,932.70077 175.76833,932.1808 174.07586,931.38724 C 172.27374,930.71928 170.43227,930.26844 168.49814,930.22971 C 166.111,929.95492 163.73459,929.59897 161.34158,929.37261 C 158.40957,929.0863 155.45833,929.00789 152.52633,929.36115 C 149.62632,929.71821 146.76687,930.3296 143.87222,930.72616 C 140.74066,931.08546 137.55269,931.44552 134.42381,930.86589 C 133.09652,930.5823 131.02328,930.34864 130.60077,928.81562 C 130.61811,927.1775 130.58083,925.53639 130.46488,923.90226 C 130.35637,921.98682 130.07714,920.08767 130.01384,918.16963 C 130.05919,915.2567 130.0183,912.34273 130.0234,909.42968 C 130.03097,905.65076 130.03464,901.87207 130.01719,898.09315 C 130.03634,893.55687 129.98857,889.01987 130.09441,884.4842 C 130.25715,878.80613 130.52656,873.12637 131.26368,867.48895 C 131.89294,862.70039 132.49904,857.88013 133.72109,853.19981 L 135.04302,852.58457 z" />
    <path
       style="fill:none;fill-opacity:1;stroke:#000000;stroke-width:3;stroke-miterlimit:4;stroke-dasharray:none;stroke-dashoffset:0;stroke-opacity:1"
       id="path3179"
       d="M 202.08813,854.03336 C 202.69529,852.79428 202.9822,851.29986 203.86472,850.21452 C 204.36738,849.96419 204.82541,849.58932 205.37269,849.46354 C 205.70836,849.3864 205.752,850.06436 205.79651,850.4059 C 205.97217,851.75392 205.75969,853.20209 205.65069,854.54006 C 205.03243,860.12303 204.76288,865.73306 204.38204,871.33415 C 204.06792,876.63491 203.36042,881.89865 202.71349,887.1656 C 202.26337,890.98583 202.10034,894.82633 201.9904,898.66818 C 201.88062,901.00619 201.79869,903.34477 201.72366,905.68399 C 201.70597,907.68226 201.66107,909.68075 201.69018,911.67913 C 201.67608,913.40795 201.67429,915.13729 201.674,916.86632 C 201.63851,918.64056 201.83971,920.40533 202.00183,922.16884 C 202.1776,923.6252 202.17771,925.09208 202.23703,926.55515 C 202.23135,927.67177 202.26259,928.78845 202.24592,929.90487 C 202.28639,930.45214 202.20966,931.00942 202.27055,931.55292 C 202.14029,932.41964 203.50721,932.36473 204.07866,932.44341 C 207.14283,932.66646 210.1778,932.10216 213.15466,931.44334 C 217.18409,930.48577 221.06008,929.01131 224.98483,927.70977 C 227.90696,926.76497 230.93965,926.35231 233.99519,926.21497 C 236.1519,926.30608 238.30667,926.36663 240.46526,926.30776 C 242.387,926.25645 244.30166,926.06083 246.21828,925.91802 C 247.32846,925.83747 248.44114,925.84499 249.55256,925.8109 C 250.47644,925.82223 251.39376,925.68697 252.31577,925.6385 C 253.29012,925.52562 254.2534,925.60824 255.20569,925.82695 C 256.11122,925.98626 256.96706,926.445 257.87985,926.56674 C 258.03094,926.5869 258.46112,926.45966 258.33676,926.5478 C 257.9368,926.83129 257.45247,926.9713 257.01033,927.18304 C 257.33764,923.85003 256.38177,920.3917 255.79911,917.11439 C 254.83239,911.89062 254.15667,906.62051 253.24147,901.3884 C 252.34602,897.03199 251.28759,892.71746 250.61592,888.31826 C 250.05395,884.26023 249.77596,880.17032 249.39124,876.09302 C 249.13295,872.89215 248.60166,869.72537 248.15831,866.54821 C 247.79954,863.65282 247.2464,860.78655 246.84281,857.89831 C 246.45037,855.36893 246.51338,852.81278 246.70959,850.27064 C 246.61008,849.13682 247.74473,846.50429 246.34444,845.77352 C 246.071,845.63082 245.74842,845.61447 245.45041,845.53494 C 240.05965,845.69574 234.68778,846.54553 229.31494,847.06912 C 223.16704,847.67833 216.99665,847.95124 210.82979,848.27285 C 206.83162,848.52839 202.89686,849.3096 198.92812,849.8233 C 197.67411,849.88703 192.69716,850.57536 191.64371,849.79705 C 191.52191,849.70706 191.59042,849.4989 191.56378,849.34983 C 191.61167,849.27268 191.65957,849.19553 191.70746,849.11838 L 191.7618,849.09293 C 191.77127,849.12726 191.78074,849.16159 191.79021,849.19592 C 194.60673,848.77211 197.53241,849.37494 200.35129,848.76133 C 204.32219,848.25728 208.25643,847.44583 212.25954,847.22382 C 218.40788,846.9688 224.5572,846.67495 230.68192,846.05577 C 236.10459,845.54051 241.52051,844.60638 246.96236,844.50322 C 247.27531,844.60948 247.61729,844.65282 247.90121,844.822 C 249.36058,845.6916 248.25966,848.1976 248.31287,849.46917 C 248.11915,851.99668 248.05522,854.54077 248.44122,857.05565 C 248.84751,859.94679 249.37282,862.81985 249.7323,865.71784 C 250.19857,868.89795 250.70969,872.0712 250.94844,875.27982 C 251.38325,879.35105 251.59349,883.44451 252.15531,887.50274 C 252.89587,891.88779 253.87996,896.21598 254.78264,900.56879 C 255.71988,905.79514 256.36368,911.06896 257.35348,916.28673 C 257.97702,919.61897 258.88431,923.08754 258.71967,926.48185 C 258.09032,926.86842 257.49768,927.32239 256.83162,927.64157 C 256.24137,927.92442 254.40522,926.86003 253.69049,926.88042 C 252.74115,926.69815 251.80475,926.62505 250.84045,926.72479 C 249.91057,926.7942 248.98272,926.90232 248.04937,926.90462 C 246.95148,926.88422 245.85125,926.93587 244.75523,926.99513 C 242.84676,927.09279 240.94603,927.31685 239.03391,927.35269 C 236.88028,927.39216 234.72968,927.32533 232.57766,927.25327 C 229.54523,927.35129 226.54158,927.8281 223.64499,928.75043 C 219.73394,930.04995 215.8631,931.49985 211.84349,932.43963 C 208.8526,933.08114 205.79808,933.65776 202.72497,933.39817 C 201.97742,933.28982 200.76814,933.28517 200.76462,932.32006 C 200.82119,931.76624 200.75656,931.20142 200.79457,930.64414 C 200.78046,929.53014 200.81414,928.41605 200.77783,927.30197 C 200.78371,925.83759 200.69071,924.37436 200.56854,922.91572 C 200.40695,921.1479 200.17063,919.38189 200.2304,917.60194 C 200.22892,915.8788 200.22452,914.15539 200.21131,912.43244 C 200.24444,910.42965 200.20723,908.42613 200.26386,906.42363 C 200.29491,904.08243 200.42417,901.74506 200.53206,899.40644 C 200.62341,895.55258 200.85256,891.69916 201.29258,887.86862 C 201.89437,882.59001 202.69414,877.33238 203.00569,872.0237 C 203.38713,866.42144 203.67669,860.81083 204.2767,855.22586 C 204.39137,853.87081 204.55996,852.49608 204.44206,851.13356 C 204.42562,850.9435 204.40822,850.75031 204.34956,850.56878 C 204.32149,850.48194 204.12629,850.41484 204.18808,850.34766 C 204.46059,850.0514 204.85121,849.89117 205.18278,849.66293 C 204.12461,850.66753 203.83096,852.32861 203.11161,853.56306 L 202.08813,854.03336 z" />
    <path
       style="fill:none;fill-opacity:1;stroke:#000000;stroke-width:3;stroke-miterlimit:4;stroke-dasharray:none;stroke-dashoffset:0;stroke-opacity:1"
       id="path3181"
       d="M 275.47708,846.57989 C 276.47578,851.41815 275.79781,856.45128 275.26456,861.30822 C 274.61755,867.54614 273.27092,873.67871 272.19523,879.84974 C 271.49728,883.8579 271.28064,887.91362 271.15537,891.97138 C 271.06214,895.13731 271.17846,898.30547 271.085,901.47074 C 270.98689,903.89145 270.94422,906.31339 270.88061,908.73519 C 270.84639,911.22423 270.86576,913.71349 270.85486,916.20261 C 270.84255,918.14164 270.87359,920.08105 270.85782,922.01992 C 270.88048,923.42195 270.8357,924.82509 270.85415,926.2272 C 270.90827,927.0201 270.93214,927.8298 271.09385,928.61077 C 271.15918,929.17219 271.32412,929.34342 271.87051,929.44856 C 274.3314,929.70169 276.77725,929.16867 279.14806,928.56694 C 282.67848,927.50198 286.10084,926.11326 289.57218,924.87367 C 292.43952,923.78284 295.38255,923.0257 298.42297,922.65162 C 300.73045,922.44131 303.05088,922.40842 305.36667,922.41393 C 306.93873,922.4083 308.51081,922.43911 310.08279,922.42677 C 311.63967,922.4501 313.19577,922.44874 314.75089,922.36261 C 316.02547,922.29075 317.30196,922.25995 318.5767,922.19532 C 319.6312,922.06292 320.50185,922.63745 321.47194,922.88162 C 321.02948,923.09979 320.63614,923.4948 320.14455,923.53611 C 319.95662,923.55191 320.25771,923.17161 320.26417,922.98313 C 320.27667,922.6181 320.23452,922.25292 320.20095,921.88922 C 320.0246,919.97844 319.72355,918.07249 319.4797,916.16976 C 318.85964,911.21617 318.60895,906.22644 318.48507,901.23878 C 318.30021,895.7101 318.23585,890.17742 318.23834,884.64578 C 318.20671,879.91478 318.16763,875.18346 318.16114,870.45231 C 318.13075,868.1673 317.83117,865.89633 317.54122,863.6326 C 317.24345,860.50945 317.14838,857.37263 317.04939,854.23839 C 316.94682,852.62764 317.10649,850.9885 316.895,849.38662 C 316.77788,847.68764 315.2864,847.50267 313.8679,847.39432 C 309.56936,847.5596 305.30671,848.19969 301.01434,848.5102 C 296.99118,848.89398 293.03735,848.37257 289.10086,847.61247 C 286.70335,847.00089 284.28299,846.85336 281.82792,847.04233 C 279.98751,847.25968 278.14768,847.44752 276.29623,847.53453 C 276.62492,846.93113 274.5602,848.19648 274.90387,847.8656 C 275.13679,847.64136 275.44343,847.45964 275.76395,847.41718 C 275.97636,847.38904 275.42493,847.67953 275.26161,847.81822 C 274.72191,848.27651 274.65857,848.35834 274.17189,848.84403 C 273.26909,849.58601 273.70854,849.22922 272.85433,849.91537 L 272.79894,849.93843 C 273.00616,849.52561 272.90445,849.7396 273.10257,849.29574 C 274.18058,847.78221 275.8229,846.61214 277.72582,846.48435 C 279.57126,846.37704 281.40771,846.19169 283.24564,845.99544 C 285.71608,845.80239 288.1372,845.99729 290.54878,846.60407 C 294.44219,847.43003 298.38439,847.86829 302.37065,847.51021 C 306.69066,847.2172 310.97363,846.52854 315.29901,846.37517 C 316.81868,846.54834 318.26746,846.79837 318.4695,848.56258 C 318.61399,850.1942 318.43844,851.83809 318.54237,853.4733 C 318.58933,856.60297 318.66695,859.73984 319.03124,862.85129 C 319.27604,865.1358 319.64627,867.41289 319.60052,869.71884 C 319.59758,874.46135 319.57374,879.20382 319.60826,883.94633 C 319.70281,889.45103 319.76617,894.95633 320.00844,900.45714 C 320.16719,905.43424 320.36276,910.41704 321.02149,915.35841 C 321.3282,917.59648 321.83498,919.91144 321.9056,922.17499 C 321.91274,922.40389 322.02421,922.70685 321.85402,922.86009 C 321.32274,923.33844 320.60608,923.55793 319.98211,923.90686 C 319.02158,923.64669 318.13359,923.11297 317.09162,923.2804 C 315.82598,923.28191 314.56119,923.37875 313.29696,923.42858 C 311.73591,923.4765 310.17662,923.51126 308.61471,923.49261 C 307.04976,923.4688 305.48438,923.47979 303.9193,923.46572 C 301.61703,923.47579 299.30941,923.44999 297.01676,923.69984 C 293.99348,924.07195 291.06929,924.85273 288.21805,925.93029 C 284.74622,927.16949 281.32735,928.57022 277.78755,929.60757 C 275.3709,930.20967 272.88737,930.74523 270.38188,930.46956 C 269.75169,930.23876 269.67231,930.05437 269.51864,929.44305 C 269.44134,928.6365 269.30824,927.83402 269.2963,927.02098 C 269.31437,925.62033 269.26962,924.21864 269.29149,922.81806 C 269.2745,920.87852 269.30378,918.9384 269.29219,916.9987 C 269.28446,914.50651 269.3109,912.01437 269.33081,909.52228 C 269.33088,907.10007 269.41584,904.67737 269.53107,902.25807 C 269.5809,899.09235 269.52358,895.92613 269.59587,892.76069 C 269.68984,888.68882 269.97082,884.61663 270.66204,880.59799 C 271.73485,874.40797 273.13647,868.27132 273.83116,862.0194 C 274.33799,857.17066 275.03591,852.17194 274.10658,847.33455 L 275.47708,846.57989 z" />
    <path
       style="fill:none;fill-opacity:1;stroke:#000000;stroke-width:3;stroke-miterlimit:4;stroke-dasharray:none;stroke-dashoffset:0;stroke-opacity:1"
       id="path3183"
       d="M 343.67938,850.93222 C 342.6887,855.18254 342.12139,859.52499 341.50569,863.84272 C 340.75966,869.39807 340.09225,874.96376 339.471,880.53434 C 339.05485,884.69299 338.87208,888.86986 338.61657,893.04014 C 338.50094,895.82953 338.21452,898.6066 337.86215,901.37477 C 337.62604,903.70897 337.41492,906.04676 337.1552,908.37856 C 336.95451,910.31321 336.73631,912.24354 336.67123,914.18844 C 336.52584,916.08982 336.38005,917.99344 336.34077,919.90047 C 336.28145,921.0823 336.31195,922.26567 336.29651,923.44755 C 336.23978,924.30548 336.8325,924.66443 337.51274,925.02312 C 339.63964,925.65468 341.94248,925.20029 344.07784,924.83068 C 346.98107,924.32648 349.77807,923.39867 352.55317,922.43318 C 354.41575,921.77511 356.31411,921.22552 358.23152,920.75244 C 360.48693,920.30269 362.75125,919.91369 364.98874,919.37724 C 367.05584,918.6707 369.14598,918.07452 371.31276,917.78378 C 373.17659,917.57664 375.04747,917.47184 376.91945,917.3776 C 378.43695,917.32503 379.95493,917.33788 381.47292,917.32184 C 383.61498,917.44353 385.51985,918.41661 387.31343,919.51985 C 387.96254,919.83767 388.50108,920.316 389.08821,920.72145 C 389.09935,920.73664 389.11049,920.75183 389.12162,920.76702 C 388.62335,920.89645 388.11778,921.31015 387.62681,921.1553 C 387.36328,921.07219 387.72893,920.61148 387.75673,920.33655 C 387.79431,919.96492 387.81795,919.59142 387.82274,919.21792 C 387.83976,917.88823 387.75215,917.27259 387.63903,915.89698 C 386.92123,910.64565 385.95623,905.43204 385.09971,900.20215 C 384.36235,895.62392 383.7067,891.03293 383.04214,886.44373 C 382.57993,882.76166 381.72322,879.15074 381.00468,875.51497 C 380.20865,871.3299 379.48448,867.1312 378.73726,862.93708 C 378.14162,859.70336 377.68559,856.44468 377.40758,853.16846 C 377.08499,852.5666 377.57574,851.59481 377.21003,851.03518 C 375.00573,850.59393 372.61609,850.95257 370.3877,851.09077 C 365.28188,851.37438 360.35047,852.71205 355.42901,853.99406 C 351.71456,855.00971 348.01517,856.09974 344.23076,856.8283 C 342.36665,857.11798 340.48194,857.34856 338.59456,857.41101 C 338.16621,857.24556 338.27147,857.40171 338.28919,856.9357 L 338.36964,856.87931 C 339.37902,856.58454 338.87665,856.72252 339.8765,856.4645 C 341.7976,856.24164 343.72585,856.07112 345.63619,855.76493 C 349.39285,855.01179 353.07577,853.96698 356.7718,852.96471 C 361.7077,851.65523 366.66831,850.35855 371.79125,850.0573 C 374.00764,849.91165 376.68389,849.36242 378.81888,850.10843 C 379.14667,850.7492 378.8762,851.634 379.03625,852.32103 C 379.31857,855.59871 379.68692,858.86904 380.30012,862.10452 C 381.0979,866.2862 381.78318,870.48873 382.58489,874.66985 C 383.33038,878.30434 384.1434,881.92893 384.61703,885.61226 C 385.29437,890.20165 385.90665,894.80085 386.64954,899.3807 C 387.49651,904.61251 388.48274,909.82225 389.22823,915.06963 C 389.28937,915.724 389.77854,919.79962 389.30045,920.36156 C 388.81093,920.93694 388.10851,921.29002 387.51253,921.75424 C 387.4991,921.74513 387.48567,921.73601 387.47225,921.7269 C 386.94653,921.27542 386.35048,920.90588 385.77502,920.51602 C 383.96266,919.47289 382.12482,918.42972 379.96672,918.41642 C 378.45254,918.40351 376.93827,918.41921 375.42492,918.47234 C 373.56405,918.52245 371.70843,918.6829 369.85702,918.87301 C 367.70513,919.19276 365.62964,919.78897 363.5637,920.46503 C 361.32469,921.00817 359.05145,921.36786 356.79933,921.84877 C 354.90586,922.34904 353.0092,922.84039 351.16682,923.51294 C 348.38868,924.47382 345.58443,925.37325 342.6812,925.88084 C 340.50205,926.22499 338.17367,926.71084 336.02028,925.99306 C 335.31461,925.55526 334.64981,925.17678 334.75744,924.23128 C 334.74744,923.04503 334.79435,921.85753 334.81424,920.67114 C 334.91602,918.76782 335.00017,916.86387 335.13411,914.96222 C 335.25872,913.01404 335.41922,911.07083 335.63954,909.131 C 335.86928,906.78975 336.13199,904.45204 336.37398,902.11133 C 336.66952,899.3377 337.02395,896.56966 337.14355,893.77954 C 337.39137,889.60306 337.59248,885.42243 338.01127,881.25819 C 338.61019,875.67463 339.35971,870.1065 340.09004,864.53891 C 340.70938,860.20956 341.27732,855.85549 342.27781,851.59466 L 343.67938,850.93222 z" />
    <path
       style="fill:none;fill-opacity:1;stroke:#000000;stroke-width:3;stroke-miterlimit:4;stroke-dasharray:none;stroke-dashoffset:0;stroke-opacity:1"
       id="path3185"
       d="M 403.19198,850.56732 C 402.63829,854.93076 402.36318,859.32389 402.037,863.70883 C 401.65712,868.19772 401.38828,872.69392 401.16314,877.19278 C 400.95408,880.99908 400.85585,884.81079 400.82848,888.62247 C 400.80784,891.69981 400.78218,894.77717 400.82174,897.85432 C 400.83103,900.18866 400.78285,902.52426 400.83017,904.85845 C 400.74383,907.083 400.83376,909.30364 401.01853,911.52003 C 401.18804,913.22368 401.23265,914.94009 401.56267,916.62329 C 401.70688,917.72642 402.14598,918.58879 402.87055,919.40633 C 403.9789,920.17586 405.36531,920.34555 406.66602,920.56324 C 408.695,920.85574 410.70947,920.69513 412.72299,920.39842 C 415.2526,919.86292 417.75252,919.20212 420.27593,918.6388 C 423.03511,918.01124 425.86107,917.86044 428.67825,917.75238 C 431.94391,917.57871 435.16763,917.95852 438.33102,918.74357 C 440.47614,919.22482 442.42667,920.2454 444.47969,920.98211 C 446.22537,921.51148 447.96253,922.06709 449.70446,922.60937 C 450.57073,922.93678 451.45536,923.19455 452.26882,923.63691 C 452.93112,923.86769 453.62384,923.94688 454.32214,923.98143 C 455.06563,923.90877 456.41036,924.52539 453.02743,924.70382 C 452.82186,924.71466 453.10819,924.29885 453.12126,924.09341 C 453.13972,923.80343 453.12159,923.51227 453.12176,923.2217 C 452.89842,920.12435 452.48796,917.0416 452.16632,913.95225 C 451.83802,910.21888 451.75263,906.4713 451.67727,902.72625 C 451.61134,900.29173 451.66812,897.85661 451.62946,895.42195 C 451.66655,892.83867 451.61277,890.26081 451.76014,887.6806 C 451.82909,885.12374 452.60285,882.78674 453.65724,880.48958 C 454.64942,878.3512 455.24593,876.06234 455.77148,873.77304 C 456.25755,871.58387 457.14789,869.52691 457.99344,867.46096 C 458.52035,866.11966 459.07442,864.79159 459.40086,863.38616 C 459.61383,862.17717 459.47314,860.95559 459.39983,859.74034 C 459.30169,858.73073 459.32695,857.71373 459.25743,856.7041 C 459.12222,855.79159 459.21418,854.86697 458.55076,854.16172 C 456.3668,853.09079 453.69869,854.01364 451.47269,854.5282 C 448.28629,855.36532 445.05675,855.76765 441.77241,855.5504 C 438.56187,855.0508 435.36979,854.43741 432.17139,853.86428 C 428.7355,853.28236 425.4217,852.18967 422.04801,851.3464 C 419.79032,850.69119 417.48102,850.49747 415.14574,850.57334 C 413.16503,850.73143 411.17407,850.71555 409.19531,850.88495 C 408.23209,851.05312 407.31413,851.32655 406.42782,851.73675 C 406.17815,851.85231 405.45855,852.25543 405.69008,852.10682 C 406.0491,851.87639 406.39848,851.59659 406.81165,851.49039 C 407.09718,851.41701 406.33149,851.83258 406.09141,852.00367 C 405.21767,852.60544 404.52258,853.37062 403.88698,854.20696 C 403.6575,854.53056 403.34737,854.72957 403.00368,854.91049 L 402.30914,855.23738 C 402.09005,855.31575 401.737,855.44508 401.90851,855.0689 C 402.46593,854.16642 403.24612,853.43726 404.08579,852.79883 C 406.11975,851.26179 408.38529,850.00807 410.9202,849.61074 C 412.89685,849.46602 414.8811,849.45114 416.85904,849.31945 C 419.21812,849.2324 421.53438,849.53131 423.82225,850.12622 C 427.15507,851.05952 430.47837,852.06087 433.89229,852.66038 C 437.08897,853.24295 440.28554,853.85267 443.50167,854.31136 C 446.7711,854.52684 449.99959,854.06734 453.16689,853.23889 C 455.44277,852.7379 458.22804,851.77866 460.4018,853.04047 C 461.07865,853.8186 461.07623,854.72333 461.1529,855.71727 C 461.26058,856.72487 461.25056,857.73776 461.31866,858.74864 C 461.38662,859.975 461.5598,861.22569 461.34001,862.4439 C 461.1229,863.88502 460.45184,865.20755 459.94112,866.56078 C 459.12428,868.62085 458.21292,870.65508 457.73287,872.82923 C 457.19571,875.13102 456.6084,877.43815 455.61888,879.59444 C 454.57187,881.86265 453.74651,884.17603 453.69541,886.70959 C 453.52332,889.27703 453.55555,891.85338 453.58603,894.42529 C 453.54286,896.86573 453.59051,899.30675 453.59086,901.74735 C 453.63596,905.48714 453.73885,909.22929 454.07571,912.95575 C 454.35996,916.04852 454.82308,919.12056 455.09528,922.21439 C 455.1192,923.86633 454.7745,925.51113 452.47577,925.30094 C 451.77184,925.22424 451.03222,925.19929 450.38879,924.87463 C 449.55395,924.4974 448.69651,924.17121 447.82647,923.8829 C 446.11336,923.26224 444.3435,922.80489 442.61058,922.24165 C 440.58678,921.47445 438.6358,920.4991 436.51829,919.99482 C 433.36051,919.22221 430.14724,918.85294 426.89092,919.06053 C 424.09158,919.14889 421.2893,919.34748 418.5474,919.95458 C 416.02534,920.53647 413.52073,921.19569 410.9822,921.70386 C 408.97477,922.01968 406.92014,922.1316 404.90548,921.80069 C 403.56442,921.60104 402.10431,921.40465 401.01427,920.53486 C 400.22583,919.72767 399.78735,918.76839 399.63853,917.64543 C 399.38397,915.94161 399.20511,914.23623 399.10931,912.5136 C 398.91174,910.29382 398.86121,908.08031 398.88013,905.85212 C 398.92512,903.51625 398.8757,901.1791 398.88126,898.84311 C 398.91884,895.75757 398.89257,892.67188 398.9314,889.58617 C 398.99678,885.76636 399.04427,881.94522 399.29446,878.13166 C 399.57865,873.62444 399.83776,869.11657 400.22058,864.61604 C 400.60041,860.22777 400.86561,855.82804 401.3955,851.45376 L 403.19198,850.56732 z" />
    <path
       style="fill:none;fill-opacity:1;stroke:#000000;stroke-width:3;stroke-miterlimit:4;stroke-dasharray:none;stroke-dashoffset:0;stroke-opacity:1"
       id="path3187"
       d="M 42.879302,836.6829 C 46.193908,836.70046 49.509198,836.76533 52.824121,836.80659 C 59.060238,836.92411 65.292277,837.18519 71.528205,837.31762 C 77.34452,837.49737 83.147589,837.0672 88.941732,836.62808 C 95.18014,836.06809 101.43561,835.78378 107.69162,835.51471 C 111.80333,835.35673 115.88763,834.85021 119.99372,834.61419 C 124.60014,834.4102 129.21273,834.44919 133.82192,834.35859 C 138.01313,834.27802 142.20286,834.14718 146.39406,834.06759 C 152.13315,833.99169 157.86102,833.7898 163.56859,833.17161 C 169.45032,832.30133 175.346,831.5929 181.26543,831.03476 C 187.83554,830.48093 194.41793,830.1203 200.97668,829.43796 C 206.98341,828.61678 213.03263,828.24645 219.07318,827.78296 C 225.11042,827.41062 231.0821,826.4792 237.01094,825.31672 C 242.99229,823.96678 249.10184,823.489 255.20323,823.07253 C 260.90286,822.8184 266.59584,822.52578 272.27481,821.96918 C 278.61347,821.27428 284.97894,820.90327 291.34145,820.51169 C 296.52675,820.27546 301.66724,819.6342 306.79931,818.89574 C 312.83821,818.0299 318.94864,817.90028 325.03875,817.8226 C 329.85438,817.83011 334.66986,817.92438 339.48397,818.04359 C 343.90538,818.07899 348.32501,818.25251 352.74382,818.40297 C 356.68096,818.53196 360.6184,818.57946 364.55675,818.50978 C 368.94589,818.40626 373.32187,818.03765 377.69081,817.62496 C 382.60887,817.06867 387.54535,817.10103 392.47759,817.37568 C 397.86535,817.75458 403.17162,818.74845 408.46438,819.77521 C 412.84044,820.6735 417.20667,821.60681 421.56063,822.60541 C 425.87594,823.78647 430.04715,825.41352 434.33842,826.67548 C 438.67404,827.88222 443.0797,828.81734 447.46795,829.81026 C 451.67055,830.72436 455.8212,831.84335 459.97435,832.9551 C 463.27494,833.83214 466.6792,834.21062 470.06371,834.60124 C 471.46957,835.04849 473.68122,834.6094 475.04029,835.21522 C 475.37728,835.36544 475.4777,835.81594 475.7511,836.06371 L 475.70083,836.09647 C 474.59092,835.73232 475.92657,836.09525 473.61717,836.22665 C 471.87689,836.32568 470.10258,835.84655 468.37015,835.80208 C 464.96782,835.40613 461.54803,835.0557 458.23296,834.15068 C 454.09651,832.99774 449.95255,831.86322 445.74264,831.00464 C 441.36281,829.96266 436.94647,829.07274 432.60941,827.85596 C 428.34099,826.53874 424.15977,824.94984 419.84343,823.79379 C 415.50457,822.7614 411.13859,821.85848 406.7713,820.95556 C 401.49794,819.89531 396.1951,818.93299 390.82041,818.56611 C 385.88528,818.30885 380.94658,818.28339 376.02818,818.8566 C 371.65783,819.25473 367.28118,819.62876 362.89173,819.72356 C 358.96231,819.7799 355.03423,819.72336 351.10667,819.58462 C 346.6875,819.45839 342.27001,819.27355 337.84867,819.22719 C 333.04932,819.17191 328.25288,818.96071 323.45237,818.9783 C 317.35253,819.05769 311.23613,819.20502 305.19073,820.1001 C 300.08746,820.84135 294.96574,821.42781 289.80897,821.63984 C 283.43217,822.04721 277.05138,822.42824 270.69902,823.13772 C 265.03557,823.69174 259.35402,823.93309 253.67128,824.20142 C 247.56678,824.60944 241.46207,825.12479 235.47929,826.47521 C 229.55199,827.62258 223.58453,828.52111 217.55292,828.90486 C 211.49989,829.34228 205.4447,829.77643 199.42731,830.58772 C 192.87644,831.23328 186.30374,831.5771 179.74745,832.15933 C 173.81814,832.70506 167.92218,833.4626 162.02983,834.31391 C 156.32245,834.87155 150.60356,835.1123 144.86911,835.18055 C 140.672,835.2814 136.47551,835.40484 132.27789,835.48449 C 127.67193,835.55326 123.06321,835.51566 118.4607,835.74195 C 114.37122,835.99238 110.29904,836.48064 106.20142,836.60743 C 99.946253,836.88798 93.690237,837.15672 87.452592,837.72743 C 81.682718,838.17102 75.897078,838.54108 70.106772,838.34608 C 63.880444,838.23264 57.658877,837.94947 51.4329,837.81444 C 48.166149,837.76464 44.902224,837.61939 41.635285,837.58673 L 42.879302,836.6829 z" />
    <path
       style="fill:none;fill-opacity:1;stroke:#000000;stroke-width:3;stroke-miterlimit:4;stroke-dasharray:none;stroke-dashoffset:0;stroke-opacity:1"
       id="path3189"
       d="M 46.593422,941.41128 C 48.876423,940.28399 51.368958,939.84081 53.887355,939.70046 C 57.563354,939.71028 61.233782,940.01267 64.900235,940.25394 C 73.191565,940.83237 81.496652,941.13954 89.801909,941.42767 C 99.803053,941.75745 109.80696,941.91913 119.81238,942.03718 C 129.31548,942.06307 138.79447,942.73165 148.26543,943.439 C 155.28713,944.06684 162.33399,944.24429 169.37403,944.53643 C 176.68951,944.81815 184.00362,945.13053 191.31788,945.44172 C 198.85377,945.75812 206.39745,945.7378 213.93823,945.7376 C 220.7698,945.75634 227.60087,945.70382 234.42756,945.43584 C 240.71013,945.09353 246.97932,944.58616 253.26554,944.29857 C 259.88459,944.11522 266.48394,943.66884 273.06202,942.92007 C 280.25134,942.01555 287.44223,941.1424 294.65033,940.4007 C 302.55528,939.69571 310.40697,938.52246 318.27561,937.50866 C 327.10296,936.42141 335.97893,935.8319 344.83283,935.01626 C 350.72794,934.46259 356.57496,933.52162 362.44923,932.79321 C 368.24375,932.12933 374.07764,931.94029 379.90537,931.88824 C 385.63436,931.83931 391.35556,932.19655 397.07033,932.55398 C 403.47208,932.99126 409.87153,933.45792 416.27885,933.8076 C 423.46829,933.95822 430.58586,934.96379 437.66887,936.1282 C 443.7581,937.26741 449.97115,938.04897 455.90795,939.8739 C 456.97815,940.80705 456.39926,940.46774 457.61376,940.94271 L 457.56437,940.97677 C 455.78898,940.72185 456.81573,940.805 454.47604,940.86492 C 448.27965,939.81591 442.18704,938.18857 435.95272,937.33354 C 428.87465,936.20994 421.7794,935.19124 414.60155,935.01225 C 408.19671,934.65979 401.80169,934.17052 395.4011,933.75112 C 389.68806,933.40423 383.97041,933.0488 378.24363,933.09767 C 372.42545,933.14197 366.60064,933.35762 360.81566,934.01097 C 354.95358,934.72989 349.11938,935.6753 343.2343,936.19932 C 334.38869,936.9475 325.52921,937.58799 316.71656,938.67199 C 308.8477,939.67329 300.99878,940.85116 293.09481,941.55485 C 285.88535,942.26324 278.70176,943.17983 271.51319,944.07157 C 264.93359,944.77443 258.34355,945.26249 251.72613,945.42768 C 245.43639,945.70842 239.16534,946.23847 232.87895,946.56979 C 226.07483,946.80886 219.26679,946.83859 212.45885,946.8124 C 204.92682,946.81015 197.38833,946.85549 189.86319,946.48921 C 182.56112,946.17957 175.25877,945.87545 167.9572,945.55756 C 160.922,945.31066 153.88266,945.07844 146.86944,944.43743 C 137.42436,943.7319 127.97654,942.99747 118.49734,942.99046 C 108.50397,942.89442 98.512226,942.67403 88.523603,942.34984 C 80.194441,942.07686 71.867697,941.75024 63.550126,941.22189 C 59.900888,941.00064 56.250036,940.70263 52.594178,940.64893 C 50.158509,940.73135 47.753776,941.15011 45.550869,942.24598 L 46.593422,941.41128 z" />
    <path
       style="fill:none;fill-opacity:1;stroke:#000000;stroke-width:3;stroke-miterlimit:4;stroke-dasharray:none;stroke-dashoffset:0;stroke-opacity:1"
       id="path3211"
       d="M 210.28846,777.29371 C 211.73605,778.76468 213.23954,780.17005 214.77356,781.54924 C 215.95771,782.55503 217.17883,783.51597 218.21553,784.67776 C 219.25341,786.06033 220.48806,787.27114 221.56427,788.62196 C 222.68207,790.01495 223.72166,791.46932 224.78466,792.90445 C 225.25363,793.64976 225.74019,794.42913 225.91041,795.30506 C 225.84297,795.7809 226.2937,795.39436 226.19681,795.42948 C 224.93304,795.88749 224.73288,796.35881 225.39585,795.42316 C 226.37756,793.80071 227.31055,792.15022 228.25705,790.5072 C 229.20038,788.84312 230.1849,787.18622 231.43957,785.73651 C 232.37242,784.63452 233.44561,783.67792 234.5235,782.72428 C 235.57238,781.91272 236.36456,780.86795 237.13283,779.80292 C 237.80365,778.90998 238.56618,778.09053 239.07158,777.08668 C 239.16776,776.8973 239.28862,776.64281 239.3298,776.45629 C 239.42114,776.16176 239.50727,776.03756 239.24217,775.7785 C 238.41534,775.26936 237.37956,775.18421 236.44036,774.99047 C 234.6483,774.61242 232.86878,774.18115 231.1037,773.69281 C 229.7682,773.22283 228.38614,773.07299 226.98135,773.00217 C 225.52051,772.92789 224.05802,772.94607 222.59595,772.93022 C 221.39873,772.92756 220.20066,772.96628 219.00364,772.94413 C 217.78819,772.91806 216.58772,772.93448 215.38231,773.09198 C 214.06293,773.55149 212.71447,773.90288 211.37049,774.2833 C 210.06877,774.72287 208.7199,775.01286 207.42433,775.46901 C 206.87399,775.63588 206.37051,775.92425 205.82934,776.11203 C 205.27204,776.32648 204.66223,776.29569 204.07332,776.27804 C 203.56314,776.2617 203.71497,776.136 203.91374,775.81318 L 203.96223,775.77784 C 204.4698,775.61571 204.88535,775.24456 205.45024,775.26817 C 206.07633,775.20109 206.72567,775.19409 207.31473,774.94949 C 207.84336,774.73674 208.3617,774.49783 208.90377,774.31838 C 210.20144,773.89504 211.52577,773.55831 212.83088,773.15875 C 214.17836,772.76878 215.52534,772.38498 216.8678,771.98189 C 218.07646,771.813 219.29,771.84314 220.50825,771.85061 C 221.69889,771.82609 222.89066,771.85562 224.08154,771.85084 C 225.55416,771.83483 227.02652,771.8537 228.49808,771.91383 C 229.90769,772.00969 231.28872,772.16763 232.62939,772.64475 C 234.39825,773.11218 236.16483,773.58822 237.96299,773.93265 C 238.91794,774.14569 240.04031,774.17973 240.83075,774.80353 C 241.13997,775.11067 241.20191,775.27577 241.0466,775.61339 C 240.97787,775.84755 240.90477,776.09153 240.78434,776.31446 C 240.25198,777.32157 239.55516,778.18893 238.83039,779.06666 C 238.07094,780.14132 237.28627,781.20002 236.24517,782.02524 C 235.13641,782.97214 234.05204,783.94138 233.08781,785.0402 C 231.81862,786.4956 230.80529,788.1308 229.84113,789.80046 C 228.91504,791.46017 227.95473,793.09955 226.98074,794.73152 C 226.47667,795.50315 224.70194,797.4705 224.4094,796.11941 C 224.12605,795.2913 223.89392,794.46295 223.3122,793.77196 C 222.32802,792.28776 221.1638,790.93166 220.13561,789.47788 C 219.02699,788.15585 217.81679,786.92149 216.75848,785.5571 C 215.75357,784.37913 214.49043,783.48195 213.36719,782.42223 C 211.82312,781.05845 210.37567,779.5931 208.92607,778.13027 L 210.28846,777.29371 z" />
    <path
       style="fill:none;fill-opacity:1;stroke:#000000;stroke-width:3;stroke-miterlimit:4;stroke-dasharray:none;stroke-dashoffset:0;stroke-opacity:1"
       id="path3213"
       d="M 218.26392,770.62787 C 218.28753,767.71587 218.29302,764.80337 218.27788,761.89127 C 218.28753,759.75248 218.2991,757.61396 218.19047,755.47762 C 218.09761,753.72945 217.99293,751.98376 217.86314,750.23777 C 217.7065,748.58267 217.52869,746.93029 217.45726,745.26884 C 217.42381,743.92935 217.38468,742.59154 217.3152,741.25306 C 217.1948,739.8191 217.51792,738.41613 217.7861,737.01967 C 218.06725,735.78644 218.12482,734.52249 218.20678,733.26504 C 218.21034,732.25028 218.24876,731.2352 218.2343,730.22045 C 218.1258,729.24381 218.08162,728.26188 217.99099,727.28434 C 217.94455,726.60823 217.95469,725.93198 217.93581,725.25517 C 217.93088,724.67257 217.92314,724.09199 217.93802,723.50914 C 217.93472,722.67267 217.92595,721.83789 217.9395,721.00092 C 217.93441,719.91236 217.93603,718.82424 217.93195,717.7357 C 217.91902,716.5049 217.95048,715.27324 217.92569,714.04254 C 217.91179,712.95198 217.95072,711.86165 217.91629,710.77151 C 217.92062,710.0042 217.92451,709.23678 217.90587,708.46943 C 217.94173,707.69744 217.88386,706.92499 217.93912,706.1542 C 218.0091,704.72145 219.67813,704.01039 220.97423,704.13085 C 222.58935,704.48322 224.17578,704.94948 225.78795,705.31612 C 227.34177,705.70769 228.94453,705.82857 230.54123,705.86948 C 231.84809,705.9112 233.16133,705.8186 234.46493,705.71587 C 235.20157,705.63017 235.59186,705.60096 235.8538,706.37565 C 236.07319,707.97631 235.651,709.60048 235.34333,711.16514 C 234.89253,713.55756 234.15729,715.88094 233.60778,718.2493 C 233.09856,720.57498 232.49959,722.88588 232.12518,725.23825 C 231.81117,727.40057 231.41396,729.54106 230.90616,731.66649 C 230.30841,733.85532 229.60831,736.01252 229.23091,738.25355 C 228.93575,740.27508 228.81832,742.31781 228.61785,744.35033 C 228.42577,746.47369 228.38041,748.60621 228.34093,750.73672 C 228.32564,752.69237 228.28487,754.64758 228.41204,756.6001 C 228.5248,758.42429 228.70153,760.24082 229.07322,762.03129 C 229.38962,763.57351 229.94918,765.05203 230.36413,766.56836 C 230.70876,768.05856 230.89103,769.58751 231.06629,771.10668 C 231.18753,771.43067 231.61875,773.85856 230.13256,773.00984 C 229.89363,772.8734 230.3918,772.52446 230.52142,772.28177 L 230.575,772.25476 C 230.68897,772.37784 231.00758,772.48287 230.91692,772.62401 C 229.6182,774.64563 229.498,772.91011 229.33751,772.01867 C 229.08109,770.5185 229.0174,768.98452 228.66314,767.49795 C 228.18006,765.99697 227.73086,764.48382 227.34596,762.95444 C 227.00339,761.14735 226.82548,759.3226 226.68785,757.48884 C 226.6303,755.5262 226.5775,753.5648 226.63805,751.60081 C 226.66967,749.46025 226.73666,747.31929 226.93854,745.1869 C 227.10746,743.15201 227.29002,741.11653 227.51928,739.08769 C 227.94627,736.8475 228.59038,734.67315 229.2069,732.47912 C 229.78622,730.37229 230.1111,728.22208 230.43484,726.06361 C 230.86705,723.71556 231.39999,721.39098 231.91888,719.06077 C 232.49352,716.69809 233.22056,714.37291 233.66606,711.97935 C 233.96427,710.44548 234.36808,708.86029 234.19223,707.29013 C 233.98006,706.62751 233.52321,706.7988 232.92483,706.84969 C 231.61456,706.91047 230.30662,707.04661 228.99316,706.98523 C 227.39735,706.90414 225.80432,706.7741 224.24906,706.38107 C 222.64811,705.99647 221.0668,705.51689 219.44623,705.22447 C 219.1849,705.21224 218.45781,705.46839 218.66604,705.31001 C 220.80367,703.68409 219.70093,704.50253 219.58292,705.34008 C 219.46354,706.09267 219.57139,706.87296 219.54868,707.63237 C 219.5304,708.40327 219.53369,709.17425 219.53825,709.94508 C 219.5048,711.03845 219.54189,712.1319 219.52886,713.22568 C 219.50453,714.45853 219.53527,715.69228 219.52262,716.92521 C 219.51855,718.01634 219.52016,719.10705 219.51497,720.19819 C 219.52857,721.03499 219.51918,721.86965 219.51475,722.70597 C 219.52876,723.28782 219.51756,723.86717 219.51631,724.44882 C 219.50487,725.12224 219.53719,725.79644 219.5672,726.4688 C 219.59986,727.45702 219.72914,728.43936 219.79486,729.42501 C 219.78353,730.44301 219.82719,731.46224 219.76535,732.47946 C 219.7379,733.74461 219.62406,735.00716 219.38136,736.25074 C 219.0297,737.62341 218.79926,739.0397 218.84334,740.46073 C 218.96431,741.79877 218.92761,743.13914 218.98567,744.48034 C 219.08208,746.1414 219.18457,747.80094 219.37238,749.45534 C 219.48921,751.20777 219.62283,752.95892 219.66768,754.71546 C 219.77678,756.85852 219.73886,759.00051 219.74092,761.14581 C 219.72589,764.05317 219.73111,766.96093 219.75489,769.86819 L 218.26392,770.62787 z" />
    <text
       xml:space="preserve"
       style="font-size:24px;font-style:normal;font-variant:normal;font-weight:normal;font-stretch:normal;text-align:start;line-height:125%;writing-mode:lr-tb;text-anchor:start;fill:#000000;fill-opacity:1;stroke:none;stroke-width:1px;stroke-linecap:butt;stroke-linejoin:miter;stroke-opacity:1;font-family:Bitstream Vera Sans;-inkscape-font-specification:Bitstream Vera Sans"
       x="250.04388"
       y="717.11865"
       id="text3215"
       sodipodi:linespacing="125%"><tspan
         sodipodi:role="line"
         id="tspan3217"
         x="250.04388"
         y="717.11865">Markør</tspan></text>
    <text
       xml:space="preserve"
       style="font-size:24px;font-style:normal;font-variant:normal;font-weight:normal;font-stretch:normal;text-align:start;line-height:125%;writing-mode:lr-tb;text-anchor:start;fill:#000000;fill-opacity:1;stroke:none;stroke-width:1px;stroke-linecap:butt;stroke-linejoin:miter;stroke-opacity:1;font-family:Bitstream Vera Sans;-inkscape-font-specification:Bitstream Vera Sans"
       x="246"
       y="976.36218"
       id="text3219"
       sodipodi:linespacing="125%"><tspan
         sodipodi:role="line"
         id="tspan3221"
         x="246"
         y="976.36218">Datastrøm</tspan></text>
    <path
       style="fill:none;fill-opacity:1;stroke:#000000;stroke-width:3;stroke-miterlimit:4;stroke-dasharray:none;stroke-dashoffset:0;stroke-opacity:1"
       id="path3223"
       d="M 198.35107,264.28573 C 196.08773,265.86552 193.59905,267.02557 191.00072,267.91144 C 189.55982,268.33765 188.0666,268.34416 186.57943,268.36986 C 184.79738,268.43714 183.02281,268.32204 181.26516,268.02392 C 179.37161,267.69469 177.46067,267.4848 175.56463,267.17306 C 173.22216,266.65821 170.87355,266.17665 168.51461,265.74405 C 166.33133,265.32256 164.20555,264.66308 162.00694,264.32266 C 160.07817,264.10781 158.147,263.94033 156.22732,263.64961 C 154.78824,263.48894 153.36329,263.23107 151.92905,263.03109 C 150.50591,262.86932 149.0973,262.62372 147.68212,262.40767 C 145.92117,262.13611 144.15839,262.42568 142.40075,262.56548 C 140.03824,262.75903 137.6615,262.69131 135.30123,262.50373 C 132.78725,262.2172 130.26312,262.04265 127.73826,261.88711 C 124.79382,261.75266 121.85019,261.63629 118.91211,261.39661 C 116.56029,261.2048 114.20591,261.00235 111.8704,260.65981 C 110.38783,260.49196 108.89797,260.48564 107.40904,260.44574 C 106.05414,260.48248 104.70793,260.65877 103.36206,260.80821 C 102.56426,260.76058 101.92782,261.16681 102.67365,260.21116 L 102.72195,260.17557 C 103.58503,259.718 104.38379,259.32549 105.38388,259.30858 C 106.72615,259.19276 108.05887,258.95986 109.41098,258.99592 C 110.89187,259.0022 112.38037,259.06827 113.84911,259.25954 C 116.19002,259.50521 118.51781,259.87682 120.87208,259.99648 C 123.80874,260.22894 126.75216,260.34016 129.69398,260.48522 C 132.2117,260.65254 134.72875,260.8244 137.23533,261.11981 C 139.58942,261.27434 141.95237,261.37811 144.30678,261.15626 C 146.0635,261.00264 147.84814,260.73687 149.6012,261.05685 C 151.01002,261.26737 152.41213,261.51146 153.82562,261.68898 C 155.25249,261.84885 156.66106,262.14926 158.0845,262.33827 C 160.00074,262.5703 161.91433,262.82399 163.83263,263.0401 C 166.02914,263.40489 168.15632,264.05626 170.34408,264.46801 C 172.67957,264.95242 175.02534,265.38708 177.35086,265.9203 C 179.23881,266.2463 181.14443,266.45277 183.03232,266.78006 C 184.78856,267.01391 186.54311,267.19279 188.31957,267.10131 C 189.79532,267.07953 191.28171,267.0379 192.70212,266.59014 C 193.28879,266.40194 196.25375,265.06014 196.42187,265.05295 C 196.73327,265.03963 195.93177,265.46666 195.63272,265.55452 C 195.3397,265.6406 196.14628,265.22383 196.40305,265.05848 L 198.35107,264.28573 z"
       transform="translate(40.135285,698.88428)" />
    <path
       style="fill:none;fill-opacity:1;stroke:#000000;stroke-width:3;stroke-miterlimit:4;stroke-dasharray:none;stroke-dashoffset:0;stroke-opacity:1"
       id="path3225"
       d="M 110.71783,254.43163 C 110.95816,254.51374 113.32136,253.34685 113.3502,253.36065 C 113.60959,253.48472 113.16671,253.94758 112.93368,254.11601 C 111.56962,255.03987 110.45632,256.23361 109.41482,257.49613 C 108.78912,258.36885 108.1542,259.23564 107.65594,260.18916 C 107.45166,260.59972 107.24177,260.99043 106.9455,261.34283 C 106.46054,261.85133 105.88721,262.25743 105.34577,262.70026 C 104.44175,263.36532 103.41754,263.86335 102.45072,264.42002 C 102.71555,264.26418 102.08994,264.63848 102.17654,264.5782 C 104.89199,262.68812 103.93053,262.87238 106.3196,263.37438 C 107.94377,263.71247 109.50523,264.2603 111.07266,264.79284 C 112.47711,265.31566 113.84813,265.90972 115.1916,266.57242 C 116.136,267.01101 116.75123,267.69572 117.24242,268.58254 C 117.61373,269.40687 119.02616,268.91055 115.30693,269.70341 C 115.16295,269.7341 115.34982,269.41159 115.35606,269.26452 C 115.38016,268.69641 115.34448,268.69608 115.23565,268.12084 C 115.03203,266.93764 114.4242,265.91851 113.91696,264.85474 C 113.68354,264.39256 113.25218,264.09832 112.92276,263.72255 C 111.93238,263.44122 110.86937,263.43082 109.84485,263.41659 C 108.46934,263.3721 107.28666,262.82665 106.09281,262.20021 C 105.40523,261.88318 104.9342,261.27149 104.31679,260.86254 C 103.8428,260.61988 103.30531,260.60888 102.80449,260.4687 C 101.69188,259.78607 104.8156,258.77541 105.81694,258.35966 C 109.68471,256.36634 107.33719,257.44088 112.05558,254.93604 C 113.70519,254.03107 115.37333,253.17044 117.13465,252.50492 C 118.31597,252.32902 123.22861,249.80637 118.68516,252.28922 C 117.85436,252.33834 116.63965,252.54689 115.69547,252.71125 C 115.41246,252.78809 115.12595,252.85304 114.84645,252.94179 C 114.65167,253.00364 113.34853,253.48018 113.12935,253.58665 C 112.85187,253.72143 112.05453,254.19204 112.32904,254.05132 C 113.82203,253.28596 114.39305,252.79168 113.19378,253.71919 C 112.11164,254.52479 111.4422,255.7017 110.75999,256.83643 C 110.32531,257.50541 109.85082,258.15686 109.29321,258.72913 C 108.45359,259.43916 107.20921,259.99929 106.3791,260.4735 C 105.75302,260.83115 107.62662,259.75001 108.25607,259.39833 C 108.44083,259.29511 107.90241,259.63091 107.72741,259.74994 C 106.48137,260.6635 105.11214,261.37991 103.77377,262.14899 C 102.73759,262.81813 101.54187,262.58221 105.89722,261.04748 C 106.13184,260.96481 106.37479,261.18854 106.61788,261.24137 C 106.92224,261.30751 107.23129,261.34983 107.53799,261.40406 C 110.29067,261.79907 113.00236,262.41172 115.6764,263.16893 C 117.63955,263.80711 119.45404,264.59591 120.86332,266.12614 C 121.5181,267.25273 121.5545,267.20372 120.08234,267.43701 L 120.1344,267.40717 C 119.11151,268.56693 119.38004,268.35234 118.64511,267.46197 C 117.40016,265.88836 115.38631,265.23891 113.54958,264.62373 C 110.88593,263.82275 108.15593,263.27438 105.40052,262.89593 C 104.44442,262.69782 103.70297,262.55128 103.7214,262.50938 C 104.2043,261.41144 104.90512,260.99531 105.76593,260.53784 C 101.76602,262.84232 104.48188,261.35412 105.33686,260.68689 C 106.32992,260.02122 107.31498,259.49495 108.38153,258.86309 C 109.02921,258.47938 107.07946,259.61904 106.42961,259.99903 C 106.26072,260.09778 107.16139,259.58282 106.94209,259.71292 C 107.45888,259.12647 108.02751,258.57039 108.40206,257.87514 C 109.13875,256.75888 109.73153,255.51758 110.80679,254.67496 C 112.82996,253.05441 115.1847,251.76196 117.72111,251.18391 C 118.5509,251.03099 120.64252,250.30174 121.06386,251.32738 C 119.05008,252.55621 117.36859,253.44737 115.12516,254.0835 C 113.38792,254.79582 111.71461,255.6361 110.06669,256.53622 C 109.67859,256.7461 109.34323,257.14784 108.90238,257.16588 C 108.50379,257.18218 110.27091,256.34566 109.92369,256.54207 C 107.89493,257.68962 105.91649,258.94941 103.8061,259.94884 C 102.52672,260.51356 103.11946,260.2812 105.07241,259.09571 C 105.15176,259.04754 104.51689,259.08299 104.89424,259.00299 C 105.44382,259.0494 105.98142,259.27146 106.48351,259.48248 C 107.06874,259.91403 107.53405,260.51967 108.22628,260.80607 C 109.38788,261.45193 110.58787,261.92293 111.94244,261.9057 C 112.98135,261.97842 114.14698,261.89057 115.09176,262.37868 C 115.50835,262.6842 115.88332,263.13781 116.1201,263.58994 C 116.75144,264.61371 117.17579,265.76337 117.50487,266.91591 C 117.63219,267.74822 117.89214,273.54878 115.02153,269.84664 C 114.63474,268.97021 113.90936,268.38205 113.05144,267.97722 C 111.74131,267.27574 110.32987,266.74838 108.93856,266.23357 C 107.40081,265.6494 105.82775,265.1665 104.2149,264.83548 C 102.40112,264.42445 100.90653,264.77074 104.41271,262.83311 C 100.86006,264.88355 102.23123,264.15246 102.97634,263.64276 C 103.55711,263.2358 104.10039,262.77526 104.63986,262.3162 C 104.9418,261.98498 105.17511,261.63272 105.35259,261.2199 C 105.9039,260.27033 106.46207,259.32365 107.15272,258.46474 C 108.13859,257.14763 109.29355,255.9769 110.63825,255.02238 C 110.86086,254.86609 111.47997,254.61643 111.44272,254.88586 C 111.44178,254.89268 109.17076,255.79069 108.88248,255.86869 L 110.71783,254.43163 z"
       transform="translate(40.135285,698.88428)" />
  </g>
</svg>
