<?xml version="1.0" encoding="UTF-8" standalone="no"?>
<!-- Created with Inkscape (http://www.inkscape.org/) -->
<svg
   xmlns:dc="http://purl.org/dc/elements/1.1/"
   xmlns:cc="http://creativecommons.org/ns#"
   xmlns:rdf="http://www.w3.org/1999/02/22-rdf-syntax-ns#"
   xmlns:svg="http://www.w3.org/2000/svg"
   xmlns="http://www.w3.org/2000/svg"
   xmlns:xlink="http://www.w3.org/1999/xlink"
   xmlns:sodipodi="http://sodipodi.sourceforge.net/DTD/sodipodi-0.dtd"
   xmlns:inkscape="http://www.inkscape.org/namespaces/inkscape"
   width="193.07222"
   height="454.59286"
   id="svg2"
   sodipodi:version="0.32"
   inkscape:version="0.46"
   sodipodi:docname="motorstyring-afbrudt-afvikling-hastighed.svg"
   inkscape:output_extension="org.inkscape.output.svg.inkscape"
   version="1.0">
  <defs
     id="defs4">
    <linearGradient
       id="linearGradient3167">
      <stop
         style="stop-color:#4b91cc;stop-opacity:1;"
         offset="0"
         id="stop3169" />
      <stop
         id="stop3175"
         offset="1"
         style="stop-color:#ffffff;stop-opacity:0;" />
    </linearGradient>
    <inkscape:perspective
       sodipodi:type="inkscape:persp3d"
       inkscape:vp_x="0 : 526.18109 : 1"
       inkscape:vp_y="0 : 1000 : 0"
       inkscape:vp_z="744.09448 : 526.18109 : 1"
       inkscape:persp3d-origin="372.04724 : 350.78739 : 1"
       id="perspective10" />
    <linearGradient
       inkscape:collect="always"
       xlink:href="#linearGradient3167"
       id="linearGradient3173"
       x1="136.0627"
       y1="625.31049"
       x2="161.73668"
       y2="625.31049"
       gradientUnits="userSpaceOnUse"
       gradientTransform="translate(-87.460815,15.032328)" />
    <linearGradient
       inkscape:collect="always"
       xlink:href="#linearGradient3167"
       id="linearGradient3187"
       gradientUnits="userSpaceOnUse"
       gradientTransform="translate(-63.015675,14.206852)"
       x1="136.0627"
       y1="625.31049"
       x2="161.73668"
       y2="625.31049" />
    <linearGradient
       inkscape:collect="always"
       xlink:href="#linearGradient3167"
       id="linearGradient3191"
       gradientUnits="userSpaceOnUse"
       gradientTransform="translate(-36.95298,13.385732)"
       x1="136.0627"
       y1="625.31049"
       x2="161.73668"
       y2="625.31049" />
    <linearGradient
       inkscape:collect="always"
       xlink:href="#linearGradient3167"
       id="linearGradient3195"
       gradientUnits="userSpaceOnUse"
       gradientTransform="translate(-10.589343,13.053835)"
       x1="136.0627"
       y1="625.31049"
       x2="161.73668"
       y2="625.31049" />
    <linearGradient
       inkscape:collect="always"
       xlink:href="#linearGradient3167"
       id="linearGradient3199"
       gradientUnits="userSpaceOnUse"
       gradientTransform="translate(13.661441,10.539827)"
       x1="136.0627"
       y1="625.31049"
       x2="161.73668"
       y2="625.31049" />
    <linearGradient
       inkscape:collect="always"
       xlink:href="#linearGradient3167"
       id="linearGradient3203"
       gradientUnits="userSpaceOnUse"
       gradientTransform="translate(39.003133,11.96224)"
       x1="136.0627"
       y1="625.31049"
       x2="161.73668"
       y2="625.31049" />
    <linearGradient
       inkscape:collect="always"
       xlink:href="#linearGradient3167"
       id="linearGradient3235"
       gradientUnits="userSpaceOnUse"
       gradientTransform="translate(-85.929739,167.96227)"
       x1="136.0627"
       y1="625.31049"
       x2="161.73668"
       y2="625.31049" />
    <linearGradient
       inkscape:collect="always"
       xlink:href="#linearGradient3167"
       id="linearGradient3239"
       gradientUnits="userSpaceOnUse"
       gradientTransform="translate(-35.421904,166.31567)"
       x1="136.0627"
       y1="625.31049"
       x2="161.73668"
       y2="625.31049" />
    <linearGradient
       inkscape:collect="always"
       xlink:href="#linearGradient3167"
       id="linearGradient3243"
       gradientUnits="userSpaceOnUse"
       gradientTransform="translate(15.192521,163.46977)"
       x1="136.0627"
       y1="625.31049"
       x2="161.73668"
       y2="625.31049" />
    <linearGradient
       inkscape:collect="always"
       xlink:href="#linearGradient3167"
       id="linearGradient3273"
       gradientUnits="userSpaceOnUse"
       gradientTransform="translate(-85.368611,319.23274)"
       x1="136.0627"
       y1="625.31049"
       x2="161.73668"
       y2="625.31049" />
    <linearGradient
       inkscape:collect="always"
       xlink:href="#linearGradient3167"
       id="linearGradient3277"
       gradientUnits="userSpaceOnUse"
       gradientTransform="translate(-32.321591,318.07105)"
       x1="136.0627"
       y1="625.31049"
       x2="161.73668"
       y2="625.31049" />
    <linearGradient
       inkscape:collect="always"
       xlink:href="#linearGradient3167"
       id="linearGradient3279"
       gradientUnits="userSpaceOnUse"
       gradientTransform="translate(9.5592875,316.52688)"
       x1="136.0627"
       y1="625.31049"
       x2="161.73668"
       y2="625.31049" />
    <linearGradient
       inkscape:collect="always"
       xlink:href="#linearGradient3167"
       id="linearGradient3283"
       gradientUnits="userSpaceOnUse"
       gradientTransform="translate(41.095337,316.16265)"
       x1="136.0627"
       y1="625.31049"
       x2="161.73668"
       y2="625.31049" />
  </defs>
  <sodipodi:namedview
     id="base"
     pagecolor="#ffffff"
     bordercolor="#666666"
     borderopacity="1.0"
     gridtolerance="10000"
     guidetolerance="10"
     objecttolerance="10"
     inkscape:pageopacity="0.0"
     inkscape:pageshadow="2"
     inkscape:zoom="1"
     inkscape:cx="182"
     inkscape:cy="240"
     inkscape:document-units="px"
     inkscape:current-layer="layer1"
     showgrid="false"
     inkscape:window-width="1440"
     inkscape:window-height="827"
     inkscape:window-x="0"
     inkscape:window-y="25" />
  <metadata
     id="metadata7">
    <rdf:RDF>
      <cc:Work
         rdf:about="">
        <dc:format>image/svg+xml</dc:format>
        <dc:type
           rdf:resource="http://purl.org/dc/dcmitype/StillImage" />
      </cc:Work>
    </rdf:RDF>
  </metadata>
  <g
     inkscape:label="Layer 1"
     inkscape:groupmode="layer"
     id="layer1"
     transform="translate(-39.73754,-555.15197)">
    <path
       style="fill:#000000"
       id="path2383"
       d="M 45.018806,569.73362 C 45.363895,575.07009 45.725706,580.4051 46.076998,585.74138 C 46.618722,591.72679 47.344611,597.69154 48.026103,603.66157 C 48.535621,607.7592 49.051712,611.86016 49.195664,615.98903 C 49.233504,619.03816 49.56457,622.07275 49.695142,625.11577 C 49.828642,627.39193 49.939555,629.67468 49.918474,631.95557 C 49.917817,634.03704 49.980451,636.11489 50.217428,638.18347 C 50.589381,640.17771 50.854943,642.18841 50.947121,644.21503 C 51.041911,645.59144 50.73263,646.91791 50.540906,648.26139 C 50.407229,648.95275 50.262279,649.63547 50.128682,650.326 C 50.018105,651.11487 49.938851,651.91167 49.974335,652.70854 C 49.901776,653.74132 49.945067,654.76755 49.933738,655.80102 C 49.919787,657.23427 49.927587,658.66825 49.933686,660.10211 C 49.934481,662.02559 49.921196,663.94854 49.964357,665.87222 C 49.968679,667.48176 50.324157,669.05329 50.488486,670.64658 C 50.745184,671.88777 50.956135,673.14175 51.066496,674.40467 C 51.265966,675.90076 51.275399,677.40923 51.356092,678.9144 C 51.496587,680.22412 51.656749,681.52657 51.795382,682.83668 C 51.861938,683.7489 51.890899,684.65727 51.890427,685.57129 C 51.835501,686.55675 51.947985,686.96229 52.831613,687.46268 C 54.36901,688.24851 56.030783,688.51076 57.738163,688.505 C 60.228673,688.35616 62.715804,688.10648 65.208015,687.93813 C 67.667433,687.83409 70.126026,687.76587 72.587267,687.81502 C 75.10306,687.84537 77.60421,688.1206 80.111144,688.31094 C 82.978345,688.69823 85.857379,688.58585 88.726424,688.31397 C 92.560654,687.76245 96.399315,687.30027 100.26445,687.03421 C 103.98981,686.83588 107.72181,686.78202 111.45186,686.80382 C 115.01156,686.76317 118.5651,686.52769 122.12285,686.44018 C 125.45194,686.344 128.78418,686.27818 132.11467,686.34959 C 135.36096,686.449 138.60338,686.58314 141.85244,686.63237 C 145.23364,686.61631 148.61458,686.53922 151.99601,686.56354 C 156.33423,686.43809 160.67081,686.25753 165.00717,686.07301 C 171.52103,685.81077 178.04,685.71221 184.55667,685.54215 C 189.00657,685.42346 193.45809,685.39208 197.90857,685.31483 C 199.54423,685.25865 201.18784,685.35228 202.8217,685.2779 C 204.43771,685.29373 206.05418,685.30866 207.67164,685.29886 C 209.36208,685.36703 211.11405,685.16366 212.77907,685.54257 C 212.88996,685.56168 213.03234,685.52018 213.11173,685.59992 C 213.16211,685.65052 213.09888,685.76718 213.03552,685.80012 C 212.16849,686.25086 211.34423,686.92808 210.3718,687.02433 C 210.05395,687.05579 210.35333,686.38579 210.3441,686.06653 L 210.42848,686.01285 C 210.90121,686.03611 211.93967,685.61855 211.84668,686.08263 C 211.64244,687.10185 210.32928,688.08049 209.27103,688.05367 C 207.49984,688.12957 205.72088,687.91535 203.94736,688.00459 C 202.31267,687.9939 200.67899,688.00868 199.04562,688.02095 C 197.4372,687.93436 195.81529,688.05151 194.20486,688.01015 C 189.78269,688.00127 185.36028,688.09253 180.93922,688.18325 C 174.43852,688.31584 167.9361,688.39813 161.4398,688.68863 C 157.0857,688.88223 152.73194,689.15652 148.37329,689.19854 C 144.99758,689.25721 141.62091,689.24738 138.24511,689.25109 C 134.99866,689.27349 131.76034,689.05733 128.51627,688.95631 C 125.18388,688.93431 121.85271,688.98803 118.5218,689.07568 C 114.98083,689.23401 111.43652,689.38865 107.89147,689.39266 C 104.16075,689.44189 100.42616,689.41787 96.700961,689.66109 C 92.839785,689.93034 89.002597,690.39422 85.17192,690.94463 C 82.274611,691.18198 79.378399,691.21457 76.483668,690.89639 C 74.00391,690.63063 71.513416,690.48549 69.022447,690.39485 C 66.569081,690.35217 64.110936,690.41068 61.661093,690.54719 C 59.157762,690.67266 56.670821,690.97289 54.167055,691.08094 C 52.435909,690.95396 50.760208,690.6522 49.226626,689.78715 C 48.29587,689.16206 47.99222,688.60058 48.138218,687.48748 C 48.121143,686.59268 48.108709,685.69337 48.017308,684.80328 C 47.926808,683.48479 47.682702,682.18188 47.581042,680.86802 C 47.472152,679.37234 47.496065,677.87025 47.308291,676.38009 C 47.096027,675.13169 46.98201,673.86844 46.751975,672.62341 C 46.420331,671.0421 46.233639,669.43209 46.178413,667.81745 C 46.091157,665.8924 46.165099,663.96112 46.141091,662.03462 C 46.146622,660.60156 46.153622,659.16829 46.137086,657.73586 C 46.12417,656.71022 46.162659,655.69241 46.11236,654.66658 C 46.178185,653.84301 46.145613,653.02169 46.275288,652.20134 C 46.398239,651.50814 46.555225,650.83724 46.639236,650.13651 C 47.048062,648.87888 47.13549,647.49832 47.108544,646.18594 C 47.075036,644.16133 46.774508,642.16371 46.431859,640.1706 C 46.161798,638.08512 46.093284,635.98629 46.14258,633.88416 C 46.075946,631.60956 46.109508,629.33234 45.938568,627.06109 C 45.665833,624.01469 45.572415,620.95431 45.492247,617.89826 C 45.242371,613.77181 44.966244,609.65207 44.428862,605.54869 C 43.681109,599.56364 43.071007,593.55876 42.598037,587.5459 C 42.173361,582.20319 41.978036,576.84893 41.598944,571.50327 L 45.018806,569.73362 z" />
    <path
       style="fill:#000000"
       id="path2385"
       d="M 207.79556,682.23672 C 209.74452,683.15455 211.53204,684.37668 213.43647,685.36925 C 214.1953,685.89214 214.35181,686.62691 214.59051,687.45006 C 215.23408,690.16419 213.72587,689.59657 210.371,691.48679 C 208.33775,692.24316 206.22964,692.7996 204.09268,693.16802 C 203.57599,693.08858 200.76515,693.96767 200.47111,693.08956 C 200.4054,692.89333 200.58183,692.69077 200.63719,692.49137 L 200.71781,692.43221 C 202.83023,691.52635 204.97661,691.03147 207.26169,690.77029 C 209.45222,690.28933 211.6418,689.72437 213.70459,688.82965 C 212.63977,689.45774 211.55265,690.04948 210.51013,690.71392 C 210.46556,690.74233 211.01929,690.64091 211.03689,690.5034 C 211.07226,690.22712 210.77278,689.80162 210.76631,689.52195 C 210.59832,688.78378 210.47525,688.15825 209.76998,687.74038 C 208.0255,686.52308 206.08645,685.56747 204.19424,684.60573 L 207.79556,682.23672 z" />
    <path
       style="fill:#000000"
       id="path2387"
       d="M 225.99001,680.51617 C 224.98669,684.88302 224.46165,689.3409 224.15668,693.80566 C 224.12821,696.64489 224.28211,699.49136 226.15822,701.74137 C 227.39998,702.66392 228.94584,703.43429 230.52576,703.19869 C 228.68212,704.38694 228.70404,704.40422 230.50178,703.11845 L 230.63964,703.06073 C 230.85448,704.59071 230.82285,703.41401 227.85824,705.23657 C 225.82571,705.84165 223.79833,705.59383 222.16022,704.14354 C 220.19107,701.80904 220.01783,698.71242 220.23548,695.76776 C 220.5864,691.24627 221.25961,686.76155 222.20984,682.32633 L 225.99001,680.51617 z" />
    <path
       style="fill:#000000"
       id="path2389"
       d="M 225.71283,692.86444 C 224.02515,692.21771 221.45344,692.31245 219.96771,691.2517 C 219.6843,691.04936 219.57184,690.67869 219.3739,690.39218 L 219.45575,690.33474 C 220.24003,690.2106 221.01653,690.01854 221.80858,689.96232 C 224.13744,689.79701 226.4556,690.45412 228.74251,690.75974 L 225.71283,692.86444 z" />
    <path
       style="fill:#000000"
       id="path2391"
       d="M 47.768295,574.79761 C 45.916399,573.83241 44.149064,572.73131 42.537167,571.40189 C 42.210992,570.93449 41.568196,570.59479 41.402238,570.02083 C 41.274452,569.89404 41.260781,569.73991 41.249266,569.56602 C 41.325051,569.55458 41.175291,569.40911 41.231088,569.38859 C 45.323184,567.88374 44.682226,567.55328 44.146361,570.30772 C 43.908747,571.49106 43.537684,572.64289 43.273965,573.81987 C 43.008872,574.90691 42.312448,575.07824 41.315205,575.58057 L 41.224798,575.62331 C 40.341372,576.01445 39.466065,576.68977 39.816801,575.46539 C 40.189023,574.32619 40.450144,573.146 40.698731,571.97647 C 41.379629,568.88522 40.456182,570.2187 44.669713,567.65671 C 44.728928,567.6207 44.555777,567.91845 44.633668,567.86147 C 44.607097,568.041 44.579365,568.18314 44.502445,568.23835 C 44.868499,568.65475 45.135703,569.16492 45.601362,569.49654 C 47.097775,570.89832 48.967029,571.86973 50.77188,572.81045 L 47.768295,574.79761 z" />
    <path
       style="fill:#000000"
       id="path2393"
       d="M 56.302059,557.07822 C 57.556527,559.46835 59.117794,561.672 60.887694,563.70426 C 62.077397,564.9069 63.293772,566.09739 64.373545,567.40171 C 64.971095,567.98054 65.369666,568.63335 65.71625,569.37404 C 66.712786,571.00727 61.36263,573.85438 62.124494,570.74617 C 62.457104,568.57194 62.282795,566.37264 62.401189,564.18937 C 62.317847,562.82207 62.45169,561.47896 62.712284,560.1424 C 62.953178,559.11411 63.294807,558.12394 63.666614,557.13951 C 64.151276,556.41898 65.077727,556.2002 65.767546,555.73564 L 65.858184,555.6934 C 66.191679,555.56446 67.388585,554.87468 67.625966,555.27602 C 67.368771,556.24113 67.092596,557.20027 66.829019,558.16523 C 66.461033,559.4657 66.424486,560.80269 66.411549,562.15017 C 66.49927,564.35311 66.334633,566.58552 66.171886,568.7799 C 65.860969,570.96014 61.968082,573.90421 61.765935,571.56225 C 61.581668,570.82575 61.006245,570.28696 60.556485,569.70101 C 59.434896,568.44027 58.319693,567.1793 57.153847,565.95985 C 55.335472,563.91592 53.927527,561.60487 52.500149,559.27494 L 56.302059,557.07822 z" />
    <rect
       style="fill:url(#linearGradient3173);fill-opacity:1"
       id="rect2395"
       width="25.673981"
       height="96.012932"
       x="48.601883"
       y="592.33636" />
    <rect
       style="fill:url(#linearGradient3187);fill-opacity:1"
       id="rect3185"
       width="25.673981"
       height="96.012932"
       x="73.04702"
       y="591.51086" />
    <rect
       style="fill:url(#linearGradient3191);fill-opacity:1"
       id="rect3189"
       width="25.673981"
       height="96.012932"
       x="99.109718"
       y="590.68976" />
    <rect
       style="fill:url(#linearGradient3195);fill-opacity:1"
       id="rect3193"
       width="25.673981"
       height="96.012932"
       x="125.47336"
       y="590.35785" />
    <rect
       style="fill:url(#linearGradient3199);fill-opacity:1"
       id="rect3197"
       width="25.673981"
       height="96.012932"
       x="149.72414"
       y="587.84387" />
    <rect
       style="fill:url(#linearGradient3203);fill-opacity:1"
       id="rect3201"
       width="25.673981"
       height="96.012932"
       x="175.06583"
       y="589.2663" />
    <path
       style="fill:#000080"
       id="path3207"
       d="M 51.734366,612.5023 C 54.01445,612.94222 56.321444,613.25463 58.634512,613.45639 C 60.530202,613.72074 62.437225,613.85497 64.348568,613.93312 C 66.054667,613.91048 67.751825,614.0668 69.444001,614.26569 C 71.187081,614.39236 72.937047,614.39334 74.679059,614.52959 C 76.806416,614.66051 78.909941,615.03893 81.01132,615.38211 C 83.307338,615.77703 85.623003,616.02831 87.928902,616.35329 C 90.314348,616.71205 92.687397,617.14559 95.074723,617.49262 C 97.136406,617.82048 99.203452,618.09033 101.25972,618.45334 C 102.88992,618.63235 104.49067,619.00042 106.12508,619.14383 C 107.6735,619.30551 109.23175,619.30946 110.78731,619.31146 C 112.90256,619.31222 115.02172,619.38651 117.13569,619.27514 C 119.1788,619.18583 121.2115,618.85069 123.19782,618.37282 C 125.04876,617.89075 126.89011,617.37353 128.74605,616.91036 C 130.89188,616.35342 133.07121,615.93125 135.27713,615.71101 C 139.62658,615.44331 143.99103,615.46767 148.34716,615.50462 C 151.88631,615.48077 155.40623,615.86178 158.92476,616.18237 C 161.09227,616.39304 163.27006,616.37906 165.44525,616.42347 C 168.05661,616.40538 170.66789,616.44475 173.27915,616.43423 C 175.80279,616.50626 178.31078,616.30366 180.82089,616.08062 C 183.53568,615.79608 186.25943,615.61203 188.97801,615.36804 C 190.8871,615.21796 192.78613,614.97446 194.68309,614.71756 C 195.78516,614.543 196.895,614.4933 198.00869,614.49125 C 199.39599,614.50337 200.78585,614.42528 202.17293,614.48833 C 203.79944,614.40536 203.15403,614.82805 202.31384,615.58671 C 202.22857,615.66615 202.1433,615.7456 202.05803,615.82504 L 201.97712,615.8838 C 201.84376,615.96312 201.7104,616.04244 201.57704,616.12177 C 200.57395,616.73086 199.6455,617.35659 198.42043,617.21397 C 197.0277,617.26722 195.63448,617.19619 194.24164,617.24099 C 193.13003,617.28775 192.02239,617.3743 190.9204,617.53144 C 189.03022,617.80017 187.12689,617.96571 185.22675,618.14491 C 182.50794,618.38688 179.78353,618.56612 177.06911,618.85871 C 174.55975,619.09154 172.04833,619.25863 169.52581,619.16166 C 166.90689,619.15529 164.28763,619.20521 161.66879,619.16254 C 159.46347,619.17071 157.25638,619.13108 155.05958,618.92818 C 151.59892,618.50148 148.12275,618.23796 144.63439,618.19821 C 140.26011,618.17524 135.87228,618.15828 131.5101,618.51508 C 129.31642,618.80523 127.14058,619.18284 125.00458,619.77372 C 123.14956,620.25433 121.30629,620.77988 119.44316,621.22856 C 117.41431,621.64379 115.37053,621.98923 113.29714,622.08025 C 111.17899,622.0828 109.06123,622.094 106.94402,622.09956 C 105.373,622.07889 103.8,622.07867 102.23663,621.90394 C 100.62294,621.68697 99.012646,621.44575 97.409571,621.16023 C 95.330191,620.87362 93.265857,620.49371 91.183773,620.22521 C 88.819563,619.80144 86.437784,619.47322 84.06833,619.07892 C 81.755596,618.77345 79.43665,618.49349 77.137095,618.10456 C 75.0406,617.77978 72.945993,617.42473 70.825855,617.29759 C 69.088034,617.24411 67.343713,617.18321 65.615161,616.99619 C 63.91102,616.89122 62.212604,616.70239 60.502508,616.70319 C 58.590911,616.62297 56.692683,616.43751 54.796841,616.17853 C 52.510389,615.85224 50.204902,615.64279 47.947835,615.13278 L 51.734366,612.5023 z" />
    <path
       style="fill:#000000"
       id="path3209"
       d="M 46.549881,722.66356 C 46.894971,728.00003 47.256781,733.33504 47.608071,738.67132 C 48.149801,744.65673 48.875691,750.62148 49.557181,756.59151 C 50.066701,760.68914 50.582791,764.7901 50.726741,768.91897 C 50.764581,771.9681 51.095651,775.00269 51.226221,778.04571 C 51.359721,780.32187 51.470631,782.60462 51.449551,784.88551 C 51.448891,786.96698 51.511531,789.04483 51.748501,791.11341 C 52.120461,793.10765 52.386021,795.11835 52.478201,797.14497 C 52.572991,798.52138 52.263711,799.84785 52.071981,801.19133 C 51.938301,801.88269 51.793351,802.56541 51.659761,803.25594 C 51.549181,804.04481 51.469931,804.84161 51.505411,805.63848 C 51.432851,806.67126 51.476141,807.69749 51.464811,808.73096 C 51.450861,810.16421 51.458661,811.59819 51.464761,813.03205 C 51.465561,814.95553 51.452271,816.87848 51.495431,818.80216 C 51.499751,820.4117 51.855231,821.98323 52.019561,823.57652 C 52.276261,824.81771 52.487211,826.07169 52.597571,827.33461 C 52.797041,828.8307 52.806471,830.33917 52.887171,831.84434 C 53.027661,833.15406 53.187821,834.45651 53.326461,835.76662 C 53.393011,836.67884 53.421971,837.58721 53.421501,838.50123 C 53.366581,839.48669 53.479061,839.89223 54.362691,840.39262 C 55.900091,841.17845 57.561861,841.4407 59.269241,841.43494 C 61.759751,841.2861 64.246881,841.03642 66.739091,840.86807 C 69.198511,840.76403 71.657101,840.69581 74.118341,840.74496 C 76.634141,840.77531 79.135291,841.05054 81.642221,841.24088 C 84.509421,841.62817 87.388451,841.51579 90.257501,841.24391 C 94.091731,840.69239 97.930391,840.23021 101.79553,839.96415 C 105.52089,839.76582 109.25289,839.71196 112.98294,839.73376 C 116.54264,839.69311 120.09618,839.45763 123.65393,839.37012 C 126.98302,839.27394 130.31526,839.20812 133.64575,839.27953 C 136.89204,839.37894 140.13446,839.51308 143.38352,839.56231 C 146.76472,839.54625 150.14566,839.46916 153.52709,839.49348 C 157.86531,839.36803 162.20189,839.18747 166.53825,839.00295 C 173.05211,838.74071 179.57108,838.64215 186.08775,838.47209 C 190.53765,838.3534 194.98917,838.32202 199.43965,838.24477 C 201.07531,838.18859 202.71892,838.28222 204.35278,838.20784 C 205.96879,838.22367 207.58526,838.2386 209.20272,838.2288 C 210.89316,838.29697 212.64513,838.0936 214.31015,838.47251 C 214.42104,838.49162 214.56342,838.45012 214.64281,838.52986 C 214.69319,838.58046 214.62996,838.69712 214.5666,838.73006 C 213.69957,839.1808 212.87531,839.85802 211.90288,839.95427 C 211.58503,839.98573 211.88441,839.31573 211.87518,838.99647 L 211.95956,838.94279 C 212.43229,838.96605 213.47075,838.54849 213.37776,839.01257 C 213.17352,840.03179 211.86036,841.01043 210.80211,840.98361 C 209.03092,841.05951 207.25196,840.84529 205.47844,840.93453 C 203.84375,840.92384 202.21007,840.93862 200.5767,840.95089 C 198.96828,840.8643 197.34637,840.98145 195.73594,840.94009 C 191.31377,840.93121 186.89136,841.02247 182.4703,841.11319 C 175.9696,841.24578 169.46718,841.32807 162.97088,841.61857 C 158.61678,841.81217 154.26302,842.08646 149.90437,842.12848 C 146.52866,842.18715 143.15199,842.17732 139.77619,842.18103 C 136.52974,842.20343 133.29142,841.98727 130.04735,841.88625 C 126.71496,841.86425 123.38379,841.91797 120.05288,842.00562 C 116.51191,842.16395 112.9676,842.31859 109.42255,842.3226 C 105.69183,842.37183 101.95724,842.34781 98.232041,842.59103 C 94.370861,842.86028 90.533671,843.32416 86.703001,843.87457 C 83.805691,844.11192 80.909471,844.14451 78.014741,843.82633 C 75.534991,843.56057 73.044491,843.41543 70.553521,843.32479 C 68.100161,843.28211 65.642011,843.34062 63.192171,843.47713 C 60.688841,843.6026 58.201901,843.90283 55.698131,844.01088 C 53.966981,843.8839 52.291281,843.58214 50.757701,842.71709 C 49.826951,842.092 49.523301,841.53052 49.669291,840.41742 C 49.652221,839.52262 49.639781,838.62331 49.548381,837.73322 C 49.457881,836.41473 49.213781,835.11182 49.112121,833.79796 C 49.003231,832.30228 49.027141,830.80019 48.839371,829.31003 C 48.627101,828.06163 48.513091,826.79838 48.283051,825.55335 C 47.951411,823.97204 47.764711,822.36203 47.709491,820.74739 C 47.622231,818.82234 47.696171,816.89106 47.672171,814.96456 C 47.677701,813.5315 47.684701,812.09823 47.668161,810.6658 C 47.655251,809.64016 47.693731,808.62235 47.643441,807.59652 C 47.709261,806.77295 47.676691,805.95163 47.806361,805.13128 C 47.929311,804.43808 48.086301,803.76718 48.170311,803.06645 C 48.579141,801.80882 48.666571,800.42826 48.639621,799.11588 C 48.606111,797.09127 48.305581,795.09365 47.962931,793.10054 C 47.692871,791.01506 47.624361,788.91623 47.673661,786.8141 C 47.607021,784.5395 47.640581,782.26228 47.469641,779.99103 C 47.196911,776.94463 47.103491,773.88425 47.023321,770.8282 C 46.773451,766.70175 46.497321,762.58201 45.959941,758.47863 C 45.212181,752.49358 44.602081,746.4887 44.129111,740.47584 C 43.704441,735.13313 43.509111,729.77887 43.130021,724.43321 L 46.549881,722.66356 z" />
    <path
       style="fill:#000000"
       id="path3211"
       d="M 209.32664,835.16666 C 211.2756,836.08449 213.06312,837.30662 214.96755,838.29919 C 215.72638,838.82208 215.88289,839.55685 216.12159,840.38 C 216.76516,843.09413 215.25695,842.52651 211.90208,844.41673 C 209.86883,845.1731 207.76072,845.72954 205.62376,846.09796 C 205.10707,846.01852 202.29623,846.89761 202.00219,846.0195 C 201.93648,845.82327 202.11291,845.62071 202.16827,845.42131 L 202.24889,845.36215 C 204.36131,844.45629 206.50769,843.96141 208.79277,843.70023 C 210.9833,843.21927 213.17288,842.65431 215.23567,841.75959 C 214.17085,842.38768 213.08373,842.97942 212.04121,843.64386 C 211.99664,843.67227 212.55037,843.57085 212.56797,843.43334 C 212.60334,843.15706 212.30386,842.73156 212.29739,842.45189 C 212.1294,841.71372 212.00633,841.08819 211.30106,840.67032 C 209.55658,839.45302 207.61753,838.49741 205.72532,837.53567 L 209.32664,835.16666 z" />
    <path
       style="fill:#000000"
       id="path3213"
       d="M 227.52109,833.44611 C 226.51777,837.81296 225.99273,842.27084 225.68776,846.7356 C 225.65929,849.57483 225.81319,852.4213 227.6893,854.67131 C 228.93106,855.59386 230.47692,856.36423 232.05684,856.12863 C 230.2132,857.31688 230.23512,857.33416 232.03286,856.04839 L 232.17072,855.99067 C 232.38556,857.52065 232.35393,856.34395 229.38932,858.16651 C 227.35679,858.77159 225.32941,858.52377 223.6913,857.07348 C 221.72215,854.73898 221.54891,851.64236 221.76656,848.6977 C 222.11748,844.17621 222.79069,839.69149 223.74092,835.25627 L 227.52109,833.44611 z" />
    <path
       style="fill:#000000"
       id="path3215"
       d="M 227.24391,845.79438 C 225.55623,845.14765 222.98452,845.24239 221.49879,844.18164 C 221.21538,843.9793 221.10292,843.60863 220.90498,843.32212 L 220.98683,843.26468 C 221.77111,843.14054 222.54761,842.94848 223.33966,842.89226 C 225.66852,842.72695 227.98668,843.38406 230.27359,843.68968 L 227.24391,845.79438 z" />
    <path
       style="fill:#000000"
       id="path3217"
       d="M 49.299371,727.72755 C 47.447471,726.76235 45.680141,725.66125 44.068241,724.33183 C 43.742071,723.86443 43.099271,723.52473 42.933311,722.95077 C 42.805531,722.82398 42.791861,722.66985 42.780341,722.49596 C 42.856131,722.48452 42.706371,722.33905 42.762161,722.31853 C 46.854261,720.81368 46.213301,720.48322 45.677441,723.23766 C 45.439821,724.421 45.068761,725.57283 44.805041,726.74981 C 44.539951,727.83685 43.843521,728.00818 42.846281,728.51051 L 42.755871,728.55325 C 41.872451,728.94439 40.997141,729.61971 41.347881,728.39533 C 41.720101,727.25613 41.981221,726.07594 42.229811,724.90641 C 42.910701,721.81516 41.987261,723.14864 46.200791,720.58665 C 46.260001,720.55064 46.086851,720.84839 46.164741,720.79141 C 46.138171,720.97094 46.110441,721.11308 46.033521,721.16829 C 46.399571,721.58469 46.666781,722.09486 47.132441,722.42648 C 48.628851,723.82826 50.498101,724.79967 52.302961,725.74039 L 49.299371,727.72755 z" />
    <path
       style="fill:#000000"
       id="path3219"
       d="M 57.833131,710.00816 C 59.087601,712.39829 60.648871,714.60194 62.418771,716.6342 C 63.608471,717.83684 64.824851,719.02733 65.904621,720.33165 C 66.502171,720.91048 66.900741,721.56329 67.247331,722.30398 C 68.243861,723.93721 62.893711,726.78432 63.655571,723.67611 C 63.988181,721.50188 63.813871,719.30258 63.932261,717.11931 C 63.848921,715.75201 63.982771,714.4089 64.243361,713.07234 C 64.484251,712.04405 64.825881,711.05388 65.197691,710.06945 C 65.682351,709.34892 66.608801,709.13014 67.298621,708.66558 L 67.389261,708.62334 C 67.722751,708.4944 68.919661,707.80462 69.157041,708.20596 C 68.899851,709.17107 68.623671,710.13021 68.360091,711.09517 C 67.992111,712.39564 67.955561,713.73263 67.942621,715.08011 C 68.030351,717.28305 67.865711,719.51546 67.702961,721.70984 C 67.392041,723.89008 63.499161,726.83415 63.297011,724.49219 C 63.112741,723.75569 62.537321,723.2169 62.087561,722.63095 C 60.965971,721.37021 59.850771,720.10924 58.684921,718.88979 C 56.866551,716.84586 55.458601,714.53481 54.031221,712.20488 L 57.833131,710.00816 z" />
    <rect
       style="fill:url(#linearGradient3235);fill-opacity:1"
       id="rect3221"
       width="25.673981"
       height="96.012932"
       x="50.132965"
       y="745.2663" />
    <rect
       style="fill:url(#linearGradient3239);fill-opacity:1"
       id="rect3225"
       width="25.673981"
       height="96.012932"
       x="100.64079"
       y="743.61969" />
    <rect
       style="fill:url(#linearGradient3243);fill-opacity:1"
       id="rect3229"
       width="25.673981"
       height="96.012932"
       x="151.2552"
       y="740.7738" />
    <path
       style="fill:#000080"
       id="path3233"
       d="M 51.854783,801.0734 C 54.134873,801.51332 56.441863,801.82573 58.754933,802.02749 C 60.650623,802.29184 62.557643,802.42607 64.468983,802.50422 C 66.175083,802.48158 67.872243,802.6379 69.564423,802.83679 C 71.307503,802.96346 73.057463,802.96444 74.799473,803.10069 C 76.926833,803.23161 79.030363,803.61003 81.131743,803.95321 C 83.427753,804.34813 85.743423,804.59941 88.049323,804.92439 C 90.434763,805.28315 92.807813,805.71669 95.195143,806.06372 C 97.256823,806.39158 99.323872,806.66143 101.38014,807.02444 C 103.01034,807.20345 104.61109,807.57152 106.2455,807.71493 C 107.79392,807.87661 109.35217,807.88056 110.90773,807.88256 C 113.02298,807.88332 115.14214,807.95761 117.25611,807.84624 C 119.29922,807.75693 121.33192,807.42179 123.31824,806.94392 C 125.16918,806.46185 127.01053,805.94463 128.86647,805.48146 C 131.0123,804.92452 133.19163,804.50235 135.39755,804.28211 C 139.747,804.01441 144.11145,804.03877 148.46758,804.07572 C 152.00673,804.05187 155.52665,804.43288 159.04518,804.75347 C 161.21269,804.96414 163.39048,804.95016 165.56567,804.99457 C 168.17703,804.97648 170.78831,805.01585 173.39957,805.00533 C 175.92321,805.07736 178.4312,804.87476 180.94131,804.65172 C 183.6561,804.36718 186.37985,804.18313 189.09843,803.93914 C 191.00752,803.78906 192.90655,803.54556 194.80351,803.28866 C 195.90558,803.1141 197.01542,803.0644 198.12911,803.06235 C 199.51641,803.07447 200.90627,802.99638 202.29335,803.05943 C 203.91986,802.97646 203.27445,803.39915 202.43426,804.15781 C 202.34899,804.23725 202.26372,804.3167 202.17845,804.39614 L 202.09754,804.4549 C 201.96418,804.53422 201.83082,804.61354 201.69746,804.69287 C 200.69437,805.30196 199.76592,805.92769 198.54085,805.78507 C 197.14812,805.83832 195.7549,805.76729 194.36206,805.81209 C 193.25045,805.85885 192.14281,805.9454 191.04082,806.10254 C 189.15064,806.37127 187.24731,806.53681 185.34717,806.71601 C 182.62836,806.95798 179.90395,807.13722 177.18953,807.42981 C 174.68017,807.66264 172.16875,807.82973 169.64623,807.73276 C 167.02731,807.72639 164.40805,807.77631 161.78921,807.73364 C 159.58389,807.74181 157.3768,807.70218 155.18,807.49928 C 151.71934,807.07258 148.24317,806.80906 144.75481,806.76931 C 140.38053,806.74634 135.9927,806.72938 131.63052,807.08618 C 129.43684,807.37633 127.261,807.75394 125.125,808.34482 C 123.26998,808.82543 121.42671,809.35098 119.56358,809.79966 C 117.53473,810.21489 115.49095,810.56033 113.41756,810.65135 C 111.29941,810.6539 109.18165,810.6651 107.06444,810.67066 C 105.49342,810.64999 103.92042,810.64977 102.35705,810.47504 C 100.74336,810.25807 99.133062,810.01685 97.529993,809.73133 C 95.450613,809.44472 93.386273,809.06481 91.304193,808.79631 C 88.939983,808.37254 86.558203,808.04432 84.188753,807.65002 C 81.876013,807.34455 79.557073,807.06459 77.257513,806.67566 C 75.161023,806.35088 73.066413,805.99583 70.946273,805.86869 C 69.208453,805.81521 67.464133,805.75431 65.735583,805.56729 C 64.031443,805.46232 62.333023,805.27349 60.622923,805.27429 C 58.711333,805.19407 56.813103,805.00861 54.917263,804.74963 C 52.630803,804.42334 50.325323,804.21389 48.068253,803.70388 L 51.854783,801.0734 z" />
    <path
       style="fill:#000000"
       id="path3247"
       d="M 47.11101,873.93403 C 47.456099,879.2705 47.81791,884.60551 48.169202,889.94179 C 48.710926,895.9272 49.436815,901.89195 50.118307,907.86198 C 50.627825,911.95961 51.143916,916.06057 51.287868,920.18944 C 51.325708,923.23857 51.656774,926.27316 51.787346,929.31618 C 51.920846,931.59234 52.031759,933.87509 52.010678,936.15598 C 52.010021,938.23745 52.072655,940.3153 52.309632,942.38388 C 52.681589,944.37812 52.947149,946.38882 53.039329,948.41544 C 53.134119,949.79185 52.824839,951.11832 52.633109,952.4618 C 52.499429,953.15316 52.354479,953.83588 52.220886,954.52641 C 52.110309,955.31528 52.031055,956.11208 52.066539,956.90895 C 51.99398,957.94173 52.037271,958.96796 52.025942,960.00143 C 52.011991,961.43468 52.019791,962.86866 52.02589,964.30252 C 52.026685,966.226 52.0134,968.14895 52.056561,970.07263 C 52.060883,971.68217 52.416359,973.2537 52.580689,974.84699 C 52.837389,976.08818 53.048339,977.34216 53.158699,978.60508 C 53.358169,980.10117 53.367599,981.60964 53.448299,983.11481 C 53.588789,984.42453 53.748949,985.72698 53.887589,987.03709 C 53.954139,987.94931 53.983099,988.85768 53.982629,989.7717 C 53.927709,990.75716 54.040189,991.1627 54.923819,991.66309 C 56.461219,992.44892 58.122989,992.71117 59.830369,992.70541 C 62.320879,992.55657 64.808009,992.30689 67.300219,992.13854 C 69.759639,992.0345 72.218229,991.96628 74.679469,992.01543 C 77.195269,992.04578 79.696419,992.32101 82.203349,992.51135 C 85.070549,992.89864 87.949579,992.78626 90.818629,992.51438 C 94.652859,991.96286 98.491519,991.50068 102.35666,991.23462 C 106.08202,991.03629 109.81402,990.98243 113.54407,991.00423 C 117.10377,990.96358 120.65731,990.7281 124.21506,990.64059 C 127.54415,990.54441 130.87639,990.47859 134.20688,990.55 C 137.45317,990.64941 140.69559,990.78355 143.94465,990.83278 C 147.32585,990.81672 150.70679,990.73963 154.08822,990.76395 C 158.42644,990.6385 162.76302,990.45794 167.09938,990.27342 C 173.61324,990.01118 180.13221,989.91262 186.64888,989.74256 C 191.09878,989.62387 195.5503,989.59249 200.00078,989.51524 C 201.63644,989.45906 203.28005,989.55269 204.91391,989.47831 C 206.52992,989.49414 208.14639,989.50907 209.76385,989.49927 C 211.45429,989.56744 213.20626,989.36407 214.87128,989.74298 C 214.98217,989.76209 215.12455,989.72059 215.20394,989.80033 C 215.25432,989.85093 215.19109,989.96759 215.12773,990.00053 C 214.2607,990.45127 213.43644,991.12849 212.46401,991.22474 C 212.14616,991.2562 212.44554,990.5862 212.43631,990.26694 L 212.52069,990.21326 C 212.99342,990.23652 214.03188,989.81896 213.93889,990.28304 C 213.73465,991.30226 212.42149,992.2809 211.36324,992.25408 C 209.59205,992.32998 207.81309,992.11576 206.03957,992.205 C 204.40488,992.19431 202.7712,992.20909 201.13783,992.22136 C 199.52941,992.13477 197.9075,992.25192 196.29707,992.21056 C 191.8749,992.20168 187.45249,992.29294 183.03143,992.38366 C 176.53073,992.51625 170.02831,992.59854 163.53201,992.88904 C 159.17791,993.08264 154.82415,993.35693 150.4655,993.39895 C 147.08979,993.45762 143.71312,993.44779 140.33732,993.4515 C 137.09087,993.4739 133.85255,993.25774 130.60848,993.15672 C 127.27609,993.13472 123.94492,993.18844 120.61401,993.27609 C 117.07304,993.43442 113.52873,993.58906 109.98368,993.59307 C 106.25296,993.6423 102.51837,993.61828 98.793169,993.8615 C 94.931989,994.13075 91.094799,994.59463 87.264129,995.14504 C 84.366819,995.38239 81.470599,995.41498 78.575869,995.0968 C 76.096119,994.83104 73.605619,994.6859 71.114649,994.59526 C 68.661289,994.55258 66.203139,994.61109 63.753299,994.7476 C 61.249969,994.87307 58.763029,995.1733 56.259259,995.28135 C 54.528109,995.15437 52.852409,994.85261 51.31883,993.98756 C 50.388074,993.36247 50.084424,992.80099 50.230422,991.68789 C 50.213347,990.79309 50.200913,989.89378 50.109512,989.00369 C 50.019012,987.6852 49.774906,986.38229 49.673246,985.06843 C 49.564356,983.57275 49.588269,982.07066 49.400495,980.5805 C 49.188231,979.3321 49.074214,978.06885 48.844179,976.82382 C 48.512535,975.24251 48.325843,973.6325 48.270617,972.01786 C 48.183361,970.09281 48.257303,968.16153 48.233295,966.23503 C 48.238826,964.80197 48.245826,963.3687 48.22929,961.93627 C 48.216374,960.91063 48.254863,959.89282 48.204564,958.86699 C 48.270389,958.04342 48.237817,957.2221 48.367492,956.40175 C 48.490443,955.70855 48.647429,955.03765 48.73144,954.33692 C 49.140266,953.07929 49.227694,951.69873 49.200748,950.38635 C 49.16724,948.36174 48.866712,946.36412 48.524063,944.37101 C 48.254002,942.28553 48.185488,940.1867 48.234784,938.08457 C 48.16815,935.80997 48.201712,933.53275 48.030772,931.2615 C 47.758037,928.2151 47.664619,925.15472 47.584451,922.09867 C 47.334575,917.97222 47.058448,913.85248 46.521066,909.7491 C 45.773313,903.76405 45.163211,897.75917 44.690241,891.74631 C 44.265565,886.4036 44.07024,881.04934 43.691148,875.70368 L 47.11101,873.93403 z" />
    <path
       style="fill:#000000"
       id="path3249"
       d="M 209.88777,986.43713 C 211.83673,987.35496 213.62425,988.57709 215.52868,989.56966 C 216.28751,990.09255 216.44402,990.82732 216.68272,991.65047 C 217.32629,994.3646 215.81808,993.79698 212.46321,995.6872 C 210.42996,996.44357 208.32185,997.00001 206.18489,997.36843 C 205.6682,997.28899 202.85736,998.16808 202.56332,997.28997 C 202.49761,997.09374 202.67404,996.89118 202.7294,996.69178 L 202.81002,996.63262 C 204.92244,995.72676 207.06882,995.23188 209.3539,994.9707 C 211.54443,994.48974 213.73401,993.92478 215.7968,993.03006 C 214.73198,993.65815 213.64486,994.24989 212.60234,994.91433 C 212.55777,994.94274 213.1115,994.84132 213.1291,994.70381 C 213.16447,994.42753 212.86499,994.00203 212.85852,993.72236 C 212.69053,992.98419 212.56746,992.35866 211.86219,991.94079 C 210.11771,990.72349 208.17866,989.76788 206.28645,988.80614 L 209.88777,986.43713 z" />
    <path
       style="fill:#000000"
       id="path3251"
       d="M 228.08222,984.71658 C 227.0789,989.08343 226.55386,993.54131 226.24889,998.00607 C 226.22042,1000.8453 226.37432,1003.6918 228.25043,1005.9418 C 229.49219,1006.8643 231.03805,1007.6347 232.61797,1007.3991 C 230.77433,1008.5874 230.79625,1008.6046 232.59399,1007.3189 L 232.73185,1007.2611 C 232.94669,1008.7911 232.91506,1007.6144 229.95045,1009.437 C 227.91792,1010.0421 225.89054,1009.7942 224.25243,1008.344 C 222.28328,1006.0095 222.11004,1002.9128 222.32769,999.96817 C 222.67861,995.44668 223.35182,990.96196 224.30205,986.52674 L 228.08222,984.71658 z" />
    <path
       style="fill:#000000"
       id="path3253"
       d="M 227.80504,997.06485 C 226.11736,996.41812 223.54565,996.51286 222.05992,995.45211 C 221.77651,995.24977 221.66405,994.8791 221.46611,994.59259 L 221.54796,994.53515 C 222.33224,994.41101 223.10874,994.21895 223.90079,994.16273 C 226.22965,993.99742 228.54781,994.65453 230.83472,994.96015 L 227.80504,997.06485 z" />
    <path
       style="fill:#000000"
       id="path3255"
       d="M 49.860499,878.99802 C 48.008603,878.03282 46.241268,876.93172 44.629371,875.6023 C 44.303196,875.1349 43.6604,874.7952 43.494442,874.22124 C 43.366656,874.09445 43.352985,873.94032 43.34147,873.76643 C 43.417255,873.75499 43.267495,873.60952 43.323292,873.589 C 47.415388,872.08415 46.77443,871.75369 46.238565,874.50813 C 46.000951,875.69147 45.629888,876.8433 45.366169,878.02028 C 45.101076,879.10732 44.404652,879.27865 43.407409,879.78098 L 43.317002,879.82372 C 42.433576,880.21486 41.558269,880.89018 41.909005,879.6658 C 42.281227,878.5266 42.542348,877.34641 42.790935,876.17688 C 43.471833,873.08563 42.548386,874.41911 46.761917,871.85712 C 46.821132,871.82111 46.647981,872.11886 46.725872,872.06188 C 46.699301,872.24141 46.671569,872.38355 46.594649,872.43876 C 46.960703,872.85516 47.227907,873.36533 47.693566,873.69695 C 49.189979,875.09873 51.059233,876.07014 52.864089,877.01086 L 49.860499,878.99802 z" />
    <path
       style="fill:#000000"
       id="path3257"
       d="M 58.394259,861.27863 C 59.648729,863.66876 61.209999,865.87241 62.979899,867.90467 C 64.169599,869.10731 65.385979,870.2978 66.465749,871.60212 C 67.063299,872.18095 67.461869,872.83376 67.808459,873.57445 C 68.804989,875.20768 63.454839,878.05479 64.216699,874.94658 C 64.549309,872.77235 64.374999,870.57305 64.493389,868.38978 C 64.410049,867.02248 64.543899,865.67937 64.804489,864.34281 C 65.045379,863.31452 65.387009,862.32435 65.758819,861.33992 C 66.243479,860.61939 67.169929,860.40061 67.859749,859.93605 L 67.950389,859.89381 C 68.283879,859.76487 69.480789,859.07509 69.718169,859.47643 C 69.460979,860.44154 69.184799,861.40068 68.921219,862.36564 C 68.553239,863.66611 68.516689,865.0031 68.503749,866.35058 C 68.591479,868.55352 68.426839,870.78593 68.264089,872.98031 C 67.953169,875.16055 64.060289,878.10462 63.858139,875.76266 C 63.673869,875.02616 63.098449,874.48737 62.648689,873.90142 C 61.527099,872.64068 60.411899,871.37971 59.246049,870.16026 C 57.427679,868.11633 56.019729,865.80528 54.592349,863.47535 L 58.394259,861.27863 z" />
    <rect
       style="fill:url(#linearGradient3273);fill-opacity:1"
       id="rect3259"
       width="25.673981"
       height="96.012932"
       x="50.694084"
       y="896.53674" />
    <rect
       style="fill:url(#linearGradient3277);fill-opacity:1"
       id="rect3263"
       width="25.673981"
       height="96.012932"
       x="103.7411"
       y="895.37506" />
    <rect
       style="fill:url(#linearGradient3279);fill-opacity:1"
       id="rect3265"
       width="25.673981"
       height="96.012932"
       x="145.62199"
       y="893.83087" />
    <rect
       style="fill:url(#linearGradient3283);fill-opacity:1"
       id="rect3269"
       width="25.673981"
       height="96.012932"
       x="177.15804"
       y="893.46667" />
    <path
       style="fill:#000080"
       id="path3287"
       d="M 52.614614,968.36662 C 54.859898,968.37073 57.104728,968.33328 59.349895,968.31978 C 61.660063,968.3084 63.970132,968.27266 66.280416,968.27858 C 68.202803,968.2551 70.118125,968.07302 72.029791,967.88428 C 73.569276,967.82485 75.103325,967.68337 76.631407,967.49096 C 78.492044,967.24682 80.331205,966.88931 82.167136,966.50584 C 83.963797,965.95134 85.767253,965.41357 87.527385,964.75045 C 89.272572,964.08105 90.992747,963.34745 92.737962,962.67785 C 94.390257,962.09032 95.977862,961.33928 97.622686,960.73434 C 99.085725,960.27717 100.53858,959.79418 101.98129,959.27664 C 101.16778,960.07329 104.83168,957.83064 103.79231,958.42233 C 98.324076,961.53531 101.21146,959.89338 102.39682,959.18218 C 104.99617,957.14508 107.98618,956.25761 110.93388,955.00507 C 111.23744,954.87163 111.5452,954.74738 111.84456,954.60477 C 112.39784,954.34119 113.03621,953.98167 113.57014,953.68157 C 113.8087,953.54749 114.52072,953.1388 114.28344,953.27513 C 110.7324,955.31528 109.86811,955.79255 115.47064,952.62758 C 116.89899,951.96739 118.39747,951.47698 119.88536,950.97027 C 121.47648,950.6684 126.75928,947.55116 120.88728,950.8556 C 122.34277,949.7929 123.61947,948.51861 125.03935,947.41062 C 126.66095,946.31431 128.08768,944.97919 129.58379,943.7278 C 132.24029,941.73801 135.18627,940.14529 138.14969,938.65876 C 136.04947,940.14277 143.03933,935.99947 140.58571,937.39005 C 139.74184,937.86831 138.90557,938.36016 138.05536,938.82705 C 137.76375,938.98718 138.62135,938.47704 138.9094,938.3106 C 140.3279,937.49096 141.753,936.68283 143.17481,935.86894 C 145.14462,934.8187 147.32388,934.26979 149.43695,933.58805 C 151.40053,932.92315 153.36075,932.25531 155.26459,931.43364 C 159.55345,929.18906 150.50721,934.20159 154.39751,931.90956 C 155.72274,931.12878 157.05869,930.36634 158.38927,929.59473 C 160.00006,928.94379 161.50428,928.08504 163.01489,927.2331 C 163.88404,926.7398 164.74392,926.23087 165.61551,925.74183 C 165.86041,925.60442 166.59623,925.19417 166.35201,925.3328 C 163.25152,927.09289 162.75189,927.43843 164.27871,926.44442 C 166.62486,924.80471 169.14562,923.44097 171.62498,922.01801 C 165.78875,925.44724 170.1628,922.80523 171.50745,921.97486 C 172.61108,921.18353 173.72251,920.41001 174.88168,919.70112 C 177.53843,917.64114 180.70232,916.76341 183.6602,915.34178 C 185.05938,914.53449 190.83228,911.26963 184.74262,914.74972 C 187.04499,913.29822 189.29348,911.71434 191.94046,911.0005 C 197.59355,908.11985 182.66295,916.37158 194.06973,909.95105 C 193.55093,910.50572 193.70656,910.24992 193.49969,910.64525 L 193.4212,910.7072 C 192.31611,911.40951 192.9475,910.99224 191.54377,911.98398 C 197.99718,908.30493 190.97929,912.71721 188.69454,913.50417 C 188.38115,913.60438 187.80425,913.78221 187.50332,913.90593 C 187.30683,913.98671 186.74496,914.28745 186.92675,914.17751 C 192.63331,910.72655 189.78097,912.54224 188.52685,913.28782 C 185.8602,914.84459 183.19779,916.40655 180.4798,917.87202 C 179.10392,918.49638 172.25823,921.53823 178.64931,918.24775 C 177.48957,918.92912 176.36306,919.66594 175.31024,920.50539 C 173.04779,921.85852 170.84533,923.30986 168.50717,924.53661 C 174.55877,921.02769 169.32952,923.98796 168.03591,924.9763 C 165.42715,926.72257 162.61947,928.14838 159.91517,929.73783 C 158.3944,930.59396 156.85386,931.39658 155.26685,932.12089 C 156.21655,931.56692 157.16101,931.00386 158.11595,930.45896 C 158.4452,930.27109 157.50495,930.90992 157.17916,931.10373 C 155.5523,932.07154 153.91408,933.14252 152.15374,933.89281 C 150.25862,934.70493 148.29471,935.33551 146.34063,935.98852 C 144.22762,936.66789 142.06166,937.25637 140.11031,938.3423 C 140.94086,937.85709 141.76998,937.36942 142.60197,936.88668 C 142.89979,936.71387 142.00985,937.23831 141.71281,937.41247 C 139.52279,938.69652 137.37973,940.03468 135.08366,941.1153 C 133.95563,941.69995 130.73529,943.59326 135.72763,940.63264 C 136.33052,940.27511 134.51141,941.33334 133.93671,941.73462 C 133.69385,941.90419 133.46034,942.08677 133.22216,942.26285 C 131.68665,943.4939 130.28547,944.88929 128.63443,945.97603 C 127.19912,947.06174 125.91853,948.32454 124.50942,949.44338 C 121.99862,950.92879 119.62957,952.53459 116.81871,953.35777 C 115.33039,953.87708 113.82238,954.36525 112.41245,955.07859 C 120.05661,950.59209 109.81958,956.772 107.87663,957.41556 C 106.54703,957.95426 99.73197,960.93006 106.03074,957.78069 C 103.69654,959.17425 101.44227,960.77776 98.873282,961.69954 C 97.439467,962.19412 95.99404,962.65107 94.557455,963.13665 C 92.929935,963.77855 91.323388,964.47177 89.681314,965.07637 C 87.943679,965.75827 86.21709,966.46756 84.474464,967.13678 C 82.709376,967.76567 80.922212,968.34108 79.111714,968.82464 C 77.281083,969.21724 75.432573,969.52417 73.576608,969.76905 C 72.048374,969.95919 70.513657,970.05147 68.977429,970.14018 C 67.090055,970.26028 65.206926,970.46178 63.312353,970.43501 C 61.039869,970.44079 58.767612,970.40554 56.495252,970.3938 C 54.293058,970.38034 52.091222,970.3425 49.888904,970.34697 L 52.614614,968.36662 z" />
  </g>
</svg>
