<?xml version="1.0" encoding="UTF-8" standalone="no"?>
<!-- Created with Inkscape (http://www.inkscape.org/) -->
<svg
   xmlns:dc="http://purl.org/dc/elements/1.1/"
   xmlns:cc="http://creativecommons.org/ns#"
   xmlns:rdf="http://www.w3.org/1999/02/22-rdf-syntax-ns#"
   xmlns:svg="http://www.w3.org/2000/svg"
   xmlns="http://www.w3.org/2000/svg"
   xmlns:sodipodi="http://sodipodi.sourceforge.net/DTD/sodipodi-0.dtd"
   xmlns:inkscape="http://www.inkscape.org/namespaces/inkscape"
   width="782.48474"
   height="235.07217"
   id="svg2"
   sodipodi:version="0.32"
   inkscape:version="0.46"
   sodipodi:docname="motorstyring-indlagt-forsinkelse.svg"
   inkscape:output_extension="org.inkscape.output.svg.inkscape"
   version="1.0">
  <defs
     id="defs4">
    <inkscape:perspective
       sodipodi:type="inkscape:persp3d"
       inkscape:vp_x="0 : 526.18109 : 1"
       inkscape:vp_y="0 : 1000 : 0"
       inkscape:vp_z="744.09448 : 526.18109 : 1"
       inkscape:persp3d-origin="372.04724 : 350.78739 : 1"
       id="perspective10" />
  </defs>
  <sodipodi:namedview
     id="base"
     pagecolor="#ffffff"
     bordercolor="#666666"
     borderopacity="1.0"
     gridtolerance="10000"
     guidetolerance="10"
     objecttolerance="10"
     inkscape:pageopacity="0.0"
     inkscape:pageshadow="2"
     inkscape:zoom="1"
     inkscape:cx="392.80564"
     inkscape:cy="283.63451"
     inkscape:document-units="px"
     inkscape:current-layer="layer1"
     showgrid="false"
     inkscape:window-width="1440"
     inkscape:window-height="827"
     inkscape:window-x="0"
     inkscape:window-y="25" />
  <metadata
     id="metadata7">
    <rdf:RDF>
      <cc:Work
         rdf:about="">
        <dc:format>image/svg+xml</dc:format>
        <dc:type
           rdf:resource="http://purl.org/dc/dcmitype/StillImage" />
      </cc:Work>
    </rdf:RDF>
  </metadata>
  <g
     inkscape:label="Layer 1"
     inkscape:groupmode="layer"
     id="layer1"
     transform="translate(71.631284,-644.34643)">
    <path
       style="fill:#000000;fill-opacity:1;fill-rule:nonzero;stroke:none;stroke-width:1px;stroke-linecap:butt;stroke-linejoin:miter;stroke-opacity:1"
       id="path2383"
       d="M 100.19005,725.59283 C 98.732833,734.19733 98.337727,742.95487 97.77331,751.65329 C 97.064695,763.42889 96.888828,775.2198 96.923536,787.01293 C 96.970647,790.68341 97.081582,794.35516 97.0525,798.0262 C 97.049443,798.62866 96.750257,799.81688 95.358375,798.998 C 94.977743,798.77407 95.98831,798.3789 96.303278,798.06935 L 96.395315,798.03025 C 95.798528,799.04617 93.405005,801.98806 93.178925,800.01546 C 92.912176,796.37406 92.919885,792.71495 92.897219,789.06636 C 92.842669,777.21617 93.249545,765.36356 94.013466,753.53846 C 94.578306,744.81842 94.959301,736.02979 96.415849,727.4054 L 100.19005,725.59283 z" />
    <path
       style="fill:#000000;fill-opacity:1;fill-rule:nonzero;stroke:none;stroke-width:1px;stroke-linecap:butt;stroke-linejoin:miter;stroke-opacity:1"
       id="path2385"
       d="M 102.78519,759.172 C 106.78536,759.43865 110.79187,759.58139 114.79679,759.75976 C 118.8597,759.95064 122.92377,760.0996 126.9908,760.16007 C 131.18072,760.21663 135.37041,760.25736 139.55799,760.08792 C 143.51339,759.86691 147.46758,759.66127 151.42759,759.54216 C 156.42299,759.42665 161.41676,759.63369 166.41173,759.63763 C 172.35907,759.68368 178.29277,759.18064 184.22825,758.86797 C 190.38794,758.54953 196.5521,758.41535 202.69947,757.8929 C 208.09979,757.4334 213.49067,756.86593 218.88309,756.32191 C 223.52475,755.8313 228.17518,755.4296 232.81844,754.95568 C 236.90235,754.42084 241.01756,754.23053 245.13127,754.12101 C 249.75937,754.05191 254.38451,753.87177 259.01084,753.73632 C 264.00607,753.56611 269.00113,753.38136 273.99681,753.21775 C 279.31217,753.07181 284.61377,752.69449 289.91507,752.30408 C 295.05621,751.89764 300.20397,751.6132 305.35631,751.399 C 310.90726,751.16802 316.44892,750.7823 321.98939,750.3783 C 327.95426,749.94662 333.9283,749.66527 339.89621,749.28178 C 346.82824,748.72841 353.75723,748.15839 360.69919,747.73793 C 367.52755,747.36508 374.3529,746.94294 381.17692,746.49818 C 387.87304,745.99056 394.56206,745.39647 401.25856,744.89279 C 407.25755,744.53767 413.26237,744.3111 419.26976,744.16355 C 425.23205,744.07326 431.19476,744.06252 437.15753,744.05895 C 444.15539,744.03577 451.15313,744.09197 458.15098,744.06733 C 466.54633,744.08073 474.93288,744.4749 483.3205,744.78429 C 491.84831,745.20087 500.38562,745.35326 508.92186,745.46623 C 516.72817,745.54361 524.53485,745.5142 532.34134,745.5364 C 539.72776,745.53391 547.11399,745.51457 554.50036,745.52552 C 560.98864,745.50909 567.4768,745.51349 573.96518,745.51144 C 579.4102,745.45131 584.85491,745.65496 590.29139,745.94231 C 594.24128,746.09775 598.19271,746.16359 602.14501,746.20637 C 604.67908,746.27426 607.21824,746.29889 609.74483,746.51721 C 612.38161,746.74593 615.02942,746.84321 617.67333,746.96191 C 620.40948,747.14254 623.14535,747.33289 625.87572,747.58655 C 627.47506,747.71563 629.07531,747.88167 630.68175,747.85993 C 632.01184,747.89697 633.3413,747.8889 634.67161,747.89378 C 636.51508,747.83867 638.34648,748.0587 640.17474,748.25871 C 642.35754,748.61805 644.56912,748.73763 646.77448,748.87051 C 649.65669,749.13993 652.5503,749.23905 655.44308,749.30627 C 659.35285,749.32564 663.26143,749.4914 667.16147,749.76259 C 670.60623,750.04943 674.04817,750.35473 677.4937,750.62601 C 680.13987,750.78122 682.7899,750.80396 685.43814,750.92636 C 688.44096,751.11655 691.44865,751.31332 694.43547,751.68551 C 695.86341,751.86215 697.2686,752.17347 698.71239,752.16764 C 699.74818,752.22926 700.9112,751.68388 699.49338,753.06623 C 699.46434,753.12421 699.43529,753.1822 699.40624,753.24018 L 699.32671,753.3008 C 699.16052,753.39092 698.99433,753.48103 698.82813,753.57115 C 697.55964,754.37208 696.43006,755.05354 694.88951,754.93373 C 693.45036,754.87294 692.03293,754.59167 690.60768,754.39863 C 687.63281,754.06901 684.6554,753.78544 681.66455,753.64374 C 678.99985,753.54152 676.33072,753.56706 673.67104,753.35931 C 670.23827,753.10809 666.81786,752.71131 663.38392,752.46986 C 659.47901,752.23386 655.57253,752.08099 651.6602,752.0422 C 648.74916,751.98374 645.84114,751.8743 642.93962,751.61865 C 640.72433,751.46253 638.50595,751.32426 636.30762,750.99901 C 634.50099,750.76643 632.68375,750.64919 630.86199,750.6621 C 629.51045,750.66914 628.16064,750.67352 626.8088,750.65717 C 625.22481,750.53926 623.63406,750.51177 622.05595,750.31027 C 619.32735,750.07773 616.6,749.83686 613.86375,749.7011 C 611.2204,749.55836 608.57324,749.48492 605.93669,749.23691 C 603.42755,749.04447 600.91269,748.99933 598.39787,748.92355 C 594.45503,748.89351 590.5114,748.81461 586.57299,748.61923 C 581.14387,748.43193 575.71949,748.06543 570.28257,748.18703 C 563.80571,748.18522 557.32908,748.19002 550.85232,748.17611 C 543.47051,748.1902 536.08883,748.17699 528.70698,748.17684 C 520.90421,748.19648 513.101,748.17098 505.29862,748.09178 C 496.75791,747.99223 488.22035,747.77402 479.68677,747.40283 C 471.29618,747.05949 462.903,746.68538 454.50317,746.7175 C 447.50076,746.68955 440.49839,746.73922 433.49597,746.71977 C 427.52641,746.72769 421.55605,746.72212 415.5876,746.85176 C 409.5895,746.98031 403.59108,747.19814 397.60422,747.5877 C 390.91867,748.03598 384.24871,748.68189 377.5651,749.15839 C 370.74342,749.60233 363.91996,750.01834 357.09394,750.39021 C 350.15286,750.79665 343.22823,751.39907 336.29645,751.93435 C 330.33161,752.35493 324.35531,752.58356 318.39212,753.03331 C 312.85552,753.46122 307.31243,753.82358 301.76297,754.03373 C 296.61736,754.26889 291.47257,754.53168 286.33772,754.94611 C 281.04861,755.3842 275.74857,755.68823 270.44252,755.82139 C 265.44418,756.04807 260.442,756.14903 255.4426,756.3452 C 250.82126,756.4874 246.20104,756.67042 241.57729,756.71856 C 237.48274,756.84182 233.39437,757.05989 229.32456,757.54868 C 224.70131,758.01794 220.06807,758.37629 215.4472,758.87047 C 210.0482,759.39597 204.65455,759.9771 199.2494,760.43948 C 193.11814,760.84339 186.9795,761.0637 180.84239,761.35466 C 174.88934,761.65423 168.94138,762.14858 162.97675,762.12811 C 157.99874,762.0328 153.01719,761.88871 148.03891,762.01812 C 144.10086,762.11119 140.17126,762.34767 136.2365,762.51795 C 132.06663,762.6248 127.89568,762.57822 123.72514,762.52367 C 119.69124,762.43713 115.65841,762.30905 111.63201,762.03815 C 107.65365,761.86918 103.67046,761.72316 99.703628,761.37077 L 102.78519,759.172 z" />
    <path
       style="fill:#000000;fill-opacity:1;fill-rule:nonzero;stroke:none;stroke-width:1px;stroke-linecap:butt;stroke-linejoin:miter;stroke-opacity:1"
       id="path2387"
       d="M 691.03532,738.49155 C 695.36841,741.86676 699.62367,745.34183 703.81415,748.89222 C 706.06265,751.03059 708.4041,753.07912 710.57236,755.3004 C 710.77089,755.6731 710.98783,755.87993 710.74771,756.34824 C 710.03822,757.732 705.81909,760.09783 704.61527,760.88167 C 697.54344,765.45015 690.19857,769.57364 682.64498,773.28561 C 681.59945,773.37305 679.86766,775.1816 678.64862,774.71144 C 678.5476,774.67247 678.60283,774.49977 678.57994,774.39394 L 678.65932,774.33312 C 680.96886,773.16265 683.30334,772.04169 685.62798,770.90152 C 690.82115,768.31453 695.98337,765.65386 700.78393,762.37538 C 701.23798,762.08149 707.01504,758.52176 707.09472,757.87024 C 707.10983,757.74668 706.98287,757.64783 706.92694,757.53663 C 704.70061,755.40262 702.641,753.0932 700.28707,751.09308 C 696.10161,747.52437 691.79104,744.10767 687.40256,740.79179 L 691.03532,738.49155 z" />
    <path
       style="fill:#000000;fill-opacity:1;fill-rule:nonzero;stroke:none;stroke-width:1px;stroke-linecap:butt;stroke-linejoin:miter;stroke-opacity:1"
       id="path2397"
       d="M 673.78401,791.7119 C 673.55397,796.77197 673.3087,801.83026 673.10567,806.89176 C 673.2242,812.13192 673.66582,813.36634 678.54784,815.29669 C 679.91256,816.14721 685.66075,816.06825 686.63041,816.86352 C 686.80218,817.00441 686.73102,817.29629 686.78133,817.51268 C 686.89429,817.53246 687.00725,817.55224 687.12022,817.57203 L 687.04044,817.63233 C 686.76935,817.72592 686.49825,817.81952 686.22716,817.91311 C 685.59891,818.11187 684.98652,818.37037 684.34242,818.5094 C 681.28285,819.16981 677.98392,818.35036 675.02105,817.66576 C 670.17046,815.83844 669.22878,813.88027 669.44724,808.73257 C 669.75876,803.62537 670.2762,798.53087 670.44169,793.4149 L 673.78401,791.7119 z" />
    <path
       style="fill:#000000;fill-opacity:1;fill-rule:nonzero;stroke:none;stroke-width:1px;stroke-linecap:butt;stroke-linejoin:miter;stroke-opacity:1"
       id="path2399"
       d="M 677.10879,805.42789 C 672.3909,804.65217 667.61398,804.38543 662.85514,803.99548 C 660.97038,803.54316 657.94393,804.07211 656.17413,803.17943 C 656.37591,802.52031 656.19238,802.97629 657.09012,802.02385 L 657.17521,801.97131 C 658.55106,801.33268 657.95091,801.5636 658.95004,801.21533 C 661.26895,801.04472 663.58821,801.73807 665.89752,801.8224 C 670.67034,802.20406 675.45712,802.54939 680.19217,803.27407 L 677.10879,805.42789 z" />
    <path
       style="fill:#000000;fill-opacity:1;fill-rule:nonzero;stroke:none;stroke-width:1px;stroke-linecap:butt;stroke-linejoin:miter;stroke-opacity:1"
       id="path2401"
       d="M -67.990291,703.08163 C -66.736825,708.03068 -66.329282,713.15212 -65.898597,718.2256 C -65.492875,722.89757 -65.321154,727.58803 -64.897898,732.25843 C -64.774701,733.69366 -65.018163,734.23576 -66.192144,735.00371 L -66.640147,735.25401 C -68.186498,735.88073 -68.109703,735.665 -68.454866,734.11535 C -68.956973,729.46489 -69.280324,724.80469 -69.565072,720.13462 C -70.027899,715.089 -70.410235,710.00127 -71.631284,705.06858 L -67.990291,703.08163 z" />
    <path
       style="fill:#000000;fill-opacity:1;fill-rule:nonzero;stroke:none;stroke-width:1px;stroke-linecap:butt;stroke-linejoin:miter;stroke-opacity:1"
       id="path2403"
       d="M -67.959212,699.43459 C -64.933026,698.66496 -61.605603,697.34865 -58.434302,698.1131 C -57.863492,698.2507 -57.344472,698.55048 -56.799557,698.76917 C -53.022205,701.68678 -53.545227,705.19844 -55.407166,709.08829 C -56.728215,711.73724 -59.312141,713.30786 -61.184194,715.46353 C -61.170957,715.54529 -61.204886,715.65214 -61.144483,715.70882 C -60.525381,716.28968 -59.143457,716.6378 -58.419715,717.01197 C -56.690927,717.90576 -57.118506,717.6945 -55.526406,718.9394 C -52.14945,721.81567 -50.372945,725.85837 -49.27939,730.06064 C -48.705491,732.80715 -48.173455,736.18515 -50.532225,738.294 C -50.934112,738.6533 -51.429181,738.89226 -51.877659,739.1914 C -53.598293,740.0228 -55.247398,741.0223 -57.039561,741.68559 C -57.55818,741.87754 -58.147503,741.76524 -58.698284,741.71576 C -61.194983,741.49148 -63.187884,740.2602 -65.055535,738.69846 C -66.718607,736.72012 -67.482283,735.9521 -67.375592,733.32589 L -67.289063,733.27576 C -65.362086,734.21796 -63.882733,735.6025 -62.162401,736.8621 C -60.600415,737.84164 -59.068968,738.77157 -57.227842,739.13733 C -56.639578,739.2542 -56.037104,739.31583 -55.437344,739.3149 C -54.864664,739.31401 -53.585971,738.57737 -53.729077,739.13189 C -53.945906,739.97206 -55.10827,740.1852 -55.797866,740.71186 C -51.947479,738.47982 -52.525035,736.19316 -53.240152,732.21475 C -54.429725,728.13012 -56.025676,724.19293 -59.342138,721.3479 C -60.755659,720.29219 -60.6509,720.28493 -62.156362,719.47816 C -62.962925,719.04592 -64.54277,718.62674 -65.100018,717.8023 C -65.216036,717.63066 -65.163303,717.39281 -65.194945,717.18806 C -64.605701,716.31704 -63.728854,715.78507 -62.950057,715.07844 C -61.523111,713.78373 -60.178029,712.4025 -59.129736,710.77347 C -57.236526,707.10945 -56.67336,703.8849 -60.409397,701.19833 C -60.93486,701.01422 -61.440052,700.75637 -61.985786,700.64598 C -65.137496,700.00847 -68.381762,701.30088 -71.373481,702.08923 L -67.959212,699.43459 z" />
    <path
       style="fill:#000000;fill-opacity:1;fill-rule:nonzero;stroke:none;stroke-width:1px;stroke-linecap:butt;stroke-linejoin:miter;stroke-opacity:1"
       id="path2405"
       d="M -49.53118,724.06869 C -47.293309,724.20067 -44.966375,724.45566 -42.822515,723.60078 C -42.264322,723.3782 -41.165689,723.33251 -41.240522,722.73626 C -41.31132,722.17215 -42.324368,723.08007 -42.866291,723.25198 C -41.029954,720.83735 -40.014332,717.7299 -43.428877,716.25269 C -43.762874,716.29982 -44.69017,716.60981 -44.430869,716.39408 C -43.838151,715.90097 -43.130844,715.38332 -42.360076,715.3635 C -41.917557,715.35212 -42.992815,715.9922 -43.234128,716.3633 C -44.086929,717.6748 -44.265905,719.09975 -44.339452,720.61268 C -44.009825,724.08277 -41.230439,725.71965 -38.427117,727.21324 C -37.413488,728.05801 -35.450987,728.23452 -34.679686,729.40804 C -34.495102,729.68888 -34.559771,730.06939 -34.499814,730.40007 L -34.582172,730.45679 C -35.320262,730.5818 -36.048171,730.80955 -36.796441,730.83182 C -38.512232,730.88289 -40.185173,729.94356 -41.742391,729.38942 C -44.804396,727.87201 -47.629263,726.13208 -47.90909,722.39574 C -47.477441,718.42827 -45.460123,714.22916 -40.573328,714.3713 C -37.329867,716.15358 -37.776485,719.18296 -39.635638,721.93092 C -45.015682,725.65865 -46.165327,726.89479 -52.62763,726.27366 L -49.53118,724.06869 z" />
    <path
       style="fill:#000000;fill-opacity:1;fill-rule:nonzero;stroke:none;stroke-width:1px;stroke-linecap:butt;stroke-linejoin:miter;stroke-opacity:1"
       id="path2407"
       d="M -24.739257,719.10871 C -24.59447,723.24408 -24.536692,727.38457 -24.552403,731.5228 C -24.534119,734.00314 -23.429475,734.8397 -27.256844,735.18746 C -27.588819,735.21762 -27.005814,734.56956 -26.86568,734.26711 C -26.674322,733.85409 -26.46372,733.45027 -26.26274,733.04185 C -23.898246,728.75455 -19.242754,726.38346 -14.679391,725.02488 C -11.065229,724.12397 -7.3626891,724.59697 -3.7102776,724.92686 C -2.8389702,724.94353 -1.5730303,725.02359 -0.68887786,724.84069 C -0.30519312,724.76132 0.76034245,724.25314 0.41650156,724.44099 C -3.0460166,726.33265 -1.5906017,725.72682 -1.1979545,724.32102 C -1.0686345,723.85801 -1.0842948,723.36631 -1.027465,722.88895 C -1.0762685,721.76701 -1.6744171,717.33168 -3.5622101,717.67212 C -3.8409813,717.72239 -4.0605074,717.94168 -4.3096561,718.07646 C -3.5778997,717.75098 -2.9127066,717.03603 -2.1143869,717.10001 C -1.6625497,717.13622 -2.6799255,717.80992 -2.9316289,718.1869 C -4.1649718,720.03409 -4.9547218,722.11651 -5.6378729,724.2139 C -6.4285688,727.16572 -5.6280574,729.90624 -3.8920765,732.32617 C -3.2173136,733.40728 -3.6482723,732.9762 -2.623068,733.64285 L -2.7050002,733.70018 C -4.8378925,733.78952 -3.7765103,733.83329 -5.8892056,733.5703 C -9.2728091,731.65476 -9.6192314,729.45932 -8.9353432,725.76444 C -8.3855209,724.09961 -6.707188,719.51068 -5.3557442,718.43457 C -4.1618166,717.48389 -2.8116702,716.74794 -1.5396333,715.90463 C -1.2442051,715.83056 -0.95752625,715.66695 -0.65334878,715.68243 C 1.6413201,715.7992 1.8103785,719.83604 2.0556331,721.35137 C 2.0275653,721.85625 2.0713676,722.37032 1.9714297,722.866 C 1.2403118,726.49227 -3.6632362,727.24894 -6.6818445,727.05268 C -10.325465,726.84311 -13.999094,726.2813 -17.589215,727.27663 C -18.223532,727.48394 -18.961645,728.30336 -19.492165,727.89854 C -19.946066,727.55218 -17.583661,727.05666 -18.123003,726.86932 C -19.079529,726.53706 -22.551919,730.63505 -22.965672,731.5517 C -23.175333,731.95662 -23.395294,732.35637 -23.594656,732.76647 C -23.749319,733.08461 -23.750065,733.5158 -24.027311,733.73551 C -27.027486,736.11305 -27.566213,736.9667 -27.567927,734.59869 C -27.568302,734.08172 -27.550154,733.5649 -27.541267,733.048 C -27.607663,728.92414 -27.576208,724.79817 -27.758981,720.6769 L -24.739257,719.10871 z" />
    <path
       style="fill:#000000;fill-opacity:1;fill-rule:nonzero;stroke:none;stroke-width:1px;stroke-linecap:butt;stroke-linejoin:miter;stroke-opacity:1"
       id="path2409"
       d="M 19.303911,732.13769 C 18.257351,729.99111 16.931021,727.73461 14.920891,726.35625 C 14.765795,726.34758 14.6107,726.3389 14.455604,726.33023 C 15.099665,726.03035 15.681849,725.51055 16.387787,725.43058 C 16.646857,725.40124 16.147857,725.89697 16.073699,726.14693 C 15.973683,726.48405 15.919667,726.8338 15.868276,727.18166 C 15.772626,727.82913 15.68911,729.05167 15.63894,729.69634 C 15.647438,730.00825 15.606383,730.32549 15.664434,730.63207 C 15.819798,731.45258 16.239768,730.64375 16.202475,730.65287 C 15.546754,730.81325 14.978703,731.50294 14.31412,731.38453 C 13.941456,731.31814 14.726228,730.74927 14.920699,730.42451 C 15.114244,730.1013 15.292121,729.76896 15.477832,729.44119 C 19.077447,724.48215 21.053622,726.85553 22.863774,730.52807 C 24.35631,734.39962 24.562919,738.54487 24.362162,742.6423 C 23.83552,747.80457 22.456167,748.08923 17.943971,750.42608 C 17.730357,750.32814 17.516744,750.23019 17.303131,750.13225 L 17.382488,750.0714 C 18.177992,749.70695 18.973496,749.34249 19.768999,748.97804 C 19.394025,749.22526 19.046894,749.52105 18.644077,749.7197 C 18.340674,749.86932 19.220956,749.35814 19.467644,749.12665 C 20.82028,747.85737 21.079931,745.91124 21.313373,744.17311 C 21.594043,740.12629 21.41952,735.9951 19.997988,732.15235 C 19.482546,731.02736 19.285609,730.35423 18.469804,729.43523 C 18.241294,729.17781 17.978717,728.93347 17.668999,728.78329 C 17.448837,728.67653 16.774063,728.87305 16.940454,728.69366 C 17.468759,728.12408 18.180498,727.7157 18.909144,727.44624 C 19.229758,727.32768 18.457526,727.95951 18.231716,728.21614 C 18.164694,728.32855 17.092468,730.14749 16.990197,730.23648 C 15.107278,731.87483 13.244556,733.91151 13.17774,730.92726 C 13.325591,728.87875 13.426761,723.90909 17.076117,724.99558 C 18.975372,726.59719 19.884005,729.10488 20.693839,731.38085 L 19.303911,732.13769 z" />
    <path
       style="fill:#000000;fill-opacity:1;fill-rule:nonzero;stroke:none;stroke-width:1px;stroke-linecap:butt;stroke-linejoin:miter;stroke-opacity:1"
       id="path2411"
       d="M 24.204619,723.92465 C 24.85327,725.26276 26.284633,732.02478 27.691179,732.20155 C 27.988109,732.23887 28.195304,731.87891 28.447367,731.71759 C 27.701756,731.95003 26.805801,732.92051 26.210535,732.41492 C 25.699426,731.98081 26.903855,731.26608 27.218649,730.67398 C 28.373623,728.50155 29.157327,726.22174 30.89102,724.4291 C 32.286386,723.78378 33.57633,722.82649 35.077118,722.49315 C 35.462592,722.40753 35.700586,722.99181 35.936522,723.30844 C 37.155693,724.94459 37.673434,727.17244 38.313948,729.07175 C 38.638199,729.74766 38.603789,730.50833 38.80422,731.21238 C 39.158028,732.45518 41.09071,731.89285 36.330381,732.89009 C 36.032221,732.95255 36.67105,732.37861 36.778277,732.09347 C 36.957536,731.61679 37.048679,731.11148 37.18388,730.62048 C 38.226598,727.80524 38.150955,723.90717 40.01085,721.46694 C 41.247547,720.96869 42.395552,720.11715 43.720942,719.97219 C 44.510763,719.88581 45.019748,728.12101 45.044962,728.83638 C 44.795382,731.00389 45.463115,734.9724 44.59302,736.9727 C 44.377334,737.46856 43.93548,737.83131 43.60671,738.26061 L 43.517124,738.30504 C 43.248332,738.18182 42.875947,738.18061 42.710749,737.93537 C 41.834338,736.63431 42.243772,732.10817 41.809233,730.51082 C 41.619297,728.44355 41.520494,726.35508 41.162852,724.30734 C 41.077933,723.82112 40.980841,723.33597 40.850318,722.85997 C 40.773943,722.58143 40.350279,722.26399 40.543763,722.04957 C 41.312039,721.19814 42.42265,720.73408 43.362093,720.07634 C 41.430323,721.63323 40.668345,726.90047 39.98034,729.28328 C 39.961636,729.36126 39.399513,731.70708 39.397349,731.70866 C 35.82021,734.3132 35.996595,733.61224 34.937742,730.93521 C 34.42319,729.46475 33.893266,727.96815 33.20014,726.56962 C 33.001555,726.16894 32.795188,725.76756 32.530564,725.40706 C 32.361665,725.17697 31.733857,725.03783 31.912069,724.81488 C 32.574413,723.98623 33.632436,723.57322 34.49262,722.95239 C 30.652749,726.18148 31.094831,732.3784 25.457663,734.0489 C 25.131172,734.09205 24.785139,734.29767 24.478188,734.17834 C 22.87148,733.55372 21.86985,727.38127 20.957895,725.73324 L 24.204619,723.92465 z" />
    <path
       style="fill:#000000;fill-opacity:1;fill-rule:nonzero;stroke:none;stroke-width:1px;stroke-linecap:butt;stroke-linejoin:miter;stroke-opacity:1"
       id="path2413"
       d="M 39.115795,706.12747 C 39.514205,703.08868 39.897573,699.62659 41.706433,697.02662 C 42.205641,696.30908 42.860175,695.71317 43.437046,695.05644 C 43.795499,694.62648 44.153951,694.19651 44.512403,693.76655 L 44.604016,693.72646 C 44.452186,694.06244 44.300356,694.39842 44.148526,694.7344 C 44.222349,695.08799 44.402413,695.43542 44.369995,695.79517 C 44.320391,696.34563 44.058811,696.85587 43.909404,697.38799 C 43.26889,699.66918 42.721884,701.98417 42.613142,704.36146 L 39.115795,706.12747 z" />
    <path
       style="fill:#000000;fill-opacity:1;fill-rule:nonzero;stroke:none;stroke-width:1px;stroke-linecap:butt;stroke-linejoin:miter;stroke-opacity:1"
       id="path2415"
       d="M 49.716906,718.67536 C 50.345651,720.63016 51.114055,722.53324 51.849062,724.4489 C 52.795873,727.06554 53.263101,729.81977 53.846769,732.53224 C 53.850952,732.55276 54.141057,734.26886 54.356173,734.50953 C 54.422236,734.58344 54.70813,734.3288 54.615316,734.36363 C 53.718166,734.70021 52.894236,735.50537 51.940213,735.41591 C 51.49735,735.37438 52.240436,734.57818 52.371916,734.15325 C 52.542804,733.60097 52.68865,733.04124 52.847017,732.48523 C 53.921122,728.39673 54.747423,726.1442 59.36236,724.8196 C 59.703753,724.72161 59.919453,725.26034 60.198,725.48071 C 62.221834,728.66743 62.416363,732.61918 62.445074,736.29612 C 62.2772,740.9233 62.537147,735.41217 62.207074,739.11518 C 62.193331,739.26936 62.386223,739.53453 62.237821,739.57852 C 61.843333,739.69548 61.165835,739.85067 61.008171,739.47062 C 60.907012,739.22677 62.217371,737.25989 62.621349,736.62339 C 64.529599,733.53737 67.770844,731.93757 70.466469,729.72353 C 70.570555,729.52527 70.749349,729.35074 70.778728,729.12875 C 70.91764,728.07914 69.092537,727.02058 68.319939,726.78205 C 68.029037,726.69224 67.715789,726.70613 67.413714,726.66817 C 67.148649,726.82987 66.310246,727.1162 66.61852,727.15328 C 67.208625,727.22424 67.968454,726.33737 68.362566,726.78227 C 68.764238,727.23571 67.964132,727.92893 67.828639,728.51934 C 67.298024,730.83151 67.295984,733.15543 67.289826,735.51116 C 67.362533,736.63798 67.363128,737.8568 67.684866,738.96086 C 67.760351,739.21989 67.820633,739.54328 68.051864,739.68231 C 68.182121,739.76062 68.555148,739.3704 68.404976,739.39383 C 65.916037,739.78217 66.038879,740.8656 66.900534,738.34832 C 67.427323,736.67757 67.66231,734.93803 68.043829,733.23473 C 68.101922,732.97536 68.011703,732.55494 68.262884,732.46804 C 72.072589,731.15005 71.473652,731.23304 72.318047,733.67262 C 73.571037,738.02146 75.061493,742.3058 75.893265,746.76158 C 76.215616,751.10711 74.748594,753.26099 71.340436,755.74152 C 68.252162,757.38386 69.707044,756.65886 66.991015,757.94684 L 67.0692,757.88449 C 68.569896,757.14647 67.980462,757.5847 68.930265,756.7048 C 71.487342,754.52175 73.195949,751.94935 72.726027,748.4416 C 72.074526,743.96628 70.434262,739.71234 69.237228,735.36428 C 68.477874,732.76773 68.18037,733.58169 71.203462,731.08368 C 71.411801,730.91152 71.006496,731.58765 70.928563,731.84644 C 70.409276,733.57077 70.102492,735.34926 69.598632,737.07787 C 68.800587,739.71661 69.354976,738.98332 66.004582,741.2331 C 65.839887,741.3437 65.563943,741.3176 65.410904,741.19137 C 64.346462,740.31339 64.828898,737.93704 64.623715,736.87163 C 64.599457,735.21086 64.669711,729.19125 65.710541,727.95021 C 67.579023,725.7223 67.916154,725.71044 69.713312,725.06495 C 70.865259,725.3767 73.07113,726.66618 72.862242,728.18994 C 72.825729,728.45629 72.616251,728.66805 72.493256,728.9071 C 69.73553,731.17313 66.399956,732.79056 64.350253,735.86568 C 63.129559,737.65805 62.599316,739.23259 60.613166,740.42493 C 60.481821,740.50378 60.600545,740.11623 60.560456,739.96838 C 59.726456,736.89239 60.812341,741.80446 59.938242,737.60504 C 59.247767,734.18747 58.861221,730.52873 57.060109,727.48363 C 55.630238,726.68245 55.801307,727.04759 58.758668,725.44686 C 59.088045,725.26858 58.184449,725.93838 57.963869,726.24107 C 56.947625,727.63558 56.547599,729.38038 56.006134,730.98147 C 55.952723,731.18072 55.251638,733.87489 55.147579,733.97694 C 51.857552,737.2034 51.428458,737.25676 50.742396,734.19599 C 50.183706,731.48094 49.716821,728.73416 48.878294,726.08751 C 48.28195,724.09174 47.768495,722.07352 47.155347,720.08241 L 49.716906,718.67536 z" />
    <path
       style="fill:#000000;fill-opacity:1;fill-rule:nonzero;stroke:none;stroke-width:1px;stroke-linecap:butt;stroke-linejoin:miter;stroke-opacity:1"
       id="path2417"
       d="M -63.311824,784.02974 C -62.006564,789.67936 -61.382916,795.45917 -60.837505,801.2231 C -60.900346,802.95689 -59.570584,808.93527 -60.707583,810.33445 L -63.076363,811.60766 C -63.194057,811.59304 -63.357349,811.65797 -63.429446,811.56381 C -63.563883,811.38821 -63.546619,811.13728 -63.60067,810.92284 C -64.237402,808.39669 -64.28058,805.7657 -64.596392,803.1887 C -65.269109,797.47949 -65.780113,791.71393 -67.146546,786.11879 L -63.311824,784.02974 z" />
    <path
       style="fill:#000000;fill-opacity:1;fill-rule:nonzero;stroke:none;stroke-width:1px;stroke-linecap:butt;stroke-linejoin:miter;stroke-opacity:1"
       id="path2419"
       d="M -50.765315,784.67783 C -54.339228,784.69865 -57.838857,785.41265 -61.156817,786.71312 C -64.707483,788.57174 -60.958243,786.60657 -60.969029,786.62371 C -61.343958,787.2196 -62.159348,787.37806 -62.725855,787.79606 C -63.113298,788.08193 -63.459425,788.41993 -63.82621,788.73186 L -63.918336,788.77076 C -63.845474,788.57909 -63.747351,788.39521 -63.699749,788.19576 C -63.659973,788.0291 -63.795613,787.78653 -63.658811,787.68337 C -61.685288,786.19511 -60.286091,785.51415 -58.321558,784.48708 C -54.884118,783.14484 -51.267193,782.41398 -47.567844,782.35473 L -50.765315,784.67783 z" />
    <path
       style="fill:#000000;fill-opacity:1;fill-rule:nonzero;stroke:none;stroke-width:1px;stroke-linecap:butt;stroke-linejoin:miter;stroke-opacity:1"
       id="path2421"
       d="M -53.148484,793.82065 C -56.056347,795.892 -58.962269,796.95403 -61.182227,798.17205 L -61.275473,798.20818 C -59.766139,797.00163 -58.056393,796.06715 -56.395687,795.0864 C -55.853064,794.76595 -54.160069,793.95636 -54.766744,794.12687 C -55.397381,794.30411 -55.902209,794.78047 -56.469941,795.10727 L -53.148484,793.82065 z" />
    <path
       style="fill:#000000;fill-opacity:1;fill-rule:nonzero;stroke:none;stroke-width:1px;stroke-linecap:butt;stroke-linejoin:miter;stroke-opacity:1"
       id="path2423"
       d="M -48.054887,804.88901 C -43.916649,801.95195 -39.58287,798.89723 -34.746339,797.26301 C -31.731749,796.8046 -29.980587,798.74067 -29.831194,801.71039 C -29.79827,802.36489 -29.935672,803.01687 -29.987911,803.6701 C -31.552636,808.90699 -36.217285,811.79619 -41.085716,813.72003 C -41.883129,814.03514 -42.771228,814.03578 -43.613984,814.19366 C -46.70676,814.25184 -50.743244,812.67453 -50.372596,808.87779 C -50.315239,808.29024 -50.028262,807.74844 -49.856095,807.18377 C -48.838949,805.3483 -47.303128,804.08971 -45.489486,803.08319 C -42.424541,801.38224 -40.470938,800.20045 -37.282813,799.58543 C -37.071883,799.67069 -36.860954,799.75594 -36.650025,799.84119 L -36.729242,799.90222 C -37.544013,800.28376 -38.358784,800.66531 -39.173555,801.04685 C -39.849622,801.30639 -40.527038,801.56245 -41.201755,801.82548 C -41.856725,802.08081 -42.474026,802.7437 -43.162561,802.60192 C -43.676498,802.4961 -41.382004,801.52878 -41.882854,801.68523 C -43.718284,802.25859 -45.167026,804.0315 -46.253384,805.49318 C -46.44481,806.00802 -46.738009,806.49579 -46.827662,807.03771 C -47.395749,810.47156 -43.846441,812.19487 -40.99379,812.21923 C -40.232289,812.09437 -39.479978,811.80576 -38.709288,811.84464 C -38.537463,811.85331 -39.051885,812.40229 -38.898201,812.32495 C -35.990541,810.86181 -33.851746,808.2578 -32.968296,805.15921 C -32.700037,801.71705 -33.274014,798.67701 -37.480475,799.39282 C -38.037736,799.59224 -38.588411,800.17106 -39.152259,799.9911 C -39.581969,799.85395 -37.627098,799.04399 -38.045516,799.21247 C -40.528434,800.21226 -42.612012,802.18333 -44.848924,803.59787 L -48.054887,804.88901 z" />
    <path
       style="fill:#000000;fill-opacity:1;fill-rule:nonzero;stroke:none;stroke-width:1px;stroke-linecap:butt;stroke-linejoin:miter;stroke-opacity:1"
       id="path2425"
       d="M -24.018414,801.4925 C -23.151932,805.53391 -21.840009,809.46568 -20.439788,813.34929 C -20.285427,813.62362 -20.215819,813.96757 -19.976705,814.17229 C -19.894556,814.24262 -19.648015,813.91212 -19.753238,813.93709 C -20.719469,814.16634 -21.684623,815.16685 -22.605873,814.7961 C -22.753392,814.73673 -21.23435,808.56027 -21.079533,807.99084 C -18.930507,801.39101 -16.225804,800.30155 -10.348754,797.29154 C -7.6650861,796.59372 -4.8764651,796.78328 -2.1342244,796.61553 C -0.43387857,796.52975 1.2103939,796.19861 2.7677382,795.51183 C 2.6892117,795.74555 2.6859404,796.02026 2.5321588,796.21297 C 2.0458591,796.82239 1.2902584,797.15957 0.71618078,797.68712 C -0.32112074,798.64035 -1.2484178,799.69339 -2.1810816,800.7462 C -4.0391835,803.19363 -2.4611308,803.53004 -0.22394088,804.23489 C 2.9784705,805.26495 4.6594369,806.4974 5.2408537,809.92785 C 5.1624929,810.41158 5.1755335,810.91935 5.0057713,811.37903 C 3.6924881,814.9352 -2.4554995,816.96838 -5.9700006,817.72184 C -6.5178333,817.69397 -11.923389,819.11917 -9.7456471,816.9603 C -9.4050396,816.62264 -9.0001113,816.35675 -8.6273433,816.05497 L -8.5351371,816.01627 C -8.5588931,816.15035 -8.7140826,816.33516 -8.6064051,816.41851 C -8.4911913,816.5077 -8.3346937,816.3064 -8.1909293,816.28272 C -6.5381546,816.01052 -4.8051344,816.10111 -3.1793823,815.59637 C -2.4996628,815.42974 -1.811073,815.29585 -1.1402238,815.09648 C -0.47124927,814.89768 0.16096254,814.22371 0.83535634,814.40328 C 1.3366986,814.53677 -0.60547217,815.77526 -0.45058133,815.28011 C -0.27914191,814.73206 0.50341801,814.62499 0.89684707,814.20671 C 1.8325713,813.21186 1.728347,812.8997 1.9939274,811.65165 C 1.4548223,808.48416 -0.28523386,807.2108 -3.270161,806.30485 C -5.7101424,805.4855 -7.3832762,804.81713 -5.500441,802.14281 C -4.6062485,801.15241 -1.6211378,797.79431 -0.50000553,797.38855 C -0.25135462,797.29856 0.027255158,797.42978 0.2908855,797.45039 C -1.1479695,797.86142 -2.6061827,798.09891 -4.1105913,798.0641 C -7.0141936,798.1262 -9.9690767,798.08825 -12.72057,799.16442 C -12.332836,798.87429 -11.075355,798.24735 -11.557368,798.29403 C -12.143578,798.35079 -12.598329,798.85287 -13.075021,799.19874 C -15.518181,800.97144 -16.857664,803.63908 -17.810078,806.4306 C -18.556945,809.30626 -18.396981,808.48189 -18.928588,811.32359 C -19.045829,811.9503 -18.86629,812.70594 -19.260062,813.2074 C -21.381051,815.9084 -22.525456,817.44631 -23.546653,815.06807 C -24.911518,811.15376 -26.158579,807.19055 -27.14881,803.1638 L -24.018414,801.4925 z" />
    <path
       style="fill:#000000;fill-opacity:1;fill-rule:nonzero;stroke:none;stroke-width:1px;stroke-linecap:butt;stroke-linejoin:miter;stroke-opacity:1"
       id="path2427"
       d="M 8.4000632,798.7859 C 10.407007,802.09817 11.051275,805.95417 11.200586,809.76586 C 11.156219,811.47932 11.186682,812.27394 10.213016,813.66538 L 9.2484151,814.14922 C 7.9857139,813.48201 8.636757,812.63858 8.3088552,811.26301 C 7.9670592,807.54708 7.4522672,803.78908 5.4336876,800.55722 L 8.4000632,798.7859 z" />
    <path
       style="fill:#000000;fill-opacity:1;fill-rule:nonzero;stroke:none;stroke-width:1px;stroke-linecap:butt;stroke-linejoin:miter;stroke-opacity:1"
       id="path2429"
       d="M 7.2592026,788.13163 C 7.4636308,785.2422 8.3889526,783.36768 10.322889,781.26275 L 10.413815,781.22112 C 11.329977,782.67419 10.672854,784.73428 10.775475,786.37416 L 7.2592026,788.13163 z" />
    <path
       style="fill:#000000;fill-opacity:1;fill-rule:nonzero;stroke:none;stroke-width:1px;stroke-linecap:butt;stroke-linejoin:miter;stroke-opacity:1"
       id="path2431"
       d="M 17.961087,800.00294 C 19.227276,803.25783 19.731112,806.72993 20.184133,810.17225 C 20.224046,810.68379 20.335722,812.25849 20.41934,812.84231 C 20.451574,813.06736 20.431432,813.32475 20.565206,813.50858 C 20.621792,813.58634 20.827719,813.25361 20.733846,813.27449 C 19.952525,813.44835 19.120358,814.40181 18.439055,813.98167 C 17.912728,813.65711 18.831718,812.80896 19.028049,812.2226 C 20.564519,807.84236 21.294427,803.11609 23.541365,799.01624 C 28.960842,793.5958 29.125049,799.15937 29.525744,803.01695 C 29.756171,807.46191 29.540389,811.91725 28.808571,816.30687 C 28.268548,817.79769 28.741665,817.17074 27.277812,818.09821 L 27.147737,818.15722 C 25.949586,818.5472 26.258224,818.78906 26.081546,817.66023 C 26.259552,813.33839 26.663358,809.00842 26.332829,804.68235 C 26.19853,803.14455 26.18604,802.29388 25.846074,800.8303 C 25.744258,800.39198 25.637551,799.94851 25.448288,799.54025 C 25.335166,799.29624 24.785123,799.11372 24.952801,798.90343 C 25.579185,798.11786 26.577082,797.72026 27.380524,797.11697 C 27.622445,796.93531 26.885258,797.46454 26.637625,797.63833 C 24.184645,801.64789 23.476914,806.48112 21.921478,810.86414 C 20.989597,813.65103 21.601418,812.91473 18.153711,815.18889 C 17.410987,815.67881 17.525018,811.775 17.394202,811.63487 C 17.044071,808.20069 16.534481,804.74968 15.284402,801.51186 L 17.961087,800.00294 z" />
    <path
       style="fill:#000000;fill-opacity:1;fill-rule:nonzero;stroke:none;stroke-width:1px;stroke-linecap:butt;stroke-linejoin:miter;stroke-opacity:1"
       id="path2433"
       d="M 35.944806,784.9046 C 37.649037,790.49897 38.059557,796.38898 38.514703,802.18915 C 38.683045,805.43662 38.812348,808.68729 38.899954,811.93804 C 38.946391,813.66117 38.878984,815.36018 39.144462,817.06451 C 39.149147,817.95501 40.166879,816.74989 39.904001,816.80161 C 39.038635,816.97185 38.191655,818.21205 37.436462,817.7565 C 36.839232,817.39624 38.215007,816.59627 38.544434,815.98149 C 39.3326,814.51061 40.262208,812.18829 40.891137,810.69317 C 42.525946,806.56783 43.810859,802.32303 45.038731,798.06434 C 45.241275,796.73521 45.1684,796.76324 48.536327,796.9566 C 48.898664,796.97741 48.436691,797.67575 48.399528,798.03678 C 48.244299,799.54479 48.231648,801.0092 48.29366,802.52242 C 48.381269,805.57036 49.267879,808.49552 50.045885,811.41815 C 50.293229,812.77136 50.500883,813.15178 49.230331,813.81536 L 49.322896,813.77752 C 47.720076,814.9084 47.38027,815.11519 46.537366,813.34042 C 45.515377,810.44885 44.874163,807.44402 44.671169,804.37944 C 44.665945,803.79046 44.633173,799.02125 44.953739,798.71643 C 46.042179,797.68145 47.401317,796.97303 48.663981,796.15966 C 48.740882,796.11012 48.582371,796.3234 48.541565,796.40527 C 47.234684,800.67133 45.885893,804.92956 44.323961,809.11001 C 43.876835,810.21578 41.890566,815.42488 41.036003,816.22557 C 39.768788,817.4129 38.285646,818.35388 36.823331,819.29047 C 36.074442,819.77013 36.004936,819.37804 35.637715,818.91628 C 35.396075,817.17692 35.513024,815.42909 35.510042,813.6732 C 35.505241,810.84547 35.525801,810.49106 35.412277,807.51927 C 35.366043,806.30896 35.296011,805.09969 35.237878,803.88989 C 34.821488,798.10982 34.430019,792.24766 32.781777,786.66155 L 35.944806,784.9046 z" />
    <path
       style="fill:#000000;fill-opacity:1;fill-rule:nonzero;stroke:none;stroke-width:1px;stroke-linecap:butt;stroke-linejoin:miter;stroke-opacity:1"
       id="path2435"
       d="M 51.877984,805.87521 C 54.304951,803.67464 55.782488,801.50732 54.362611,798.27185 C 53.842752,797.84208 53.512269,797.34738 52.733771,797.51288 C 52.421853,797.57919 51.603156,798.08508 51.910552,798.00024 C 52.6894,797.78529 53.372023,796.97748 54.167836,797.11709 C 54.588243,797.19085 53.821949,797.90288 53.72491,798.31853 C 53.6069,798.824 53.592802,799.34822 53.526749,799.86307 C 53.540408,802.85765 54.305066,805.55598 56.091052,807.9468 C 57.718789,809.58391 59.682183,810.94969 61.767802,811.94622 C 62.287079,812.18147 62.201709,812.04268 61.519571,812.36732 L 61.611928,812.32898 C 59.865415,813.74151 60.747043,813.41884 59.161817,813.718 C 56.671248,813.18889 54.567092,811.71812 52.835939,809.87987 C 50.957201,807.41473 50.170694,804.57043 50.295329,801.45985 C 50.356998,800.94137 50.468436,798.96719 50.970368,798.48464 C 53.111642,796.42606 54.946464,794.44 56.90965,796.84262 C 58.20983,800.00983 57.193488,802.28693 54.899926,804.66734 L 51.877984,805.87521 z" />
    <path
       style="fill:#000000;fill-opacity:1;fill-rule:nonzero;stroke:none;stroke-width:1px;stroke-linecap:butt;stroke-linejoin:miter;stroke-opacity:1"
       id="path2437"
       d="M 66.089787,779.07814 C 68.071421,786.49276 67.907496,794.29713 67.694337,801.90487 C 67.367406,806.58895 66.847608,811.27741 65.676251,815.83482 C 65.603009,816.11979 64.647775,819.50981 64.206389,819.78552 C 63.799278,820.03982 63.246512,819.76916 62.766574,819.76098 L 62.855109,819.71449 C 62.428967,820.14089 62.175807,820.92685 61.576683,820.9937 C 61.159515,821.04025 61.886824,820.21227 62.004639,819.80938 C 62.247881,818.97758 62.465808,818.13799 62.658837,817.29313 C 63.698726,812.74167 64.398996,808.11563 64.641889,803.44968 C 64.843386,795.8794 64.776699,788.20187 63.012972,780.79208 L 66.089787,779.07814 z" />
    <path
       style="fill:#000000;fill-opacity:1;fill-rule:nonzero;stroke:none;stroke-width:1px;stroke-linecap:butt;stroke-linejoin:miter;stroke-opacity:1"
       id="path2443"
       d="M 79.638129,798.73878 C 77.331773,800.66739 75.743195,803.18357 74.341971,805.80089 C 73.223712,807.77644 74.572545,807.09988 75.92622,806.95116 C 78.115293,806.51477 79.911441,806.79767 81.535245,808.35925 C 83.074792,810.00823 83.912733,812.0706 83.863922,814.31774 C 82.842877,817.78598 78.649015,819.00614 75.371231,819.48598 C 74.40989,819.59049 73.173635,819.81274 72.524823,818.92919 L 72.605459,818.87004 C 74.345647,818.30822 76.113056,817.81023 77.9286,817.55742 C 78.416003,817.45434 78.908583,817.37325 79.390811,817.24817 C 81.215759,816.77481 81.551997,816.28669 78.840384,818.08276 C 78.547501,818.27676 79.458155,817.73712 79.721726,817.50486 C 80.338434,816.96142 80.308777,816.73382 80.555987,815.99545 C 80.589284,813.81902 79.807948,811.96283 78.370382,810.32204 C 76.601524,808.84495 75.219991,808.76396 72.982921,809.13798 C 71.31477,809.31246 69.81525,809.34501 71.133145,807.23647 C 72.631266,804.61383 74.273642,802.0513 76.524401,800.00108 L 79.638129,798.73878 z" />
    <path
       style="fill:#000000;fill-opacity:1;fill-rule:nonzero;stroke:none;stroke-width:1px;stroke-linecap:butt;stroke-linejoin:miter;stroke-opacity:1"
       id="path2445"
       d="M 88.670443,801.02279 C 91.155634,802.9169 94.508629,803.78882 97.521811,802.62436 C 98.158929,802.37814 98.717119,801.96299 99.314773,801.63231 C 98.722588,801.80214 97.99603,802.55404 97.538219,802.14181 C 97.136833,801.78039 98.151635,801.22628 98.281634,800.70203 C 98.67956,799.09731 97.451261,797.76161 96.054119,797.20949 C 95.524165,797.00006 94.935346,796.99226 94.37596,796.88364 C 93.829646,796.99305 92.717474,797.76869 92.737018,797.21187 C 92.758256,796.60677 94.097123,795.9312 94.390806,796.46067 C 94.707817,797.0322 93.506542,797.43514 93.172419,797.99684 C 92.069549,799.85088 91.84586,801.8805 91.712141,803.97345 C 91.980737,809.25923 96.089383,810.08816 100.49967,811.1198 C 102.83082,811.86377 105.76652,811.65422 108.03643,812.61156 C 108.42498,812.77543 108.693,813.14091 109.02128,813.40559 L 108.93991,813.46373 C 108.00742,813.62896 107.08553,813.87329 106.14244,813.95943 C 103.21724,814.22661 100.23833,813.72949 97.362596,813.28782 C 92.466922,812.07924 88.694198,811.45809 88.318412,805.67055 C 88.80417,800.06393 90.653329,795.4702 97.317064,794.84794 C 99.457557,795.42795 101.93575,796.41831 101.49693,799.23537 C 101.41236,799.77832 101.27287,800.38591 100.87059,800.76024 C 99.540045,801.99832 97.917667,802.87992 96.441205,803.93976 C 95.82573,804.24442 95.243541,804.6285 94.594779,804.85374 C 91.366393,805.97463 87.991419,805.09947 85.359525,803.05113 L 88.670443,801.02279 z" />
    <path
       style="fill:#800000;fill-opacity:1;fill-rule:nonzero;stroke:none;stroke-width:1px;stroke-linecap:butt;stroke-linejoin:miter;stroke-opacity:1"
       id="path2449"
       d="M -57.311299,793.20833 C -55.281,792.62751 -53.273476,791.96124 -51.228325,791.43323 C -50.176814,791.23507 -51.680912,792.28055 -51.865266,792.44606 L -51.944455,792.50713 C -52.845468,793.12749 -53.715953,793.81933 -54.769343,794.16461 C -56.82133,794.83638 -58.907144,795.40067 -60.971433,796.03279 L -57.311299,793.20833 z" />
    <path
       style="fill:#800000"
       id="path2451"
       d="M 99.843441,758.54706 C 99.055823,754.63792 98.063055,750.77471 97.17438,746.88811 C 96.426291,743.47305 95.949868,740.01432 95.772987,736.52468 C 95.674521,734.48319 95.597866,732.43033 95.658137,730.3858 C 95.575205,729.29896 95.727161,728.20204 95.626583,727.11919 C 95.67583,726.42803 95.620684,725.73512 95.661115,725.04379 C 95.659739,724.69516 95.621492,724.35398 95.574285,724.00919 C 94.972402,721.99855 99.209724,721.62312 100.80201,721.65588 C 101.88675,721.658 102.96349,721.53351 104.04973,721.50803 C 105.78334,721.44301 107.52063,721.38275 109.25572,721.40942 C 110.85496,721.40171 112.45378,721.36311 114.05264,721.37771 C 115.51726,721.27957 116.984,721.23142 118.45015,721.16454 C 119.94811,721.32021 121.42879,721.64163 122.88696,722.01285 C 124.36477,722.43161 125.87353,722.82379 127.40726,722.96243 C 127.9284,723.08437 128.45341,723.04894 128.97832,723.12592 C 129.67053,723.26737 130.37246,723.36912 131.07077,723.48959 C 131.48459,723.47187 131.86366,723.62424 132.26276,723.70266 C 132.40302,723.74232 132.61669,723.82063 132.7165,723.84772 C 132.806,723.87817 133.04591,724.12466 133.15208,724.26551 C 133.33722,724.36111 133.43174,724.55995 133.62718,724.61391 C 133.85668,725.62651 133.71308,726.6989 133.67869,727.72901 C 133.57228,730.20047 133.3747,732.67245 133.31775,735.14799 C 133.22316,737.03858 133.19169,738.93265 133.21555,740.82559 C 133.19757,742.54218 133.20568,744.26002 133.22801,745.97644 C 133.21673,747.36968 133.20558,748.76345 133.23845,750.15609 C 133.25346,751.26858 133.19773,752.38468 133.24383,753.49643 C 133.21838,754.37961 133.19773,755.26755 133.38913,756.13387 C 133.55658,756.91174 133.67778,757.68023 133.76826,758.46777 C 133.75663,759.30755 133.83551,760.13794 133.78386,760.97572 C 133.74973,761.63925 133.80122,761.40241 133.32266,761.52148 C 132.92755,761.61978 132.69958,762.04651 132.40438,762.32692 L 132.25002,762.44744 C 132.01917,762.60049 129.83106,764.42726 129.77212,763.02069 C 129.71512,762.20523 129.78821,761.39149 129.6982,760.57596 C 129.68385,759.79981 129.54563,759.038 129.35396,758.28576 C 129.20913,757.38126 129.14173,756.48665 129.17628,755.56895 C 129.22058,754.45532 129.1679,753.33771 129.18131,752.22341 C 129.21293,750.82787 129.20218,749.43126 129.18817,748.03518 C 129.208,746.312 129.21209,744.58787 129.20793,742.86439 C 129.2553,740.95511 129.27614,739.04833 129.36481,737.14005 C 129.5262,734.66916 129.64165,732.19276 129.72015,729.71891 C 129.78517,728.85536 129.79678,727.7094 129.86185,726.96704 C 129.74645,726.83343 129.60512,726.69611 129.45683,726.56637 C 129.33833,726.49681 129.09122,726.29089 129.10622,726.31407 C 128.97183,726.27321 128.78771,726.24645 128.6321,726.20917 C 128.25712,726.09543 127.86673,726.10635 127.48896,726.0171 C 126.78303,725.94042 126.09663,725.76752 125.39442,725.6716 C 124.84972,725.63641 124.31063,725.61146 123.76867,725.52451 C 122.263,725.19911 120.73083,724.98707 119.25564,724.51754 C 117.82892,724.16721 116.37009,723.79806 114.89745,723.76383 C 113.43593,723.79364 111.97917,723.91763 110.51809,723.94554 C 108.94558,723.95859 107.37321,723.91959 105.8002,723.92273 C 104.08507,723.965 102.36845,723.93418 100.65353,723.9982 C 99.584115,724.06544 98.514221,724.14761 97.442551,724.1008 C 95.367656,724.17434 95.290922,724.72984 99.17495,722.04264 C 99.218234,722.0127 99.067616,722.27173 99.134268,722.19521 C 99.089393,722.56963 99.050207,722.94104 99.047577,723.31841 C 99.089569,723.9993 99.030392,724.68183 99.077077,725.36267 C 98.976584,726.46158 99.099264,727.57302 99.016262,728.67566 C 99.069356,730.71767 98.990213,732.76118 99.105078,734.80285 C 99.326581,738.27636 99.6452,741.75346 100.40082,745.15785 C 101.17694,749.07894 102.19011,752.94737 102.99149,756.86372 L 99.843441,758.54706 z" />
    <path
       style="fill:#008080"
       id="path2453"
       d="M 132.6644,766.70283 C 133.30701,770.48652 133.59433,774.31538 133.92799,778.13483 C 134.21518,781.33855 134.50332,784.54068 134.93309,787.72877 C 135.19227,789.69668 135.60257,791.63726 135.96321,793.58413 C 136.0307,793.93694 136.14832,794.28927 136.24103,794.61363 C 136.26014,794.74395 136.29575,794.87244 136.30222,795.00399 C 136.98803,794.99458 137.63596,794.71745 138.24529,794.42841 C 140.13508,793.58114 141.91786,792.5204 143.71881,791.50352 C 145.81162,790.33053 147.94274,789.22787 150.16327,788.31745 C 152.42228,787.51828 154.81746,787.35371 157.18422,787.14971 C 160.14132,786.93775 163.09032,786.62828 166.03943,786.32751 C 169.21452,786.06456 172.38871,785.82581 175.55621,785.47876 C 178.68637,785.129 181.81713,784.80597 184.95995,784.59253 C 188.0205,784.40028 191.08673,784.39013 194.15137,784.33411 C 196.72855,784.30349 199.30351,784.32162 201.87924,784.40656 C 204.55727,784.5447 207.22708,784.81469 209.89672,785.06384 C 212.96962,785.22043 216.04663,785.26991 219.11865,785.43742 C 222.85749,785.68471 226.59664,785.91429 230.33686,786.13669 C 233.2637,786.29665 236.18848,786.47629 239.11407,786.65767 C 240.57617,786.70028 242.01584,786.95054 243.46749,787.10029 C 245.51264,787.21301 247.56113,787.20209 249.60844,787.21235 C 252.31543,787.24096 255.02085,787.20577 257.72708,787.15792 C 259.51376,787.11074 261.29013,786.92658 263.07069,786.79519 C 264.83286,786.58069 265.00596,786.47203 259.68898,788.78637 C 259.57507,788.83595 259.72901,788.53898 259.72066,788.41503 C 259.67545,787.74348 259.57044,787.66531 259.29362,786.99889 C 258.19028,784.74521 257.11081,782.47681 256.03439,780.20764 C 254.94149,777.84006 254.25086,775.34072 253.55372,772.83958 C 253.1641,771.22592 252.84558,769.61012 252.28499,768.04415 C 251.69132,766.41183 251.5874,764.69199 251.35418,762.98972 C 251.21666,761.82536 251.1994,760.6453 251.04345,759.48377 C 251.02261,758.89892 251.00562,758.31262 250.90379,757.73205 C 250.70394,756.71297 250.4415,755.70575 250.17128,754.70453 C 250.13166,753.64693 251.65746,753.17948 252.45234,752.87742 L 252.37287,752.93813 C 252.84612,752.62241 253.75077,751.79921 254.17847,752.51005 C 254.52087,753.50246 254.83556,754.49869 255.04394,755.53216 C 255.1475,756.13524 255.20286,756.71426 255.2194,757.32094 C 255.22247,758.49114 255.42058,759.65492 255.53476,760.81718 C 255.5784,762.49306 255.84847,764.19118 256.39804,765.77538 C 256.91321,767.36575 257.29787,768.97715 257.68169,770.60574 C 258.25153,773.10751 258.97392,775.59723 260.11949,777.90179 C 261.12357,780.21358 262.24232,782.4654 263.42479,784.6907 C 264.55071,787.57027 264.16878,789.22885 259.25506,789.62235 C 257.49067,789.82082 255.70987,789.89818 253.93561,789.93041 C 251.21043,790.04816 248.48294,790.01351 245.75577,790.00884 C 243.70867,790.00072 241.65724,789.99942 239.61483,789.84911 C 238.16607,789.74709 236.73691,789.48547 235.28543,789.40923 C 232.36663,789.28733 229.46099,789.0023 226.5431,788.85998 C 222.7995,788.65344 219.05902,788.41446 215.31776,788.17174 C 212.25201,788.05033 209.1821,787.97773 206.12187,787.76042 C 203.44951,787.57866 200.79005,787.22097 198.11079,787.12674 C 195.53701,787.05241 192.96273,787.05133 190.38801,787.07295 C 187.33568,787.06497 184.28178,787.14676 181.23529,787.33862 C 178.08816,787.56536 174.94915,787.88398 171.81567,788.25397 C 168.65669,788.54076 165.49958,788.83782 162.33609,789.07583 C 159.37294,789.37542 156.41295,789.71115 153.44098,789.91353 C 151.10253,790.07095 148.72448,790.35162 146.52136,791.18813 C 144.33714,792.09925 142.24305,793.20363 140.18119,794.36324 C 138.3878,795.38088 136.59264,796.4111 134.6972,797.22956 C 134.05489,797.47011 133.15625,797.85182 132.53406,797.36057 C 132.33039,797.12126 132.31562,796.93293 132.38523,796.73572 C 132.36379,796.36288 132.15643,796.01755 132.14665,795.63004 C 131.68468,793.68981 131.49368,791.69079 131.13749,789.72886 C 130.68415,786.52787 130.41512,783.30453 130.19047,780.08016 C 129.86164,776.27278 129.61696,772.44335 128.96461,768.67526 L 132.6644,766.70283 z" />
    <path
       style="fill:#800000"
       id="path2455"
       d="M 251.93942,750.50176 C 251.77956,747.97568 251.55784,745.4485 251.15033,742.94906 C 250.96062,741.56944 250.57971,740.2248 250.3525,738.85033 C 250.01487,737.53059 249.56414,736.24808 249.25026,734.92169 C 248.95377,733.53464 248.6258,732.15398 248.29912,730.77362 C 248.17651,730.13749 248.02869,729.5011 248.02196,728.8512 C 247.97501,728.55879 247.98418,728.25308 247.98363,727.96915 C 247.77464,726.81909 250.93718,725.73337 252.47193,725.75686 C 253.7341,725.89927 254.98978,725.86304 256.25926,725.79473 C 258.45508,725.67032 260.60622,725.20986 262.76005,724.79829 C 265.04524,724.44084 267.26016,723.81229 269.45941,723.11171 C 271.34681,722.50527 273.31189,722.20635 275.22409,721.6976 C 276.53944,721.35423 277.86117,721.02127 279.19347,720.75036 C 280.27428,720.56329 281.37597,720.46285 282.47304,720.46727 C 283.85292,720.58502 285.19111,720.96391 286.5194,721.33766 C 287.27493,721.76452 288.37765,721.54358 289.04983,722.07006 C 289.94113,722.8492 289.62024,724.75983 289.61903,725.8087 C 289.60922,729.30945 289.72645,732.80883 289.948,736.30213 C 290.03882,738.60401 290.16208,740.90336 290.15287,743.20766 C 290.23198,745.10155 290.43722,746.98418 290.72632,748.85655 C 291.02569,751.20384 291.54888,751.58174 289.68773,753.25776 L 289.60243,753.30996 C 289.12083,753.44036 288.65409,753.65153 288.15761,753.70116 C 287.26778,753.79012 287.30013,751.19204 287.11912,750.76326 C 286.83854,748.86944 286.53431,746.97322 286.54276,745.0528 C 286.47537,742.75967 286.47609,740.46349 286.3187,738.17389 C 286.1953,734.66925 285.96898,731.16805 285.99697,727.65932 C 285.9733,726.66051 286.21514,725.18443 285.62975,724.31915 C 284.7734,724.13494 283.9197,723.96669 283.08556,723.69521 C 281.77558,723.34802 280.4588,722.96856 279.09318,722.93953 C 278.00702,723.01117 276.91392,723.04627 275.84818,723.29447 C 274.54087,723.60835 273.22491,723.88643 271.9237,724.22842 C 270.00412,724.73353 268.03591,725.04911 266.14785,725.67477 C 263.95664,726.34918 261.74267,726.92011 259.47538,727.28134 C 257.3218,727.69733 255.16207,728.11365 252.96481,728.21138 C 251.71939,728.25829 250.48484,728.22983 249.24397,728.11656 C 248.68752,728.15834 248.51183,728.17175 248.51457,728.16964 C 249.4368,727.45837 251.90216,725.16796 251.41917,726.22774 C 251.40876,726.51341 251.41416,726.82618 251.38494,727.12285 C 251.42385,727.75335 251.43221,728.39014 251.59877,729.00758 C 251.84158,730.40899 252.24567,731.77419 252.50832,733.17236 C 252.77636,734.51165 253.25478,735.7895 253.5751,737.11675 C 253.96564,738.45763 254.16323,739.84873 254.42653,741.21849 C 254.76404,743.73556 255.0349,746.25872 255.23593,748.79086 L 251.93942,750.50176 z" />
    <path
       style="fill:#008080"
       id="path2457"
       d="M 295.00863,762.12257 C 296.02143,765.16911 296.96628,768.24114 297.70673,771.36602 C 298.22915,773.60458 298.28685,775.9056 298.7606,778.15129 C 299.23472,779.85141 299.3254,781.6048 299.52728,783.34534 C 299.79426,784.0565 299.29431,785.20425 299.70632,785.84911 C 299.85815,786.07176 300.10657,786.35442 300.38158,786.27541 C 301.78003,786.2742 303.1823,786.20367 304.57542,786.07832 C 306.62863,785.95988 308.6352,785.50866 310.61001,784.95944 C 312.5817,784.44878 314.52173,783.88136 316.41992,783.13999 C 318.56741,782.14841 320.83471,781.50184 323.15977,781.10155 C 325.62481,780.65922 328.10281,780.3026 330.59697,780.07781 C 332.81995,779.92418 335.04501,779.79513 337.26689,779.62194 C 339.34432,779.44584 341.40583,779.12441 343.48086,778.9134 C 345.51189,778.81054 347.52712,778.72679 349.50911,778.2597 C 351.37216,777.69121 353.18806,776.98715 355.04769,776.40746 C 356.92538,775.75758 358.87321,775.40125 360.84017,775.16614 C 362.38945,775.0329 363.94362,775.00467 365.49769,775.0213 C 367.08289,775.03145 368.67007,774.99682 370.25514,775.03193 C 371.51056,775.01039 372.76688,775.24612 373.99201,775.50988 C 375.55744,775.94668 377.102,776.40517 378.70339,776.69377 C 380.34827,776.94211 382.01476,776.92888 383.67271,776.97936 C 384.69975,776.97961 385.72621,776.96475 386.75348,776.98084 C 387.82965,776.94194 388.91607,776.91049 389.97684,776.71468 C 391.22647,776.48079 392.47677,776.35338 393.74443,776.46937 C 394.32161,776.29783 395.46772,777.10787 395.86273,776.69162 C 394.76089,777.23215 393.72091,777.92328 392.55722,778.3132 C 392.39259,778.36837 392.57731,777.96633 392.57667,777.79271 C 392.57585,777.57248 392.56617,777.35227 392.55285,777.13244 C 392.49152,776.12017 392.35634,775.11834 392.21756,774.11451 C 392.08876,772.0455 391.46239,770.08776 390.85758,768.12528 C 390.1509,766.25295 389.48764,764.3622 388.88821,762.45215 C 388.41549,761.20558 387.91509,759.92507 387.71063,758.60184 C 387.53855,757.54388 387.33344,756.49263 387.12825,755.43974 C 386.8911,754.19771 386.74201,752.95875 386.72696,751.6988 C 386.99621,750.94374 387.74248,750.48181 388.25379,749.87765 L 388.3436,749.83367 C 388.89651,750.02421 389.44883,749.63151 389.88523,750.03218 C 390.22957,751.19222 390.43382,752.37538 390.65313,753.56859 C 390.80546,754.62744 391.03852,755.6699 391.19818,756.72762 C 391.57464,758.0016 391.81536,759.31618 392.31616,760.5593 C 393.02461,762.43179 393.59994,764.35019 394.32459,766.21629 C 395.02299,768.17403 395.51526,770.18362 395.74944,772.25315 C 395.80245,772.63376 396.34593,776.40772 396.16128,776.57396 C 395.07682,777.55027 393.8141,778.30825 392.64051,779.17539 C 391.90942,779.05451 391.1889,778.88915 390.44854,778.83427 C 389.18308,778.80011 387.92809,778.95069 386.68634,779.1894 C 385.61015,779.35111 384.51388,779.40823 383.42564,779.40001 C 382.39522,779.42075 381.36472,779.42228 380.33478,779.39523 C 378.66281,779.38432 376.98527,779.30232 375.33014,779.05594 C 373.71649,778.77865 372.17338,778.25663 370.58374,777.87927 C 369.37867,777.62948 368.15321,777.46514 366.92099,777.45318 C 365.33552,777.47947 363.74861,777.43664 362.16307,777.44576 C 360.61238,777.47211 359.05877,777.46872 357.51538,777.64175 C 355.56373,777.86752 353.6481,778.30863 351.78523,778.93563 C 349.93508,779.54179 348.11727,780.25317 346.23378,780.75043 C 344.23374,781.16693 342.20892,781.21562 340.17643,781.36389 C 338.09614,781.55991 336.0334,781.91188 333.94834,782.06806 C 331.73218,782.20013 329.5169,782.34639 327.30326,782.51589 C 324.84675,782.73271 322.41223,783.10681 319.97913,783.5045 C 317.67118,783.9792 315.41613,784.63777 313.26468,785.61349 C 311.38457,786.31811 309.4596,786.84789 307.51328,787.33688 C 305.52098,787.86109 303.50135,788.24409 301.44194,788.38553 C 300.03866,788.43555 298.62648,788.58786 297.22606,788.47355 C 296.88966,788.27961 296.64028,788.03783 296.41253,787.70774 C 296.10559,786.87081 296.39897,785.91917 296.23965,785.04875 C 296.20126,783.30924 295.90365,781.57851 295.53392,779.88134 C 295.05258,777.62899 294.97637,775.33377 294.53505,773.0746 C 293.82089,769.9546 292.88239,766.89325 291.83855,763.86815 L 295.00863,762.12257 z" />
    <path
       style="fill:#800000"
       id="path2459"
       d="M 388.6252,739.87479 C 389.38393,737.47006 389.8677,734.99657 390.36164,732.52913 C 390.53717,731.14139 390.80936,729.76819 390.97279,728.37986 C 391.08386,727.49336 391.1466,726.58721 391.11173,725.69299 C 390.88668,725.40107 390.62194,725.2771 390.39846,724.96089 C 390.25552,724.3947 390.1092,723.81813 390.39308,723.28013 C 391.72645,720.71533 393.67552,721.47587 395.50147,721.88091 C 396.80161,722.08552 398.12858,722.11307 399.44186,722.0685 C 401.39008,722.03146 403.31501,721.75903 405.23071,721.42517 C 406.96591,721.05541 408.7172,720.75653 410.48226,720.57266 C 412.23864,720.38999 414.00397,720.38713 415.76706,720.34325 C 417.302,720.39218 418.83803,720.30154 420.37191,720.33947 C 421.79749,720.33228 423.22334,720.36199 424.64884,720.31062 C 426.65808,720.25192 428.66033,720.07259 430.66661,719.95996 C 431.68327,719.92623 432.699,719.83938 433.71605,719.84924 C 434.10578,719.7945 434.06276,719.81025 434.23061,720.17877 C 434.43192,721.79037 434.43116,723.44457 434.42089,725.07167 C 434.49706,727.60993 434.64671,730.14643 434.85038,732.67781 C 434.91799,734.57409 434.9855,736.46752 435.18556,738.35478 C 435.33199,739.40817 435.55896,740.45009 435.45126,741.51573 C 435.4087,742.60181 435.09322,743.52185 434.31241,744.277 C 433.91601,744.517 433.5196,744.757 433.12319,744.99701 L 433.03209,745.03825 C 432.71119,745.12614 432.39029,745.21402 432.06938,745.30191 C 431.60563,745.004 432.23869,743.66342 432.21232,743.14247 C 432.22316,742.09747 432.11699,741.07596 431.97258,740.03916 C 431.73251,738.15406 431.63611,736.27139 431.57276,734.37288 C 431.46842,731.82799 431.1974,729.29266 431.14784,726.74478 C 431.09552,725.15626 431.14285,723.56009 430.95301,721.98085 C 431.10456,722.17028 430.78804,722.08114 430.65311,722.08525 C 429.63457,722.13901 428.61372,722.13344 427.59584,722.21876 C 425.60234,722.34193 423.60842,722.47562 421.61174,722.53202 C 420.18171,722.57166 418.75147,722.56043 417.32167,722.55485 C 415.78995,722.58573 414.2562,722.49203 412.72361,722.5592 C 410.99175,722.55027 409.25756,722.60364 407.53283,722.76676 C 405.79235,722.97944 404.0615,723.24688 402.34308,723.59927 C 400.44257,723.92196 398.52425,724.12934 396.5945,724.14436 C 395.28932,724.14256 393.98154,724.08865 392.70159,723.8085 C 392.30218,723.68862 391.88918,723.52062 391.47693,723.45241 C 391.33827,723.42947 390.94635,723.50939 391.0564,723.42198 C 391.75439,722.86753 394.41705,721.13358 393.31752,721.99412 C 392.97615,722.41817 392.98818,722.86937 393.14965,723.38633 C 393.26793,723.7488 393.74319,723.9191 393.80687,724.33344 C 393.70172,725.26336 393.65068,726.19786 393.51959,727.12602 C 393.29943,728.51626 393.05486,729.89808 392.89109,731.29711 C 392.48293,733.79646 391.80031,736.24261 391.13254,738.68255 L 388.6252,739.87479 z" />
    <path
       style="fill:#008080"
       id="path2461"
       d="M 437.64309,754.46329 C 438.55631,757.63274 439.06141,760.91604 439.39607,764.19376 C 439.65549,766.07162 439.67247,767.9636 439.71238,769.85459 C 439.71597,771.23981 439.58887,772.64045 439.87506,774.00404 C 440.12524,774.73383 440.31996,775.49753 440.68735,776.17714 C 441.57848,776.31229 442.66764,775.96898 443.5511,775.7957 C 445.35111,775.48365 447.12594,775.03282 448.87639,774.51292 C 450.62282,773.90495 452.40188,773.41958 454.21125,773.04296 C 456.32568,772.58385 458.47756,772.33914 460.60634,771.96072 C 462.81397,771.52549 465.02915,771.12856 467.24791,770.75419 C 469.2647,770.4393 471.21565,769.83764 473.17594,769.28617 C 474.80531,768.8369 476.45879,768.48344 478.11266,768.13814 C 479.38482,767.81765 480.68466,767.62975 481.98374,767.45828 C 483.10433,767.32213 484.22794,767.31615 485.35516,767.29863 C 487.12902,767.23397 488.88636,767.31464 490.63651,767.6124 C 492.7521,767.96054 494.85086,768.40478 496.96536,768.75862 C 498.71497,768.97296 500.39984,769.47568 502.1051,769.88884 C 503.28529,770.25761 504.49096,770.53095 505.67906,770.87168 C 506.89657,771.14406 508.14884,771.15101 509.39111,771.19796 C 511.27131,771.43037 513.10756,771.89959 514.94952,772.32565 C 516.72752,772.80229 518.53555,773.08672 520.36847,773.22816 C 522.00297,773.38406 523.63121,773.57378 525.2664,773.72294 C 526.67107,773.86764 528.08971,773.76413 529.49347,773.88377 C 530.85066,773.96085 532.20686,774.05617 533.56651,774.05494 C 534.81604,774.08539 536.06563,774.10049 537.31565,774.09563 C 538.70984,774.08124 540.105,774.07752 541.49901,774.1076 C 542.18285,774.02747 542.87666,774.15966 543.55732,774.07868 C 542.46463,774.56959 541.44368,775.27022 540.27925,775.55141 C 540.24439,775.55983 540.43601,775.05792 540.38167,773.95443 C 540.32301,772.76323 540.17899,771.57122 539.99102,770.39484 C 539.70588,768.06971 539.13411,765.78112 538.59894,763.50157 C 538.33277,761.82663 537.89668,760.18279 537.46042,758.54546 C 536.91411,756.87831 536.62128,755.15279 536.38475,753.42034 C 536.33127,752.16652 536.16966,750.91851 536.08764,749.66844 C 535.97994,748.95692 535.96578,748.23738 535.97459,747.51756 C 535.85011,746.23275 536.70154,745.86697 537.71529,745.22782 L 537.8044,745.18244 C 538.88193,744.76401 539.62528,744.33151 539.55138,745.69037 C 539.57558,746.40101 539.59449,747.10545 539.63834,747.81421 C 539.80748,749.05315 539.82763,750.31249 539.93589,751.55851 C 540.10409,753.28288 540.468,754.98072 540.97161,756.63844 C 541.41817,758.2786 541.79311,759.93406 542.18384,761.58833 C 542.53632,763.91892 543.23664,766.17756 543.5796,768.51109 C 543.62868,769.08154 544.20615,773.56983 543.91147,773.84045 C 542.80655,774.85512 541.4782,775.59567 540.26157,776.47328 C 539.60528,776.4604 538.9419,776.46331 538.28155,776.44536 C 536.87518,776.47477 535.46769,776.47502 534.06116,776.45979 C 532.79242,776.45291 531.5247,776.46993 530.25604,776.44666 C 528.9081,776.37081 527.55841,776.34593 526.21136,776.24234 C 524.7934,776.21326 523.37547,776.17813 521.9606,776.07897 C 520.32923,775.92929 518.70584,775.68118 517.06916,775.58087 C 515.23787,775.39668 513.42878,775.08971 511.6501,774.608 C 509.81596,774.1672 507.96595,773.76407 506.08704,773.57178 C 504.8348,773.4848 503.55889,773.52456 502.34181,773.16594 C 501.1398,772.86884 499.95527,772.50902 498.76038,772.18513 C 497.09765,771.67488 495.38526,771.33836 493.66878,771.06847 C 491.56848,770.69293 489.47549,770.2769 487.37372,769.9101 C 485.61424,769.68506 483.86111,769.60911 482.08731,769.67908 C 480.96264,769.68952 479.83604,769.74763 478.72045,769.88795 C 477.43892,770.01784 476.17697,770.28442 474.92057,770.56406 C 473.27321,770.94024 471.60673,771.24582 469.98742,771.73644 C 468.03131,772.26424 466.09175,772.86894 464.07699,773.14105 C 461.87811,773.52171 459.68029,773.90802 457.48545,774.3112 C 455.37474,774.66903 453.2407,774.89238 451.15005,775.36642 C 449.3605,775.75391 447.60946,776.26862 445.86649,776.82827 C 444.11446,777.29074 442.35686,777.73426 440.56938,778.04188 C 439.61326,778.18733 438.32581,778.68816 437.54756,777.93143 C 437.32964,777.15971 436.97266,776.42499 436.86215,775.61879 C 436.56786,774.22461 436.68725,772.83332 436.65616,771.41424 C 436.67192,769.5217 436.59529,767.63045 436.43463,765.74473 C 436.03395,762.49005 435.64325,759.22761 434.72133,756.06819 L 437.64309,754.46329 z" />
    <path
       style="fill:#800000"
       id="path2463"
       d="M 537.81782,739.53086 C 537.76433,735.95377 537.50032,732.38327 537.38591,728.80816 C 537.29198,727.66534 537.32216,726.49599 537.23017,725.36351 C 538.37558,724.91507 539.48665,724.36639 540.66641,724.01818 C 540.71845,724.00282 540.87299,724.4825 540.89521,724.53101 C 541.00958,724.78064 541.2391,724.75372 541.48492,724.78351 C 543.00721,724.84022 544.57258,724.6416 546.10626,724.55719 C 548.30862,724.4428 550.51366,724.41379 552.71833,724.37969 C 554.7197,724.35179 556.70459,724.08906 558.67423,723.75276 C 560.2489,723.41253 561.82986,723.13735 563.43076,722.95828 C 564.9123,722.85106 566.35844,722.52283 567.81766,722.26239 C 569.12441,722.03407 570.42812,721.82691 571.75238,721.73461 C 573.18976,721.55939 574.57187,721.72545 575.97949,722.00333 C 577.09603,722.32398 578.5856,722.12407 579.26926,723.18806 C 579.53083,725.37096 578.9724,727.58677 578.6572,729.74406 C 578.16558,732.55832 577.72213,735.38224 576.99561,738.14716 C 576.51486,739.73374 575.79863,741.23545 575.22982,742.79342 C 575.00812,743.95629 574.73752,744.53052 573.73992,745.18543 L 572.29347,745.90795 C 570.79657,746.39132 571.32331,745.60506 571.50551,744.54186 C 571.98841,742.9563 572.78061,741.49142 573.28326,739.9118 C 574.1046,737.1917 574.48564,734.35 574.96098,731.55405 C 575.31731,729.50568 575.74446,727.36902 575.64146,725.29113 C 575.16177,724.38661 573.32161,724.81295 572.49497,724.43213 C 571.11984,724.15777 569.75721,724.0886 568.35831,724.24604 C 567.04469,724.38353 565.73856,724.57243 564.43838,724.80772 C 562.99184,725.05294 561.55621,725.36057 560.08747,725.45277 C 558.5152,725.67695 556.94678,725.9042 555.38922,726.22369 C 553.41783,726.54687 551.42612,726.73154 549.42812,726.7737 C 547.26499,726.77016 545.10176,726.7875 542.94038,726.8828 C 541.38099,726.96062 539.78425,727.22804 538.23566,726.99576 C 535.91622,725.88051 539.15472,724.29506 540.54766,723.65114 C 540.53276,724.81148 540.61838,725.98337 540.6135,727.14913 C 540.75377,730.72676 540.84251,734.30633 541.02377,737.88264 L 537.81782,739.53086 z" />
    <path
       style="fill:#008080"
       id="path2465"
       d="M 577.94044,754.82904 C 577.92841,757.86388 577.88801,760.90067 577.9473,763.93523 C 578.00758,765.11759 577.81961,766.39593 578.19834,767.53793 C 578.35095,768.2229 578.39099,768.92207 578.51279,769.60935 C 578.50362,769.69203 578.55871,770.42402 578.61555,769.98435 C 579.95331,769.85384 581.24811,769.48492 582.53705,769.11902 C 584.69414,768.48503 586.77654,767.63461 588.90825,766.92376 C 591.15093,766.2381 593.48431,765.9599 595.80421,765.6841 C 597.49593,765.59926 599.18024,765.43695 600.86069,765.22863 C 602.54245,765.05042 604.23536,765.02566 605.92525,764.98372 C 607.95167,764.88121 609.97112,764.67497 611.9898,764.47293 C 613.97493,764.29232 615.96891,764.32231 617.95859,764.25969 C 620.00234,764.31985 622.03951,764.49249 624.07919,764.62468 C 626.15384,764.73109 628.23167,764.699 630.3071,764.75692 C 632.51092,764.6706 634.7106,764.84955 636.88931,765.16629 C 638.47776,765.47766 640.07912,765.67058 641.68456,765.86836 C 643.36276,765.97331 645.04596,765.9026 646.72203,766.02915 C 648.69268,766.31235 650.62154,766.84704 652.54853,767.34045 C 654.22583,767.69285 655.83922,768.26151 657.47296,768.76167 C 658.5757,769.17282 659.66061,769.62707 660.73457,770.10496 C 661.52337,770.36207 662.33871,770.4895 663.09697,770.83397 C 663.54533,771.07336 664.03984,771.23157 664.44761,771.54064 C 663.12019,772.05481 661.87404,772.87821 660.46535,773.08315 C 660.14572,773.12965 660.25931,772.47089 660.15527,772.1651 C 659.52793,770.32113 658.791,768.52305 658.09723,766.70369 C 657.27218,764.66174 656.41815,762.6309 655.61132,760.58293 C 655.27605,759.50691 654.81333,758.449 654.56522,757.34847 C 654.39134,756.91639 654.30279,756.46048 654.08017,756.04473 C 653.88925,755.42061 653.63923,754.83065 653.51721,754.18486 C 653.18054,752.62712 653.77713,752.27535 655.06085,751.3787 L 655.21501,751.29882 C 656.85703,750.71156 656.96668,750.53257 657.30978,752.14678 C 657.46721,752.75421 657.6161,753.35553 657.92286,753.90735 C 658.03767,754.37376 658.2768,754.7932 658.36427,755.2653 C 658.78681,756.30014 658.98612,757.42525 659.39243,758.46949 C 660.23757,760.50413 661.06951,762.54509 661.89771,764.588 C 662.60271,766.40431 663.3198,768.21786 663.9842,770.04939 C 664.09772,770.36233 664.53509,770.73316 664.32224,770.98913 C 663.32668,772.1864 661.92399,772.97578 660.72486,773.9691 C 660.26147,773.78834 659.84946,773.50398 659.37885,773.33828 C 658.58564,773.10231 657.79945,772.84166 657.01045,772.59326 C 655.91376,772.1703 654.86409,771.6221 653.72887,771.29644 C 652.14994,770.68595 650.49633,770.31397 648.86252,769.88199 C 646.94712,769.40771 645.04001,768.81762 643.06655,768.64761 C 641.39916,768.54907 639.72492,768.62219 638.0612,768.44949 C 636.43849,768.34058 634.84239,767.98742 633.23619,767.74336 C 631.07034,767.45014 628.90118,767.32133 626.71518,767.3633 C 624.63425,767.39362 622.54981,767.33077 620.47222,767.21367 C 618.42129,767.10952 616.37626,766.88294 614.32095,766.9085 C 612.34671,766.88557 610.37013,766.97233 608.40216,767.12951 C 606.3884,767.2933 604.38178,767.55552 602.35912,767.59853 C 600.65766,767.7028 598.94449,767.66355 597.25325,767.90966 C 595.57826,768.06424 593.90353,768.19758 592.22761,768.34142 C 589.92631,768.55916 587.62597,768.92576 585.41987,769.63304 C 583.30728,770.32989 581.24472,771.17205 579.09793,771.76554 C 577.83428,772.1218 576.37364,772.66477 575.05331,772.36938 C 574.7404,772.01681 574.87325,771.96086 574.83508,771.51781 C 574.84962,770.83549 574.71812,770.15489 574.56554,769.49226 C 574.3975,768.26089 574.18789,767.04796 574.31603,765.78546 C 574.3742,762.74853 574.33581,759.70946 574.32288,756.67227 L 577.94044,754.82904 z" />
    <path
       style="fill:#000000"
       id="path2467"
       d="M 99.960909,683.92697 C 100.03769,685.73682 100.24736,687.5364 100.36016,689.34379 C 100.45841,690.03521 100.26348,690.23737 99.684222,690.56772 C 99.299856,690.76855 98.91549,690.96937 98.531123,691.17019 L 98.442389,691.2163 C 98.057856,691.41504 97.673322,691.61378 97.288789,691.81252 C 96.656925,692.10911 96.521808,692.07939 96.478394,691.36096 C 96.302004,689.56865 96.223617,687.76847 96.011073,685.97951 L 99.960909,683.92697 z" />
    <path
       style="fill:#000000"
       id="path2469"
       d="M 132.76558,683.09099 C 133.38468,686.80274 134.30426,690.46124 135.38596,694.06371 C 135.39074,694.79607 136.51195,696.82809 135.78035,697.53499 C 135.58128,697.72734 135.29835,697.80736 135.05735,697.94354 L 134.97939,698.00617 C 134.69173,698.16695 134.43512,698.40476 134.11639,698.48851 C 133.13537,698.74629 132.60123,696.17516 132.32259,695.74259 C 131.17495,692.16483 130.15799,688.56571 129.4277,684.87584 L 132.76558,683.09099 z" />
    <path
       style="fill:#000000"
       id="path2471"
       d="M 126.51647,685.96643 C 128.79265,686.76369 131.14621,687.43593 133.15825,688.8022 C 134.03211,689.3417 134.93887,689.95429 135.46436,690.86104 C 135.85727,691.45997 135.89532,692.151 135.48041,692.73692 C 134.14578,693.83279 134.97668,693.18298 131.67519,694.98188 C 131.23413,695.22221 131.28069,695.0862 130.86133,695.246 C 130.75503,695.2865 130.46055,695.46122 130.55864,695.40362 C 131.05653,695.11127 131.56022,694.82892 132.06101,694.54157 C 131.65278,694.81558 131.24455,695.08958 130.83632,695.36359 L 130.74434,695.40283 C 130.60076,695.34958 130.45719,695.29633 130.31361,695.24308 C 130.98232,694.80124 138.50641,690.26591 131.76122,694.33293 C 131.65363,694.39781 131.98855,694.2259 132.10222,694.17238 C 132.6001,693.68519 132.46466,693.38823 132.15207,692.80139 C 131.5478,692.01328 130.83075,691.40315 129.99944,690.83968 C 127.89568,689.65569 125.67658,688.76903 123.34941,688.11403 L 126.51647,685.96643 z" />
    <path
       style="fill:#000000"
       id="path2473"
       d="M 106.94706,682.12009 C 105.78767,684.82927 105.0245,687.70001 103.84308,690.39653 C 103.53202,691.1095 103.13721,691.78777 102.70235,692.43266 C 102.67355,692.64412 102.56728,692.19597 102.60709,692.08135 C 102.64895,691.96083 104.48336,691.9513 104.57965,691.94494 C 106.2265,691.88819 107.98807,691.65764 109.51018,692.41501 C 109.79898,693.17384 109.76942,692.75935 109.45001,693.66019 L 109.3663,693.7149 C 107.87641,694.01199 108.59192,693.92489 107.22367,694.00651 C 105.34823,693.96573 103.4792,693.96458 101.60554,694.13571 C 100.71427,694.19387 99.677697,694.58205 99.498314,693.75761 C 100.17875,693.27731 100.47693,692.4117 100.9102,691.73995 C 102.11359,689.05475 102.85039,686.18357 104.01435,683.48017 L 106.94706,682.12009 z" />
    <path
       style="fill:#000000"
       id="path2475"
       d="M 107.60341,688.29345 C 110.1492,688.65946 112.67231,689.15756 115.20786,689.5842 C 116.48674,689.84954 117.77355,690.16166 119.08518,690.17489 C 120.21079,690.25517 121.3383,690.09518 122.4636,690.0395 C 124.08019,689.9206 125.68927,689.75605 127.29944,689.56896 C 129.10446,689.35284 130.92076,689.29825 132.73552,689.23484 C 134.29754,689.25663 135.84218,689.4998 137.39954,689.59737 C 137.70976,689.72499 139.01569,689.45117 138.61773,690.00351 C 137.86424,690.59136 138.24392,690.3009 137.47866,690.87487 L 137.39754,690.93335 C 136.55953,691.51178 136.98592,691.22326 136.11799,691.79839 C 135.43602,692.11689 134.81508,692.04633 134.07066,691.97494 C 132.53216,691.82002 130.98821,691.64483 129.4411,691.64056 C 127.64976,691.66375 125.85954,691.77708 124.07811,691.96677 C 122.47468,692.15282 120.86778,692.29301 119.25682,692.39624 C 118.11937,692.46442 116.98287,692.56509 115.84224,692.48644 C 114.5915,692.2512 113.33047,692.07482 112.09454,691.75671 C 109.61163,691.21252 107.10136,690.80379 104.59182,690.40413 L 107.60341,688.29345 z" />
    <path
       style="fill:#000000"
       id="path2477"
       d="M 111.36604,644.34643 C 111.84449,648.50213 112.48053,652.63675 113.43428,656.71039 C 114.26515,659.85222 114.9185,661.95193 117.56836,663.93892 C 119.54333,665.1217 121.78591,665.29163 124.02259,665.08358 C 124.70444,664.90189 125.3751,664.68597 126.0345,664.43554 C 126.18764,664.37738 126.62921,664.16681 126.49227,664.25672 C 125.2562,665.06825 123.09656,666.14231 126.27531,664.50447 L 126.36817,664.46736 C 126.55948,664.45895 127.09488,664.32669 126.94211,664.44215 C 125.04348,665.87712 122.65305,667.2937 120.29017,667.84398 C 117.95625,668.02443 115.67857,667.73018 113.69844,666.37634 C 111.13411,664.30027 110.47062,661.82154 109.76438,658.68171 C 108.91097,654.55713 108.31261,650.38909 107.80823,646.2082 L 111.36604,644.34643 z" />
    <path
       style="fill:#000000"
       id="path2479"
       d="M 118.84223,659.17763 C 114.87898,658.04243 110.79477,657.6493 106.68886,657.6407 C 105.20804,657.63536 103.76574,658.00022 102.30566,658.16685 C 101.79548,658.22507 101.64968,657.97407 101.4938,658.02528 L 101.40058,658.06147 C 103.92173,656.36654 106.59258,655.57121 109.64407,655.49097 C 113.79387,655.43495 117.94156,655.91316 121.93874,657.06583 L 118.84223,659.17763 z" />
    <path
       style="fill:#000000"
       id="path2481"
       d="M 130.33642,668.45779 C 130.92385,667.93511 132.80895,664.54119 131.02844,664.56252 C 129.93613,665.22628 127.4372,665.84367 132.5941,663.66331 C 132.83745,663.56042 132.19571,664.01342 132.0252,664.21524 C 131.65002,664.65932 131.44908,665.10516 131.17818,665.6145 C 130.55393,667.13357 130.33618,668.75937 131.09416,670.2523 C 132.0737,671.72908 133.68752,672.44019 135.37336,672.7552 C 135.85634,672.98202 138.30457,672.84051 138.53553,673.20125 C 138.65473,673.38745 138.49612,673.64166 138.47642,673.86187 L 138.3962,673.92157 C 136.26056,674.85628 134.2578,675.63759 131.8959,675.16618 C 130.11105,674.69823 128.47988,673.9299 127.50538,672.2745 C 126.81973,670.52887 127.06028,668.88514 127.76567,667.16071 C 128.89218,664.69106 131.29888,662.84068 134.04294,662.46896 C 136.0491,663.23729 134.54006,665.8385 133.72784,667.0291 L 130.33642,668.45779 z" />
    <path
       style="fill:#000000"
       id="path2483"
       d="M 128.17643,695.34556 C 129.0286,699.693 129.82699,704.05094 130.64972,708.40408 C 131.38374,712.5992 132.1177,716.81688 132.42462,721.06908 C 132.37888,722.40204 132.66712,723.58859 130.09429,723.16289 C 129.66961,723.09262 130.62657,722.48624 130.89271,722.14791 L 130.98202,722.10294 C 131.22817,722.18858 131.89061,722.16243 131.72047,722.35986 C 129.48483,724.95417 129.44333,724.52593 128.90789,722.91453 C 128.19237,718.75432 127.7552,714.5472 126.8838,710.41176 C 126.07215,706.05672 125.21672,701.71036 124.42437,697.35187 L 128.17643,695.34556 z" />
    <path
       style="fill:#000000"
       id="path2485"
       d="M 130.1579,708.99555 C 133.96696,706.20047 138.08645,703.81783 142.41767,701.93079 C 145.19131,700.69526 148.11785,699.96832 151.10544,699.5033 C 153.983,699.17198 156.88079,699.10065 159.77391,699.16944 C 162.26731,699.31334 164.75894,699.44348 167.25612,699.49644 C 169.28231,699.49875 171.28696,699.19127 173.3043,699.0639 C 175.44747,698.93273 177.5935,698.80603 179.72815,698.57029 C 182.03559,698.22692 184.32848,697.796 186.64641,697.52697 C 189.17493,697.24353 191.72249,697.1891 194.26328,697.09331 C 196.90886,696.90803 199.55563,696.71345 202.19691,696.46939 C 204.92795,696.25381 207.66809,696.22787 210.40603,696.21309 C 213.20715,696.20876 216.00897,696.16377 218.81014,696.19636 C 220.77241,696.20324 222.73586,696.15878 224.6976,696.19123 C 226.63746,696.1584 228.57874,696.23061 230.51018,696.41918 C 232.64143,696.61093 234.77554,696.60791 236.91184,696.54191 C 238.97416,696.49799 241.03698,696.442 243.0999,696.45149 C 245.06401,696.4212 247.03027,696.40067 248.99404,696.462 C 250.11406,696.46016 251.20961,696.78082 252.31838,696.85476 C 252.76718,696.93622 253.25485,696.90632 253.71231,696.89147 C 254.46504,696.95364 255.21179,696.82667 255.95848,696.75418 C 256.86664,696.70274 254.78303,697.7209 254.26549,698.02628 L 254.34573,697.9666 C 253.80534,698.56179 253.37117,699.17929 252.54681,699.30566 C 251.7586,699.44285 250.96749,699.47279 250.16912,699.46313 C 249.69512,699.44155 249.22237,699.44589 248.75614,699.35168 C 247.72677,699.02761 246.56908,699.14257 245.51388,698.97338 C 243.56557,698.90847 241.61544,698.98913 239.6665,698.95011 C 237.59606,698.99121 235.52504,698.99971 233.45503,699.06517 C 231.31262,699.09372 229.16979,699.11726 227.03394,698.90567 C 225.10375,698.80506 223.17738,698.63675 221.2409,698.7025 C 219.28682,698.73223 217.33119,698.68813 215.37662,698.6907 C 212.57797,698.71948 209.77909,698.67137 206.98044,698.70742 C 204.23697,698.75004 201.49078,698.7911 198.7547,699.01371 C 196.11016,699.20333 193.47183,699.47849 190.82334,699.61487 C 188.29384,699.73339 185.75738,699.76886 183.2401,700.06749 C 180.9161,700.38176 178.61476,700.83165 176.2892,701.12697 C 174.14467,701.36288 171.99057,701.48174 169.8382,701.62315 C 167.83439,701.80484 165.82635,702.04381 163.81157,701.99542 C 161.31753,702.01187 158.82878,701.78025 156.33894,701.65354 C 153.47632,701.59538 150.60487,701.63042 147.76176,702.0097 C 144.84415,702.4321 142.00112,703.23685 139.29102,704.40662 C 138.76791,704.63884 138.23947,704.85943 137.72168,705.1033 C 137.19501,705.35135 135.87043,706.38794 136.15841,705.88199 C 136.48779,705.30328 137.31661,705.2218 137.8673,704.84745 C 138.8463,704.18196 135.84134,706.07502 134.866,706.74585 C 134.46642,707.02068 134.07504,707.30724 133.67956,707.58794 L 130.1579,708.99555 z" />
    <path
       style="fill:#000000"
       id="path2487"
       d="M 256.6846,686.46169 C 257.70744,692.27084 258.56899,698.10551 259.30727,703.95723 C 259.63465,707.27225 260.32209,710.57434 260.3295,713.91582 C 260.24713,714.72524 259.49512,714.97373 258.87193,715.3305 L 258.79165,715.39013 C 258.32499,715.62738 257.37349,716.39992 257.06565,715.61111 C 256.53663,712.3283 256.50789,708.97864 256.00942,705.69052 C 255.26035,699.85995 254.43294,694.0415 253.28776,688.27304 L 256.6846,686.46169 z" />
    <path
       style="fill:#000000"
       id="path2489"
       d="M 250.23098,692.19456 C 252.76889,693.02416 255.17967,694.14059 257.52045,695.40879 C 258.55292,696.10194 259.59549,696.78071 260.21097,697.88645 C 260.48867,699.74885 259.33091,701.65797 258.62929,703.32592 C 257.60459,705.44327 256.9112,707.96217 255.301,709.75118 C 254.72256,710.39386 254.01355,710.90573 253.36982,711.48301 L 253.27832,711.52337 C 253.13364,711.30221 252.84722,711.12416 252.84427,710.85989 C 252.83933,710.41738 253.11313,710.01656 253.25685,709.59801 C 253.79098,708.04244 254.41895,706.52432 255.01348,704.99145 C 255.68467,703.37484 256.63201,701.66648 256.7082,699.89397 C 256.17697,698.85421 255.05884,698.24559 254.12657,697.61536 C 251.86062,696.25397 249.36866,695.27639 246.84973,694.49365 L 250.23098,692.19456 z" />
    <path
       style="fill:#000000"
       id="path2491"
       d="M 135.42958,695.43969 C 136.14492,698.35791 136.51909,701.34766 136.59792,704.34818 C 136.6264,705.99851 136.44377,707.63305 136.25734,709.26964 C 136.14822,710.19079 136.20611,711.14103 135.96685,712.04278 C 135.83329,712.48387 135.53017,712.79485 135.21526,713.11043 C 135.25868,712.85255 135.13304,712.48923 135.34552,712.33677 C 136.13464,711.77055 142.32151,715.17207 143.10831,715.61064 C 144.68365,716.69811 147.0172,717.31238 148.14076,719.00704 C 149.4628,721.00107 147.60721,719.52303 149.02218,720.51845 L 148.93982,720.57516 C 147.89711,720.54025 146.84205,720.68283 145.8103,720.52804 C 143.57942,720.19336 141.64903,718.77734 139.63679,717.88943 C 137.7298,716.9885 135.81326,715.95682 133.82157,715.24759 C 133.45018,715.11533 133.05952,715.04514 132.6785,714.94392 C 132.46837,714.95955 132.25054,715.0493 132.04811,714.99082 C 131.82517,714.9264 131.6658,714.72767 131.47464,714.5961 C 131.84098,714.38121 132.15939,714.08768 132.42207,713.75518 C 132.56843,712.83892 132.76038,711.9318 132.78771,710.99758 C 132.90082,709.37647 133.10979,707.75925 133.10977,706.13247 C 133.09352,703.15947 132.76185,700.18993 131.97705,697.31574 L 135.42958,695.43969 z" />
    <path
       style="fill:#000000"
       id="path2493"
       d="M 180.5574,652.81103 C 180.01202,658.87939 179.7833,664.96301 179.80481,671.05409 C 180.07194,674.42155 179.43272,679.64909 182.01206,682.35824 C 182.38108,682.74583 182.86997,682.99824 183.29892,683.31824 C 186.86916,684.92578 190.91247,684.98143 194.76513,684.86204 C 195.07747,684.67545 197.28887,684.71487 197.14218,683.87467 L 197.23433,683.83582 C 195.52619,685.46787 194.02641,686.77739 191.60893,687.20252 C 187.40994,687.83754 183.03158,687.91604 179.15273,685.93173 C 178.6965,685.56626 178.17724,685.26789 177.78404,684.83533 C 175.00628,681.77945 176.03606,676.80632 175.76718,673.10853 C 175.85616,667.00989 176.10674,660.91706 176.52391,654.83159 L 180.5574,652.81103 z" />
    <path
       style="fill:#000000"
       id="path2495"
       d="M 186.15166,672.22216 C 181.00881,669.86082 175.3895,668.77867 169.80406,668.10551 C 168.12285,667.76102 166.42527,668.21269 164.74184,668.06577 C 164.63398,668.05635 164.54158,667.93632 164.43547,667.95785 C 164.27387,667.99064 164.15326,668.12849 164.01216,668.21381 L 163.91899,668.25013 C 166.88103,666.268 169.12997,665.65371 172.7363,666.02796 C 178.39847,666.69938 184.04076,667.86696 189.28575,670.16952 L 186.15166,672.22216 z" />
    <path
       style="fill:#000000"
       id="path2497"
       d="M 198.25426,689.07891 C 196.94699,688.88056 195.56216,688.73672 194.25578,689.0525 C 193.82991,689.15544 192.68209,689.78685 193.02519,689.51436 C 193.64562,689.02161 194.35638,688.61666 195.11051,688.37367 C 195.45714,688.26197 194.5689,688.86069 194.29809,689.10421 C 192.99288,690.93278 193.35156,692.89745 194.72298,694.54035 C 193.86304,695.97297 197.86881,694.28857 197.0654,694.35893 C 196.29025,694.42681 195.45244,695.5531 194.8421,695.07043 C 194.32592,694.66223 195.4751,693.91492 195.74501,693.31474 C 196.06596,692.60105 196.32342,691.86048 196.61263,691.13335 C 198.11777,686.86512 198.9196,682.40857 199.67133,677.96051 C 199.93659,676.33595 199.96756,674.69217 200.1101,673.0569 C 200.71602,674.0713 202.23583,672.09977 203.3657,672.11248 C 203.71371,672.1164 203.25145,672.79914 203.20047,673.14342 C 203.13326,673.59735 203.05693,674.05039 203.01114,674.50698 C 202.89541,675.66088 202.8638,676.99436 202.81948,678.1434 C 202.77208,682.32143 203.5677,686.38552 205.05462,690.27135 C 206.16999,692.65581 207.94869,694.61337 209.27624,696.86795 C 209.52874,697.8075 209.58713,697.35697 209.06464,698.21431 L 208.98324,698.27238 C 207.12707,698.95456 207.99781,698.92954 206.3935,698.62255 C 204.14264,697.03513 202.53175,694.80098 201.44001,692.27637 C 200.03481,688.28958 199.2849,684.12486 199.37698,679.88402 C 199.39278,679.20971 199.44238,674.20305 199.89533,673.77286 C 200.96533,672.75659 202.27861,672.02967 203.51376,671.22215 C 203.55725,671.19371 203.56031,671.31507 203.58358,671.36153 C 203.16387,672.97912 203.39878,674.72191 202.97011,676.34551 C 202.28445,680.82718 201.35124,685.28415 199.93135,689.59509 C 198.22716,694.04716 198.86268,693.4335 194.1736,696.69208 C 193.19612,697.37137 192.39926,697.13292 191.54803,696.44094 C 190.12852,694.64527 189.70653,692.52278 190.94756,690.48335 C 193.85579,687.53106 197.32751,686.2884 201.28718,686.98296 L 198.25426,689.07891 z" />
    <path
       style="fill:#000000"
       id="path2499"
       d="M 100.13227,829.5233 C 99.046707,833.08569 98.702906,836.80074 98.340358,840.4887 C 98.223675,842.16572 98.194323,843.84337 98.006455,845.51294 C 97.984971,846.48261 97.271256,847.01453 96.621275,847.64687 L 96.533693,847.69514 C 95.775104,847.85271 94.857066,848.2539 94.482477,847.34363 C 94.029521,845.7383 94.679982,843.97114 94.618918,842.34513 C 94.886818,838.64005 95.338081,834.92859 96.29328,831.33146 L 100.13227,829.5233 z" />
    <path
       style="fill:#000000"
       id="path2501"
       d="M 101.22506,834.53566 C 105.45175,834.44471 109.63713,834.03005 113.75579,833.07571 C 117.15534,832.02476 120.36717,830.53437 123.80603,829.60004 C 127.14597,828.81263 130.54793,828.34758 133.97245,828.17771 C 137.66973,827.91503 141.37315,828.01179 145.05368,828.42191 C 149.37364,829.08083 153.63866,830.02859 157.95179,830.72865 C 163.02436,831.52158 168.14741,831.45565 173.25965,831.29995 C 178.65241,831.03712 184.04839,830.86548 189.44612,830.75042 C 193.82181,830.71761 198.18083,830.38116 202.50061,829.69331 C 206.7758,828.96989 211.10724,828.73627 215.43009,828.50536 C 221.04692,828.23905 226.66709,828.05353 232.28784,827.89454 C 236.23199,827.76166 240.18905,827.87643 244.12604,827.57525 C 246.3473,827.32194 248.5781,827.20538 250.80677,827.04847 C 252.84841,826.90284 254.89459,826.83544 256.94031,826.77898 C 258.4787,826.74017 260.01796,826.7821 261.55606,826.74502 C 262.6812,826.7445 263.80074,826.73435 264.91323,826.91831 C 265.91307,827.03542 266.89881,827.22322 267.89307,827.3764 C 268.68785,827.67008 269.48402,827.46999 268.59657,828.36698 C 268.41,828.51621 268.22342,828.66545 268.03685,828.81469 L 267.95453,828.87146 C 267.7248,829.00988 267.49507,829.1483 267.26533,829.28672 C 266.38023,829.73341 265.71753,829.81218 264.7421,829.57872 C 263.76471,829.36401 262.7582,829.32218 261.77488,829.13643 C 260.65707,829.0266 259.53897,828.98232 258.41509,829.02706 C 256.88911,828.98756 255.36142,829.03313 253.83524,829.04521 C 251.80116,829.0767 249.7681,829.16203 247.73899,829.31042 C 245.49633,829.46799 243.25399,829.62092 241.01811,829.86118 C 237.09808,830.01752 233.17703,830.0352 229.25486,830.10966 C 223.6316,830.22991 218.01103,830.44287 212.39411,830.73515 C 208.07188,830.95061 203.74692,831.24319 199.47431,831.96262 C 195.14641,832.58962 190.79999,832.95164 186.42274,832.95612 C 181.02735,833.05281 175.63466,833.23136 170.2451,833.50393 C 165.12391,833.65395 159.98566,833.67917 154.90919,832.86464 C 150.59385,832.15175 146.31396,831.24479 141.9884,830.60097 C 138.3093,830.24834 134.63048,830.14116 130.93832,830.41394 C 127.51616,830.70949 124.09864,831.09241 120.76105,831.94184 C 117.35611,832.92171 114.14791,834.40934 110.73901,835.37138 C 106.63959,836.26924 102.45492,836.6083 98.262092,836.70182 L 101.22506,834.53566 z" />
    <path
       style="fill:#000000"
       id="path2503"
       d="M 258.01654,819.37407 C 258.69713,817.71135 259.61476,816.15652 260.54197,814.62147 C 261.32684,813.29916 261.02917,812.97778 264.0726,813.11162 C 264.42525,813.12713 264.25038,813.79487 264.33927,814.13649 C 264.97114,818.2408 264.80934,822.41386 264.58371,826.54389 C 264.38749,829.78266 263.81654,832.97809 263.43488,836.19504 C 263.15171,837.84293 263.94057,839.33858 264.7715,840.70919 C 265.32197,841.79747 264.91714,842.19107 263.97027,842.8112 L 263.87912,842.85234 C 262.92947,843.3551 262.33811,843.44711 261.70118,842.47335 C 260.96063,840.98384 259.97738,839.50085 260.24731,837.76146 C 260.803,834.53585 261.28857,831.29519 261.60976,828.0369 C 261.87612,823.93316 262.08317,819.78753 261.43075,815.70702 C 261.35761,815.38291 261.00208,814.9928 261.21131,814.7347 C 264.98039,810.08522 264.24175,812.59507 263.15964,813.4804 C 261.98864,815.01594 260.8826,816.62351 260.1255,818.409 L 258.01654,819.37407 z" />
    <path
       style="fill:#000000"
       id="path2505"
       d="M 250.04674,825.96281 C 250.95819,824.18841 251.71136,822.34581 252.46521,820.50168 C 252.56084,820.22015 252.70929,819.87415 252.68562,819.59538 C 253.83866,819.10414 254.93073,818.43309 256.14475,818.12166 C 256.29847,818.08223 259.53765,820.78716 259.91364,821.11545 C 261.36541,822.31798 262.87997,823.44502 264.21145,824.78407 C 264.85124,825.52413 265.08217,826.13783 265.03105,827.10714 C 264.37738,829.75818 262.08824,831.42791 260.06636,833.04948 C 258.05337,834.57407 256.03227,836.07075 254.07435,837.66607 L 253.98187,837.70411 C 255.00713,836.44733 256.00002,835.15865 257.30217,834.16582 C 259.05991,832.62042 261.21307,831.05051 261.84835,828.68482 C 261.99869,827.81582 261.79841,827.26831 261.16539,826.62926 C 259.9931,825.18483 258.38815,824.14926 256.99256,822.93697 C 256.20426,822.27686 255.43986,821.59067 254.62489,820.96301 C 254.37917,820.77378 254.1325,820.58538 253.87744,820.40893 C 253.68408,820.27516 253.12806,820.21196 253.28057,820.03301 C 253.95812,819.23802 254.95583,818.78487 255.79346,818.16081 C 255.51121,818.49543 255.34064,818.91249 255.11999,819.28724 C 254.20504,821.16451 253.2732,823.03351 252.36343,824.91294 L 250.04674,825.96281 z" />
    <path
       style="fill:#000000"
       id="path2507"
       d="M 108.13352,827.09809 C 105.14505,829.45557 102.73489,832.42442 100.40469,835.40804 C 99.926289,836.56702 98.295913,837.52798 98.162999,838.83947 C 98.957763,839.15989 99.80707,839.38162 100.61807,839.68878 C 104.68543,841.27923 108.56726,843.28651 112.36129,845.43777 C 114.47163,846.8372 116.94401,847.94238 118.41046,850.11601 C 118.7197,850.57438 118.86406,851.12456 119.09086,851.62884 L 119.00638,851.68236 C 115.52797,850.75478 112.3596,849.33066 109.27819,847.45112 C 105.3876,845.42162 101.46655,843.42044 97.349656,841.88278 C 96.489206,841.53824 95.488375,841.29973 94.871734,840.56158 C 94.559409,839.2229 96.614499,837.91514 97.078769,836.83511 C 99.389597,833.82903 101.83436,830.8605 104.77177,828.4435 L 108.13352,827.09809 z" />
    <path
       style="fill:#000000"
       id="path2509"
       d="M 123.53209,879.41861 C 122.38189,875.97389 122.01467,872.3793 121.79845,868.77614 C 121.68073,863.32838 121.99574,857.88192 122.65275,852.47549 C 123.02068,849.60891 123.73154,846.84561 124.81499,844.17395 C 126.53516,840.40195 125.59733,841.47723 130.20039,838.81069 C 132.28319,839.54963 133.37287,841.89842 134.42641,843.67363 C 137.30379,849.05959 139.8037,854.64352 142.07026,860.31068 C 143.59534,864.82925 145.87947,869.42429 146.00624,874.28167 C 144.92466,878.17264 140.91167,877.24559 138.12457,877.03095 C 134.13084,876.83888 130.13288,876.83829 126.13592,876.80065 C 124.81508,876.84278 123.49285,876.94691 122.26288,877.46982 C 121.98076,877.58977 121.18876,878.06107 121.45304,877.9057 C 122.14975,877.49606 122.85219,877.09598 123.56056,876.70685 C 123.9199,876.50946 122.85377,877.12253 122.50037,877.33036 C 122.02513,877.5813 121.54988,877.83224 121.07463,878.08319 L 120.98176,878.12026 C 120.84101,878.11346 120.70025,878.10665 120.5595,878.09985 C 121.4624,876.65803 120.72593,877.74005 124.25922,875.65265 C 125.79562,874.74498 127.52321,874.5075 129.2852,874.51552 C 133.30039,874.52721 137.31861,874.5665 141.33035,874.73253 C 141.83285,874.75757 142.33535,874.78261 142.83785,874.80765 C 143.20137,874.84156 143.56393,874.888 143.9284,874.90938 C 144.19962,874.92529 144.9459,874.73831 144.7434,874.91944 C 139.26234,879.82203 141.79412,877.06059 142.41896,876.10896 C 142.56153,871.28166 140.12535,866.68108 138.68774,862.20212 C 136.36349,856.58119 133.91214,851.00869 130.98392,845.67074 C 130.145,844.31306 128.85185,841.41862 126.96716,841.35854 C 134.4784,836.72529 130.43484,838.80386 129.82534,839.74219 C 129.28376,840.57596 129.0308,841.59634 128.5476,842.46036 C 127.35246,845.05639 126.74169,847.865 126.29389,850.67753 C 125.58746,856.0598 125.25793,861.48864 125.3976,866.91869 C 125.55448,870.49256 125.91737,874.0673 127.06274,877.47924 L 123.53209,879.41861 z" />
    <path
       style="fill:#000000"
       id="path2511"
       d="M 164.15467,844.80356 C 163.03537,850.36346 162.40147,855.98987 161.93529,861.63636 C 161.83686,865.01586 161.15548,870.13332 165.09594,871.73603 C 165.71077,871.9861 166.38919,872.03555 167.03582,872.18532 C 171.59664,872.23883 175.83744,870.39069 179.9001,868.5087 C 179.37187,869.18727 179.47841,868.98356 180.51501,868.19643 L 180.60757,868.15857 C 179.5385,869.53732 180.40079,868.53421 177.40579,870.50301 C 173.05093,872.78477 168.40227,874.99127 163.3677,874.71748 C 162.67245,874.53716 161.936,874.47334 161.28195,874.1765 C 157.20727,872.3272 158.01026,867.07414 158.1925,863.49986 C 158.77995,857.82109 159.54689,852.16209 160.56114,846.54276 L 164.15467,844.80356 z" />
    <path
       style="fill:#000000"
       id="path2513"
       d="M 162.64658,859.51689 C 158.28839,858.16789 153.68423,857.96901 149.32437,856.64715 C 148.80922,856.62434 148.29408,856.60154 147.77893,856.57874 L 147.85905,856.51891 C 148.68196,856.31959 149.50486,856.12026 150.32776,855.92094 C 151.35194,855.77657 152.36834,855.55734 153.40031,855.48783 C 157.68196,855.19944 162.04009,856.09945 166.15947,857.14936 L 162.64658,859.51689 z" />
  </g>
</svg>
